SplineFontDB: 3.0
FontName: Maritime_Tropical_Neue
FullName: Maritime Tropical Neue
FamilyName: Maritime Tropical Neue
Weight: Medium
Copyright: 
UComments: "2012-6-14: Created." 
Version: 001.000
ItalicAngle: 0
UnderlinePosition: -205
UnderlineWidth: 102
Ascent: 1500
Descent: 548
LayerCount: 2
Layer: 0 0 "Back"  1
Layer: 1 0 "Fore"  0
XUID: [1021 548 483398849 16748575]
FSType: 0
OS2Version: 0
OS2_WeightWidthSlopeOnly: 0
OS2_UseTypoMetrics: 1
CreationTime: 1339705680
ModificationTime: 1362942577
PfmFamily: 65
TTFWeight: 500
TTFWidth: 5
LineGap: 184
VLineGap: 0
OS2TypoAscent: 0
OS2TypoAOffset: 1
OS2TypoDescent: 0
OS2TypoDOffset: 1
OS2TypoLinegap: 184
OS2WinAscent: 0
OS2WinAOffset: 1
OS2WinDescent: 0
OS2WinDOffset: 1
HheadAscent: 0
HheadAOffset: 1
HheadDescent: 0
HheadDOffset: 1
OS2Vendor: 'PfEd'
Lookup: 4 0 1 "'liga' Standard Ligatures lookup 0"  {"'liga' Standard Ligatures lookup 0-1"  } ['liga' ('DFLT' <'dflt' > 'grek' <'dflt' > 'latn' <'dflt' > ) ]
Lookup: 258 0 0 "'kern' Horizontal Kerning lookup 2"  {"'kern' Horizontal Kerning lookup 2-1" [600,50,2] } ['kern' ('DFLT' <'dflt' > 'grek' <'dflt' > 'latn' <'dflt' > ) ]
MarkAttachClasses: 1
DEI: 91125
LangName: 1033 
Encoding: UnicodeBmp
Compacted: 1
UnicodeInterp: none
NameList: Adobe Glyph List
DisplaySize: -96
AntiAlias: 1
FitToEm: 1
WinInfo: 0 19 9
BeginPrivate: 0
EndPrivate
Grid
-2048 -870 m 0
 4096 -870 l 0
  Named: "g" 
-2048 864.843 m 0
 4096 864.843 l 0
-2048 732.843 m 0
 4096 732.843 l 0
-2048 595.229 m 0
 4096 595.229 l 0
-2048 481.229 m 0
 4096 481.229 l 0
-2048 1440 m 0
 4096 1440 l 0
-2036.7 972 m 0
 4107.3 972 l 0
EndSplineSet
TeXData: 1 0 0 359936 179968 119978 479846 -1048576 119978 783286 444596 497025 792723 393216 433062 380633 303038 157286 324010 404750 52429 2506097 1059062 262144
BeginChars: 65539 459

StartChar: b
Encoding: 98 98 0
Width: 1060
VWidth: 0
Flags: HMW
VStem: 110 130<0 1440>
LayerCount: 2
Fore
SplineSet
229.881 144.794 m 0
 313.927 94.9893 678.408 -7.38086 841.201 183.002 c 0
 967.565 330.783 935.097 691.069 790.551 807.572 c 0
 656.045 915.982 492.273 890.365 351.969 752.253 c 0
 214.191 616.628 218.021 280.635 220.08 161.654 c 0
 220.2 154.749 224.05 148.25 229.881 144.794 c 0
124.368 1401.57 m 0
 123.707 1424.1 135.469 1431.78 154.311 1432.35 c 0
 180.52 1433.14 204.782 1415.56 205.385 1394.41 c 0
 212.996 1126.49 215.003 1016.6 220.383 775.554 c 0
 220.626 764.663 229.933 755.762 240.824 756.005 c 0
 247.756 756.16 254.365 760.844 257.12 765.06 c 0
 260.098 769.616 263.179 774.127 266.358 778.589 c 0
 383.732 943.269 630.899 1035.09 826.389 895.715 c 0
 829.086 893.793 831.753 891.822 834.392 889.805 c 0
 1031.63 738.983 1059.46 324.868 910.13 130.172 c 0
 721.965 -115.159 321.603 10.7305 244.216 56.2402 c 0
 234.825 61.7617 222.359 58.5283 216.837 49.1377 c 0
 214.905 45.8525 214.051 39.8564 214.083 38.5254 c 0
 214.741 10.8018 195.089 -1.72461 170.522 -1.38477 c 0
 146.429 -1.05273 130.79 11.6895 131.075 29.6826 c 0
 138.812 517.733 140.994 835.325 124.368 1401.57 c 0
EndSplineSet
EndChar

StartChar: c
Encoding: 99 99 1
Width: 875
VWidth: 0
Flags: HW
LayerCount: 2
Fore
SplineSet
710.623 842.15 m 0
 659.495 872.825 521.655 903.308 412.518 870.135 c 0
 397.344 865.523 382.582 859.816 368.293 853.128 c 0
 182.049 765.961 71.4443 510.916 163.23 315.497 c 0
 254.658 120.838 475.648 32.9561 775.832 136.085 c 0
 806.961 146.779 822.83 133.543 828.606 117.565 c 0
 835.357 98.8926 828.954 70.916 792.562 57.8184 c 0
 532.352 -35.8242 197.039 -13.5439 79.0547 288.89 c 0
 74.0977 301.597 69.6787 314.564 65.7998 327.742 c 0
 -4.51855 566.674 103.462 869.14 384.052 951.429 c 0
 524.992 992.764 725.13 944.778 763.569 916.825 c 0
 785.975 900.532 786.877 876.708 775.489 857.407 c 0
 763.284 836.723 739.313 824.937 710.623 842.15 c 0
EndSplineSet
EndChar

StartChar: d
Encoding: 100 100 2
Width: 977
VWidth: 0
Flags: HW
VStem: 738.4 136<75.4526 1421.63>
LayerCount: 2
Fore
SplineSet
758.395 1378.45 m 0
 758.276 1383.7 758.447 1388.5 758.854 1392.87 c 0
 762.354 1430.5 780.401 1437.57 799.626 1435.77 c 0
 828.475 1433.06 857.42 1405.62 854.497 1375.96 c 0
 840.095 1229.89 851.863 211.296 862.048 64.6143 c 0
 862.24 61.8389 862.305 59.1484 862.252 56.541 c 0
 861.406 14.4756 830.459 -8.07422 805.628 -7.41797 c 0
 785.863 -6.89453 760.363 7.98926 761.992 67.4531 c 0
 766.024 214.619 762.413 1199.63 758.395 1378.45 c 0
717.623 842.15 m 0
 667.042 872.498 573.485 892.134 465.209 865.418 c 0
 455.742 863.082 446.415 860.445 437.234 857.522 c 0
 212.371 785.937 74.8652 542.311 142.865 330.271 c 0
 154.473 294.077 170.381 261.198 190.007 232.049 c 0
 308.302 56.3574 555.343 23.0977 790.181 181.417 c 0
 816.12 198.904 820.093 191.369 820.093 191.369 c 0
 823.797 186.695 824.444 148.133 781.694 114.766 c 0
 730.793 75.0391 672.994 45.3955 612.644 26.7578 c 0
 391.85 -41.4287 141.088 36.7275 60.1152 299.882 c 0
 57.375 308.789 54.9229 317.801 52.7568 326.902 c 0
 -5.42969 571.42 143.809 877.052 434.713 946.163 c 0
 579.59 980.582 732.005 944.87 770.57 916.825 c 0
 792.975 900.532 793.877 876.708 782.489 857.407 c 0
 770.285 836.723 746.313 824.937 717.623 842.15 c 0
EndSplineSet
EndChar

StartChar: e
Encoding: 101 101 3
Width: 947
VWidth: 0
Flags: HW
HStem: 0 122<393 669> 484.229 120<10.8401 494.735> 864.843 107.157<424 664>
LayerCount: 2
Fore
SplineSet
199.196 458.104 m 0
 205.088 331.963 259.583 208.513 366.095 139.234 c 0
 523.644 36.7607 731.745 117.79 833.452 209.119 c 0
 855.482 228.902 875.639 225.418 887.751 215.339 c 0
 901.412 203.972 909.399 179.865 884.845 150.945 c 0
 800.519 51.6289 539.325 -48.3955 357.753 39.9834 c 0
 204.032 114.806 116.614 283.859 110.858 460.831 c 0
248.74 571.982 m 0
 335.854 567.962 416.526 567.273 487.406 571.645 c 0
 655.613 582.016 789.312 622.084 782.052 739.236 c 0
 780.375 766.296 770.092 790.972 754.035 811.789 c 0
 681.078 906.379 489.091 931.251 355.741 827.802 c 0
 286.348 773.969 240.209 697.25 216.816 613.976 c 0
70.4482 503.307 m 0
 63.6299 503.604 56.7754 503.904 49.8848 504.209 c 0
 15.7168 505.721 4.4502 526.582 5.87305 545.695 c 0
 7.34473 565.456 23.2207 587.621 63.3486 584.298 c 0
 68.3789 583.881 73.3984 583.471 78.4053 583.066 c 0
128.273 619.826 m 0
 143.687 679.241 169.247 735.956 205.349 786.354 c 0
 295.183 911.75 420.032 964.304 537.609 967.73 c 0
 711.938 972.811 860.554 870.449 864.098 743.441 c 0
 864.274 737.104 864.278 730.941 864.113 724.949 c 0
 858.422 518.42 644.927 485.692 239.282 497.028 c 0
207.434 574.107 m 1
 202.745 549.324 199.855 523.405 198.953 498.269 c 1
 170.797 499.211 140.74 500.36 110.983 501.587 c 1
 112.012 527.719 114.862 554.132 119.503 579.885 c 1
 148.982 577.706 178.992 575.72 207.434 574.107 c 1
EndSplineSet
EndChar

StartChar: f
Encoding: 102 102 4
Width: 818
VWidth: 0
Flags: HW
HStem: 477 140<9.31875 547.833> 497 122<320.033 682.446>
VStem: 169 127<620.722 1210.94> 226 127<7.05368 476.862>
LayerCount: 2
Fore
SplineSet
636.775 516.999 m 0
 546.881 515.987 212.22 500.986 66.4521 496.992 c 0
 61.2998 496.852 56.4629 496.937 51.9355 497.218 c 0
 1.85156 500.33 -9.68652 524.502 -8.33594 544.576 c 0
 -6.61523 570.146 18.6465 600.173 63.6143 597.049 c 0
 209.649 586.908 531.632 590.909 636.549 599.061 c 0
 670.246 601.679 695.492 572.862 695.853 550.729 c 0
 696.07 537.354 688.317 517.578 636.775 516.999 c 0
188.976 930.988 m 0
 179.778 1117.03 183.67 1322.91 347.046 1394.69 c 0
 535.064 1477.3 749.681 1391.74 868.146 1315.2 c 0
 909.595 1288.42 907.401 1258.4 894.278 1239.33 c 0
 880.344 1219.08 852.216 1208.96 824.47 1228.38 c 0
 732.561 1292.71 542.816 1376.04 415.008 1320.33 c 0
 281.677 1262.21 271.682 1048.47 276.016 939.208 c 0
 288.762 617.759 307.789 390.526 333.055 49.5225 c 0
 335.194 20.6348 313.825 2.95508 290.015 1.35059 c 0
 269.06 -0.0625 248.206 10.333 245.961 46.248 c 0
 223.475 406.053 204.675 613.403 188.976 930.988 c 0
EndSplineSet
EndChar

StartChar: g
Encoding: 103 103 5
Width: 900
VWidth: 0
Flags: HW
LayerCount: 2
Fore
SplineSet
667.842 801.534 m 0
 667.264 809.049 668.141 815.054 669.777 819.916 c 0
 672.61 828.333 668.918 837.681 662.896 842.24 c 0
 633.674 864.369 545.128 888.461 450.356 875.824 c 0
 421.452 871.97 392.919 863.301 365.492 850.594 c 0
 184.733 766.852 45.3984 504.807 165.863 245.572 c 0
 183.503 207.61 211.755 174.239 246.65 147.755 c 0
 366.882 56.5049 570.806 45.3926 705.796 223.815 c 0
 708.703 227.658 710.114 232.656 709.801 237.247 c 0
 698.686 399.815 681.741 620.894 667.842 801.534 c 0
683.693 118.959 m 0
 635.536 65.21 580.549 31.5898 523.483 14.1055 c 0
 336.343 -43.2344 124.259 74.2959 70.1309 251.832 c 0
 66.0283 265.289 62.3877 278.678 59.1963 291.989 c 0
 -17.4336 611.539 163.309 886.965 416.651 947.549 c 0
 618.707 995.862 750.432 915.943 783.357 834.505 c 0
 789.804 818.555 778.851 797.533 758.094 789.023 c 0
 749.857 785.646 744.856 776.903 745.8 768.33 c 0
 806.194 219.582 811.021 -156.159 776.025 -467.768 c 0
 754.2 -662.104 667.095 -769.889 561.236 -819.642 c 0
 372.031 -908.568 115.908 -811.699 41.6025 -653.497 c 0
 30.5928 -630.058 38.8555 -615.482 50.0986 -608.07 c 0
 63 -599.565 80.1836 -600.291 91.2012 -617.007 c 0
 134.908 -683.32 206.131 -734.974 284.826 -761.432 c 0
 429.883 -810.202 605.393 -771.388 672.861 -570.363 c 0
 727.506 -407.544 732.099 -170.714 718.565 106.587 c 0
 718.034 117.468 708.495 126.119 697.614 125.589 c 0
 691.948 125.312 685.76 121.265 683.693 118.959 c 0
EndSplineSet
EndChar

StartChar: h
Encoding: 104 104 6
Width: 1024
VWidth: 0
Flags: HW
VStem: 99.9551 124.592<763.888 1424.64> 113.982 127.543<-11.8623 572.444> 802.863 126.603<20.4965 502.932>
LayerCount: 2
Fore
SplineSet
822.849 41.875 m 0
 836.564 415.055 825.794 596.475 794.455 720.936 c 0
 783.126 765.93 760.425 801.769 730.205 827.157 c 0
 631.998 909.665 465.506 878.958 360.684 753.717 c 0
 213.363 577.696 225.172 317.848 221.528 130.485 c 0
 220.347 69.8086 231.125 16.2764 196.914 7.02344 c 0
 190.041 5.16406 184.17 4.39844 179.215 4.37305 c 0
 149.336 4.21582 134.163 36.1445 133.981 83.9326 c 0
 132.023 597.273 127.188 820.346 119.954 1402.34 c 0
 119.651 1426.59 133.819 1435.35 153.801 1435.24 c 0
 177.984 1435.1 197.334 1419.89 197.09 1400.21 c 0
 193.815 1135.81 202.01 1011.28 204.548 763.683 c 0
 204.659 752.79 213.858 743.777 224.752 743.889 c 0
 231.686 743.961 238.35 748.561 241.158 752.75 c 0
 362.85 934.254 556.32 1015.08 737.396 940.5 c 0
 935.923 858.728 916.629 456.673 909.469 56.9932 c 0
 908.812 20.3311 881.556 3.41797 856.944 4.14941 c 0
 837.079 4.73926 821.869 15.208 822.849 41.875 c 0
EndSplineSet
EndChar

StartChar: i
Encoding: 105 105 7
Width: 412
VWidth: 0
Flags: HMW
VStem: 150 130<0 972>
LayerCount: 2
Fore
SplineSet
140.211 1351.86 m 0
 140.829 1359.94 144.658 1367.85 151.825 1375.22 c 0
 174.364 1398.37 216.509 1402.58 233.15 1386.14 c 0
 241.581 1377.8 248.517 1366.6 253.182 1354.03 c 0
 268.656 1312.34 256.773 1269.43 227.997 1258.79 c 0
 221.802 1256.5 215.869 1255.75 209.888 1256.18 c 0
 175.086 1258.7 136.835 1307.78 140.211 1351.86 c 0
160.149 928.652 m 0
 159.909 933.911 159.969 938.729 160.276 943.114 c 0
 162.919 980.872 180.862 988.332 200.221 986.896 c 0
 229.092 984.756 258.511 958.041 256.283 928.4 c 0
 245.356 783.018 258.694 219.312 272.263 73.1924 c 0
 272.52 70.4219 272.646 67.7334 272.654 65.126 c 0
 272.784 23.0518 242.371 -0.211914 217.53 -0.132812 c 0
 197.759 -0.0693359 171.921 14.2178 172.167 73.7031 c 0
 172.772 220.251 168.333 749.787 160.149 928.652 c 0
EndSplineSet
EndChar

StartChar: a
Encoding: 97 97 8
Width: 905
VWidth: 0
Flags: HW
VStem: 709.322 119.846<286.619 483.386 595.013 838.333> 719.458 135.71<3.70734 103.717>
LayerCount: 2
Fore
SplineSet
816.453 10.8164 m 0
 766.916 4.77734 748.531 44.084 739.241 106.654 c 0
 737.641 117.43 727.296 125.1 716.521 123.5 c 0
 713.428 123.041 710.377 121.79 707.913 120.048 c 0
 621.95 59.2783 521.711 23.9365 425.584 12.3809 c 0
 230.333 -11.0918 65.0576 62.7148 48.627 200.37 c 0
 21.8818 424.427 223.496 531.966 416.424 575.725 c 0
 511.634 597.319 666.423 588.606 701.128 576.184 c 0
 711.385 572.512 723.027 578.017 726.698 588.272 c 0
 727.451 590.375 727.863 594.577 727.863 594.577 c 0
 728.313 615.225 728.753 713.8 729.164 734.604 c 0
 730.056 779.654 716.46 817.146 690.952 844.327 c 0
 591.929 949.846 346.459 890.912 169.429 723.533 c 0
 149.697 704.879 137.299 709.691 128.253 719.649 c 0
 113.348 736.06 107.44 776.934 144.504 810.096 c 0
 306.137 954.72 572.654 1011.89 722.224 937.111 c 0
 788.48 903.987 813.3 820.564 809.195 742.045 c 0
 793.207 436.186 795.581 360.774 835.395 98.0039 c 0
 836.393 91.415 837.271 85.1553 837.996 79.2471 c 0
 844.813 23.7109 838.723 13.5332 816.453 10.8164 c 0
714.923 486.392 m 0
 672.474 511.835 564.704 525.607 468.943 509.968 c 0
 454.869 507.669 439.696 504.648 423.821 500.88 c 0
 296.08 470.557 93.5947 384.365 133.708 215.381 c 0
 138.785 193.993 148.623 175.144 162.108 159.394 c 0
 264.976 39.2529 564.563 90.2627 722.346 225.64 c 0
 727.194 229.8 729.549 236.801 729.297 241.821 c 0
 723.502 357.274 723.166 366.245 724.638 468.95 c 0
 724.744 476.332 720.073 483.305 714.923 486.392 c 0
EndSplineSet
EndChar

StartChar: j
Encoding: 106 106 9
Width: 545
VWidth: 0
Flags: HW
VStem: 254.9 132.1<480.334 967.598>
LayerCount: 2
Fore
SplineSet
222.107 1351.86 m 0
 222.727 1359.94 226.556 1367.85 233.722 1375.22 c 0
 256.26 1398.37 298.406 1402.58 315.048 1386.14 c 0
 323.479 1377.8 330.414 1366.6 335.079 1354.03 c 0
 350.554 1312.34 338.671 1269.43 309.894 1258.79 c 0
 303.698 1256.5 297.766 1255.75 291.784 1256.18 c 0
 256.983 1258.7 218.732 1307.78 222.107 1351.86 c 0
274.759 938.378 m 0
 271.847 962.695 282.786 970.792 302.153 973.092 c 0
 332.814 976.731 364.882 956.827 367.124 936.777 c 0
 428.433 388.521 441.063 -176.393 400.096 -467.209 c 0
 372.37 -664.018 283.018 -772.908 176.652 -822.951 c 0
 -14.1289 -912.709 -267.315 -813.288 -341.897 -654.497 c 0
 -356.158 -624.135 -345.928 -607.309 -340.638 -603.799 c 0
 -337.878 -601.968 -330.4 -598.252 -318.699 -616.006 c 0
 -274.335 -683.32 -198.897 -734.959 -115.827 -760.7 c 0
 34.6602 -807.331 217.686 -767.41 280.016 -564.883 c 0
 365.308 -287.743 341.026 384.887 274.759 938.378 c 0
EndSplineSet
EndChar

StartChar: k
Encoding: 107 107 10
Width: 935
VWidth: 0
Flags: HW
HStem: 871 114<647.994 795.108>
VStem: 98.5537 127<907.397 1415.5> 127.554 133.599<23.4931 352.485>
LayerCount: 2
Fore
SplineSet
118.491 1366.58 m 0
 114.389 1418.22 133.814 1427.98 148.564 1428.88 c 0
 171.976 1430.3 203.73 1407.35 205.585 1373.89 c 0
 212.706 1245.39 217.932 951.91 220.782 732.133 c 0
 220.923 721.24 230.146 712.252 241.04 712.394 c 0
 246.23 712.461 251.744 715.201 254.611 717.945 c 0
 391.354 848.862 606.349 932.307 722.11 965.788 c 0
 762.729 977.535 797.304 951.165 803.7 928.109 c 0
 807.315 915.078 805.247 899.666 771.233 890.279 c 0
 591.005 840.539 412.682 749.822 275.467 592.129 c 0
 264.732 579.794 253.442 555.506 267.938 533.868 c 0
 405.945 327.863 688.953 60.4463 912.488 129.9 c 0
 917.616 131.494 920.119 130.973 921.444 130.49 c 0
 925.361 129.064 937.268 109.841 925.201 77.0664 c 0
 910.319 36.6455 864.15 -7.55664 761.547 30.7373 c 0
 578.836 98.9297 433.713 152.228 270.642 384.061 c 0
 264.374 392.971 251.687 395.18 242.776 388.912 c 0
 237.109 384.925 234.28 377.159 234.283 372.543 c 0
 234.373 203.804 244.637 151.119 241.173 72.7881 c 0
 238.964 22.8662 205.084 -1.31543 183.358 -0.37207 c 0
 167.988 0.295898 144.575 13.8271 147.531 75.0361 c 0
 168.606 511.567 142.542 1063.83 118.491 1366.58 c 0
EndSplineSet
EndChar

StartChar: l
Encoding: 108 108 11
Width: 406
VWidth: 0
Flags: HMW
VStem: 135 130<0 1440>
LayerCount: 2
Fore
SplineSet
140.122 1385.03 m 0
 139.905 1390.27 139.984 1395.08 140.309 1399.45 c 0
 143.102 1437.15 161.008 1444.55 180.265 1443.11 c 0
 209.158 1440.96 238.616 1414.06 236.252 1384.36 c 0
 224.615 1238.12 252.753 219.869 265.712 73.332 c 0
 265.957 70.5615 266.071 67.8721 266.068 65.2646 c 0
 266.015 23.1895 235.499 0.0595703 210.66 0.248047 c 0
 190.89 0.397461 165.113 14.7979 165.62 74.2812 c 0
 166.874 221.419 147.521 1206.25 140.122 1385.03 c 0
EndSplineSet
EndChar

StartChar: m
Encoding: 109 109 12
Width: 1720
VWidth: 0
Flags: HW
VStem: 108.163 132.8<753.785 937.228> 121.093 129.001<-9.95657 591.927> 814.163 154<26.6479 548.213> 1491.29 128<19.6786 516.091>
LayerCount: 2
Fore
SplineSet
834.163 54 m 0
 834.163 426.279 839.437 555.158 801.553 714.624 c 0
 788.702 768.69 761.983 810.315 726.501 838.442 c 0
 621.53 921.653 451.65 883.712 352.283 758.199 c 0
 205.854 573.243 239.84 316.023 230.121 131.05 c 0
 226.995 71.5762 233.279 16.666 198.44 8.46875 c 0
 191.749 6.89453 186.074 6.31055 181.334 6.3916 c 0
 152.159 6.89355 139.648 38.3096 141.085 87.416 c 0
 156.093 600.781 138.243 639.783 128.15 925.49 c 0
 127.362 947.809 138.467 955.772 155.675 957.581 c 0
 181.697 960.316 208.965 943.31 211.267 920.755 c 0
 216.174 872.674 219.109 808.671 220.974 753.114 c 0
 221.339 742.227 230.745 733.431 241.633 733.796 c 0
 249.083 734.046 255.92 738.616 259.051 745.252 c 0
 347.656 933.075 567.314 1016.33 745.869 935.77 c 0
 811.234 906.279 853.705 846.877 881.315 762.377 c 0
 884.699 752.021 896.184 746.195 906.539 749.578 c 0
 910.504 750.874 914.119 753.587 916.438 756.738 c 0
 1041.15 926.278 1245.98 1013.72 1416.07 936.984 c 0
 1612.4 848.409 1604.06 420.477 1599.29 61.4814 c 0
 1598.82 25.9902 1573.1 10.1426 1548.35 10.8955 c 0
 1527.02 11.5439 1510.36 23.335 1511.28 50.5371 c 0
 1523.99 425.139 1518.41 557.688 1471.47 716.871 c 0
 1457.55 764.08 1434.34 801.341 1404.53 828.179 c 0
 1301.17 921.216 1132.74 882.706 1023.25 760.335 c 0
 971.538 702.528 939.657 633.326 919.643 560.457 c 0
 919.026 558.214 918.832 555.444 919 553.464 c 0
 931.262 409.324 948.162 236.652 948.162 70 c 0
 948.162 34.9482 916.38 13.4395 882.054 13.2891 c 0
 853.533 13.1631 834.163 26.5215 834.163 54 c 0
EndSplineSet
EndChar

StartChar: n
Encoding: 110 110 13
Width: 1030
VWidth: 0
Flags: HW
VStem: 112.866 127.681<-8.73322 541.091 739.888 963.758> 806.863 129.603<16.4965 501.213>
LayerCount: 2
Fore
SplineSet
826.85 37.874 m 0
 840.566 411.111 828.785 596.511 797.455 720.936 c 0
 786.018 766.362 763.219 802.471 732.86 827.926 c 0
 635.517 909.545 472.041 878.402 367.684 753.717 c 0
 220.261 577.564 232.172 309.844 228.528 122.485 c 0
 227.449 67.0586 230.162 22.8467 192.962 11.0674 c 0
 185.469 8.69434 179.372 7.79395 174.592 7.78418 c 0
 153.599 7.74121 140.979 28.8799 140.981 75.8555 c 0
 140.999 328.068 141.009 726 132.853 946.869 c 0
 132.013 969.614 146.756 979.598 170.84 979.251 c 0
 198.928 978.846 219.31 962.384 219.004 944.339 c 0
 217.991 884.633 220.003 818.602 220.547 739.75 c 0
 220.622 728.856 229.792 719.813 240.685 719.889 c 0
 248.143 719.94 255.097 724.35 258.39 730.854 c 0
 365.885 943.158 562.901 1015.26 744.396 940.5 c 0
 942.872 858.749 923.629 452.691 916.47 52.9941 c 0
 915.82 16.7344 888.09 -0.581055 862.276 0.148438 c 0
 841.326 0.741211 825.883 11.5869 826.85 37.874 c 0
EndSplineSet
EndChar

StartChar: o
Encoding: 111 111 14
Width: 1012
VWidth: 0
Flags: HW
HStem: -18 123.011<360.353 689.194>
LayerCount: 2
Fore
SplineSet
468.207 968.064 m 0
 489.067 969.96 504.213 963.454 514.559 953.882 c 0
 517.771 950.909 522.378 949.033 526.177 948.659 c 0
 762.338 925.359 922.715 786.255 956.887 588.594 c 0
 962.585 555.611 965.896 523.188 966.916 491.568 c 0
 975.651 220.745 818.799 10.5322 553.95 1.98926 c 0
 291.035 -6.49707 67.7207 160.726 46.542 451.453 c 0
 25.751 736.847 216.919 945.218 468.207 968.064 c 0
423.347 875.305 m 0
 247.173 821.278 132.771 663.076 134.596 473.808 c 0
 134.626 470.627 134.696 467.455 134.806 464.292 c 0
 142.236 249.058 329.87 77.3789 547.597 85.0234 c 0
 559.334 85.4355 570.92 86.457 582.323 88.0566 c 0
 775.242 115.104 914.401 306.013 886.698 501.813 c 0
 855.666 721.146 743.971 868.8 433.048 875.994 c 0
 432.327 876.011 431.621 876.051 430.926 876.11 c 0
 428.399 876.328 425.468 875.955 423.347 875.305 c 0
EndSplineSet
EndChar

StartChar: p
Encoding: 112 112 15
Width: 1063
VWidth: 0
Flags: HW
VStem: 107.059 140<-836.681 -317.08>
LayerCount: 2
Fore
SplineSet
114.454 930.449 m 0
 114.336 935.712 114.508 940.526 114.917 944.903 c 0
 118.436 982.589 136.55 989.628 155.868 987.743 c 0
 184.682 984.934 213.472 957.54 210.556 927.963 c 0
 196.112 781.475 216.91 -635.534 227.106 -782.386 c 0
 227.3 -785.161 227.363 -787.852 227.311 -790.459 c 0
 226.462 -832.524 195.519 -855.074 170.687 -854.418 c 0
 150.922 -853.895 125.424 -839.011 127.052 -779.547 c 0
 131.087 -632.116 118.475 751.683 114.454 930.449 c 0
339.54 33.6836 m 0
 234.066 52.6543 128.057 122.102 83.832 164.446 c 0
 45.8975 200.767 50.4395 233.856 57.625 243.366 c 0
 61.0869 247.946 65.3975 251.679 77.8174 242.139 c 0
 148.229 188.055 248.096 127.096 350.39 108.328 c 0
 569.584 68.1084 755.605 79.1074 858.611 270.523 c 0
 865.266 282.888 871.255 295.407 876.603 308.038 c 0
 971.781 532.844 864.865 794.129 690.761 867.433 c 0
 537.976 931.76 369.089 888.18 223.171 853.509 c 0
 204.886 849.163 192.483 859.148 187.139 880.892 c 0
 180.197 909.133 191.848 941.596 223.873 949.295 c 0
 380.367 986.909 565.165 992.385 672.109 961.772 c 0
 683.312 958.566 694.211 955.038 704.812 951.207 c 0
 978.91 852.147 1061.9 544.452 970.7 293.195 c 0
 864.877 1.64062 616.064 -16.0498 339.54 33.6836 c 0
EndSplineSet
EndChar

StartChar: q
Encoding: 113 113 17
Width: 981
VWidth: 0
Flags: HW
LayerCount: 2
Fore
SplineSet
867.005 880.456 m 0
 851.989 221.453 872.782 -459.014 912.226 -719.989 c 0
 913.854 -730.761 924.219 -738.403 934.99 -736.775 c 0
 938.56 -736.236 942.222 -734.486 944.695 -732.455 c 0
 1025.42 -666.136 1140.3 -616.73 1240.29 -589.287 c 0
 1261.19 -583.551 1266.1 -592.064 1266.4 -592.775 c 0
 1266.44 -592.891 1268.9 -595.766 1259.69 -599.385 c 0
 1141.53 -645.812 992.67 -783.088 907.573 -860.177 c 0
 900.28 -866.784 893.278 -869.633 886.556 -870.332 c 0
 864.622 -872.613 828.483 -846.585 821.899 -781.001 c 0
 775.082 -314.654 774 314.893 790.992 912.432 c 0
 791.671 936.326 806.589 946.116 823.073 945.769 c 0
 841.922 945.371 868.13 929.813 867.005 880.456 c 0
799.501 767.807 m 0
 720.306 843.483 652.964 900.657 521.91 886.892 c 0
 484.093 882.919 446.68 871.355 410.828 853.929 c 0
 206.812 754.765 39.7598 458.196 152.027 228.226 c 0
 170.918 189.53 199.732 157.421 235.129 133.346 c 0
 382.221 33.3008 639.881 70.5723 808.959 320.162 c 0
 819.167 335.231 829.258 334.843 844.141 323.554 c 0
 867.401 305.91 876.738 271.984 864.615 256.166 c 0
 756.035 114.481 633.018 41.5762 516.178 15.3076 c 0
 286.551 -36.3184 81.5547 92.4375 47.6055 243.992 c 0
 -21.3027 551.615 158.212 876.562 471.142 958.27 c 0
 633.574 1000.68 799.496 908.03 832.457 826.504 c 0
 837.543 813.927 831.146 781.09 818.377 767.432 c 0
 811.823 760.421 809.73 758.031 799.501 767.807 c 0
EndSplineSet
EndChar

StartChar: r
Encoding: 114 114 18
Width: 800
VWidth: 0
Flags: HW
HStem: 863 123.787<500.959 790.997>
VStem: 112.485 134.515<-0.337273 559.12>
LayerCount: 2
Fore
SplineSet
763.99 882.976 m 0
 641.194 889.061 431.153 874.464 313.746 668.768 c 0
 209.978 486.966 224.76 324.493 227.001 136.763 c 0
 227.708 77.3809 237.588 26.585 203.033 16.0645 c 0
 196.479 14.0693 190.753 13.1494 185.769 12.9785 c 0
 153.683 11.877 133.75 46.9912 132.478 93.2188 c 0
 124.287 390.671 129.001 576.181 90.4531 914.646 c 0
 87.3203 942.158 104.395 959.073 124.672 963.502 c 0
 144.557 967.846 164.612 960.372 170.752 931.979 c 0
 181.855 880.605 196.103 761.64 201.008 677.149 c 0
 201.64 666.273 211.258 657.711 222.133 658.342 c 0
 230.252 658.812 237.179 664.954 239.55 670.896 c 0
 337.224 915.667 533.256 962.227 738.22 966.793 c 0
 740.688 966.848 743.076 966.816 745.389 966.707 c 0
 789.775 964.61 807.973 934.328 806.913 912.691 c 0
 806.137 896.825 796.549 881.362 763.99 882.976 c 0
EndSplineSet
EndChar

StartChar: s
Encoding: 115 115 19
Width: 830
VWidth: 0
Flags: HW
HStem: 834 128<215.729 712.563>
LayerCount: 2
Fore
SplineSet
664.66 852.384 m 0
 617.767 872.483 562.545 881.905 506.188 883.897 c 0
 352.771 889.32 156.892 841.452 153.795 751.689 c 0
 149.049 614.152 704.821 525.517 764.381 373.696 c 0
 778.171 338.547 786.055 305.111 788.758 273.875 c 0
 801.354 128.354 702.822 23.084 535.315 8.92969 c 0
 340.521 -7.53125 178.031 53.3164 97.5195 171.275 c 0
 61.1143 224.613 73.8887 255.274 85.9717 263.802 c 0
 98.0869 272.35 129.849 273.341 162.615 226.531 c 0
 224.22 138.521 362.991 84.7178 500.21 93.0361 c 0
 538.923 95.3828 580.928 105.229 617.113 123.975 c 0
 685.076 159.182 731.315 230.448 679.729 329.256 c 0
 588.618 503.768 113.243 532.277 51.7305 714.4 c 0
 38.5449 753.433 46.541 825.087 152.812 886.697 c 0
 284.341 962.939 545.155 985.674 678.687 942.951 c 0
 681.242 942.134 683.653 941.248 685.925 940.304 c 0
 722.352 925.177 727.838 894.071 718.41 871.812 c 0
 710.265 852.579 692.439 840.477 664.66 852.384 c 0
EndSplineSet
EndChar

StartChar: t
Encoding: 116 116 20
Width: 865
VWidth: 0
Flags: HW
HStem: 822 140<15.3188 344.354> 860 122<493.24 847.446>
VStem: 344.91 136.051<979.551 1404.26> 370.393 140.012<17.7803 534.241>
LayerCount: 2
Fore
SplineSet
801.775 879.998 m 0
 711.174 878.983 217.744 845.97 72.4521 841.992 c 0
 67.2998 841.852 62.4629 841.937 57.9355 842.218 c 0
 7.85156 845.327 -3.68652 869.504 -2.33594 889.576 c 0
 -0.614258 915.145 24.6455 945.173 69.6143 942.048 c 0
 216.816 931.827 697.118 953.947 801.549 962.061 c 0
 835.246 964.678 860.494 935.861 860.854 913.729 c 0
 861.07 900.354 853.317 880.575 801.775 879.998 c 0
364.894 1362.03 m 0
 364.677 1367.27 364.757 1372.08 365.081 1376.45 c 0
 367.873 1414.15 385.779 1421.55 405.036 1420.11 c 0
 433.93 1417.96 463.388 1391.06 461.024 1361.36 c 0
 449.388 1215.12 477.528 221.83 490.483 75.332 c 0
 490.729 72.5605 490.843 69.8721 490.84 67.2646 c 0
 490.786 25.1895 460.271 2.05957 435.432 2.24805 c 0
 415.662 2.39746 389.885 16.7979 390.392 76.2812 c 0
 391.646 223.425 372.291 1183.27 364.894 1362.03 c 0
EndSplineSet
EndChar

StartChar: u
Encoding: 117 117 21
Width: 1024
VWidth: 0
Flags: HW
VStem: 90 136<441.594 963.142> 114 124<188.791 750.479> 785 132<505.226 971.077>
LayerCount: 2
Fore
SplineSet
109.961 918.256 m 0
 109.633 923.506 109.611 928.312 109.844 932.703 c 0
 111.853 970.737 129.858 978.578 149.369 977.438 c 0
 178.252 975.752 207.837 949.729 206.035 920.18 c 1
 201.896 846.67 207.952 505.125 218.039 346.753 c 1
 218.902 332.7 220.185 319.201 221.869 306.372 c 0
 242.489 149.383 328.771 84.9248 450.617 101.172 c 1
 701.188 133.856 803 498.288 805 922.895 c 1
 805.408 975.085 827.393 984.012 845.282 983.034 c 0
 870.877 981.636 898.943 956.501 897.034 925.174 c 1
 888.862 780.05 910.847 226.226 927.123 80.792 c 0
 927.455 77.7988 927.639 74.8965 927.688 72.0859 c 0
 928.429 29.7178 899.169 6.56152 875.933 6.19727 c 0
 857.529 5.90918 831.838 19.2607 830.998 79.3223 c 1
 829.999 142.227 828.996 235.42 824.993 383.54 c 0
 824.699 394.43 815.35 403.287 804.46 402.992 c 0
 795.785 402.758 788.329 396.416 785.979 389.178 c 0
 686.17 81.8291 578.691 23.1865 436.254 10.9229 c 0
 199.785 -9.80176 146.652 135.146 133.937 294.59 c 0
 121.851 446.118 116.031 822.102 109.961 918.256 c 0
EndSplineSet
EndChar

StartChar: v
Encoding: 118 118 22
Width: 870
VWidth: 0
Flags: HW
LayerCount: 2
Fore
SplineSet
13.8164 913.417 m 0
 1.99512 943.02 17.7207 965.754 40.8242 974.63 c 0
 62.5312 982.969 86.8232 978.066 98.5234 946.96 c 0
 228.823 600.532 328.606 444.056 463.309 171.148 c 0
 468.13 161.38 480.326 157.244 490.095 162.065 c 0
 494.664 164.321 498.641 169.71 499.75 172.419 c 0
 625.82 480.182 670.122 636.095 774.193 944.606 c 0
 784.431 974.95 804.126 978.481 825.259 971.391 c 0
 852.151 962.367 866.391 938.213 861.331 923.506 c 0
 745.96 588.144 687.26 398.025 540.783 46.6963 c 0
 531.298 23.9463 518.537 11.498 505.867 5.34375 c 0
 478.381 -8.00586 440.698 5.65332 422.239 43.7256 c 0
 258.225 382.018 157.133 554.517 13.8164 913.417 c 0
EndSplineSet
EndChar

StartChar: w
Encoding: 119 119 23
Width: 1324
VWidth: 0
Flags: HW
VStem: -12 121<774.129 968.389>
LayerCount: 2
Fore
SplineSet
7.45996 905.616 m 0
 -1.26855 942.608 19.6357 967.254 40.4629 972.806 c 0
 57.168 977.259 79.0322 972.057 89.6689 931.87 c 0
 171.304 624.248 188.969 477.539 330.774 163.764 c 0
 335.261 153.836 347.31 149.288 357.236 153.774 c 0
 362.493 156.15 366.591 161.46 368.004 165.766 c 0
 451.748 421.032 485.952 671.372 577.619 808.873 c 1
 584.793 819.541 595.83 827.396 609.532 832.075 c 0
 651.416 846.38 704.558 827.088 716.008 792.732 c 1
 781.535 593.199 834.24 347.326 929.577 178.18 c 0
 934.926 168.689 947.33 165.228 956.82 170.577 c 0
 961.335 173.121 964.873 178.231 966.047 181.9 c 0
 1114.45 645.295 1111.34 857.277 1254.66 974.52 c 0
 1281.16 996.191 1295.51 992.401 1300.97 988.522 c 0
 1310.5 981.753 1320.17 950.64 1291.84 911.783 c 0
 1181.63 760.63 1164.31 536.863 1026.78 61.5264 c 1
 1020.15 38.4453 1006.54 23.0078 990.035 13.8643 c 0
 954.907 -5.59277 906.688 4.09863 884.509 44.668 c 1
 799.727 196.683 745.312 433.398 654.827 685.75 c 0
 651.149 696.005 639.505 701.503 629.25 697.826 c 0
 624.943 696.282 620.723 692.259 619.099 689.693 c 0
 521.866 536.002 484.992 230.021 428.922 50.0029 c 1
 422.039 28.373 407.725 14.2334 389.653 6.56055 c 0
 349.101 -10.6582 289.422 6.42188 265.444 63.7334 c 1
 179.089 269.201 88.2715 561.403 7.45996 905.616 c 0
EndSplineSet
EndChar

StartChar: x
Encoding: 120 120 24
Width: 830
VWidth: 0
Flags: HW
LayerCount: 2
Fore
SplineSet
51.5176 902.278 m 0
 48.7197 906.397 46.3828 910.28 44.4092 913.99 c 0
 26.3623 947.927 37.7002 963.587 54.5195 972.407 c 0
 79.9385 985.736 119.39 978.41 133.229 951.825 c 1
 200.833 819.729 678.84 214.217 764.96 98.0537 c 1
 766.673 95.7607 768.156 93.5732 769.539 91.3301 c 0
 791.574 55.5771 777.932 20.1641 756.804 7.19922 c 0
 739.779 -3.24805 710.035 -4.62793 679.089 46.3906 c 0
 601.454 174.088 150.887 756.197 51.5176 902.278 c 0
681.758 945.801 m 0
 684.047 950.223 686.369 954.172 688.689 957.672 c 0
 709.904 989.679 728.997 987.178 744.776 976.605 c 0
 768.782 960.521 781.238 922.047 764.446 897.223 c 0
 684.911 779.909 252.073 191.222 161.135 48.75 c 0
 133.94 6.08301 85.5869 2.49512 64.3076 17.457 c 0
 50.8906 26.8916 39.0244 48.9043 72.2666 95.3633 c 0
 165.1 225.131 597.517 783.483 681.758 945.801 c 0
EndSplineSet
EndChar

StartChar: y
Encoding: 121 121 25
Width: 867
VWidth: 0
Flags: HW
LayerCount: 2
Fore
SplineSet
725.175 907.35 m 0
 725.55 912.29 726.144 916.811 726.912 920.924 c 0
 733.97 958.681 753.039 964.25 772.501 960.584 c 0
 801.418 955.136 827.892 924.951 822.35 895.727 c 0
 789.207 721.001 629.966 -348.872 597.505 -490.533 c 0
 586.079 -540.395 542.973 -559.696 519.355 -553.288 c 0
 504.458 -549.246 485.767 -532.704 501.246 -476.838 c 0
 547.337 -310.502 708.71 690.326 725.175 907.35 c 0
552.822 13.5566 m 1
 481.1 108.855 120.055 673.633 -3.01562 871.561 c 0
 -30.0029 914.964 -15.2773 945.127 4.91211 957.365 c 0
 24.9102 969.486 56.9629 968.251 80.8809 928.658 c 0
 196.289 737.615 586.856 121.411 601.404 98.1143 c 1
 612.407 75.8984 604.839 44.2998 588.146 24.3057 c 0
 573.262 6.47656 561.77 6.07324 552.822 13.5566 c 1
EndSplineSet
EndChar

StartChar: z
Encoding: 122 122 26
Width: 899
VWidth: 0
Flags: HMW
HStem: 0 120<360.779 851.207> 850 120<61.365 283.887 567.506 695.556>
LayerCount: 2
Fore
SplineSet
94.877 860.93 m 0
 58.5244 857.865 45.8145 878.229 45.0322 899.949 c 0
 44.2197 922.526 57.0781 940.292 77.2695 941.013 c 0
 357.967 951.038 443.63 961.989 726.853 952.012 c 0
 767.748 950.571 795.887 935.807 812.709 917.063 c 0
 840.245 886.382 839.636 843.673 808.649 815.892 c 0
 632.27 657.758 314.999 280.396 202.317 123.675 c 0
 195.958 114.83 198.036 102.121 206.881 95.7617 c 0
 210.7 93.0146 215.682 91.7344 220.022 92.0537 c 0
 492.296 112.075 541.562 115.018 815.462 100.03 c 0
 841.217 98.6191 852.458 79.8076 851.5 57.584 c 0
 850.533 35.1309 837.594 18.8584 815.57 19.9746 c 0
 539.787 33.9658 491.491 35.9727 181.525 19.9736 c 0
 150.286 18.3613 125.949 27.126 109.416 39.9658 c 0
 81.1006 61.9561 75.8418 93.7139 93.7695 116.699 c 0
 210.559 266.428 538.604 692.788 708.327 833.607 c 0
 716.711 840.563 717.904 853.387 710.948 861.771 c 0
 707.254 866.222 701.229 868.793 696.337 868.984 c 0
 441.767 878.931 450.942 890.94 94.877 860.93 c 0
EndSplineSet
EndChar

StartChar: A
Encoding: 65 65 27
Width: 1103
VWidth: 0
Flags: HW
HStem: 483 112.229<541.89 1002.15>
LayerCount: 2
Fore
SplineSet
994.994 502.975 m 0
 788.977 513.034 469.919 514.14 253.551 485.832 c 0
 248.458 485.165 243.679 484.755 239.213 484.571 c 0
 192.699 482.656 181.798 502.072 181.136 519.554 c 0
 180.118 546.37 206.763 584.197 254.899 586.015 c 0
 465.681 593.969 838.031 587.189 1000.69 575.282 c 0
 1037 572.628 1057.92 543.978 1057.2 527.84 c 0
 1056.8 519.039 1049.41 500.424 994.994 502.975 c 0
1008.42 27.4277 m 0
 946.527 204.986 648.998 1089.74 594.621 1268.4 c 0
 591.449 1278.83 580.086 1284.88 569.664 1281.71 c 0
 563.585 1279.86 558.662 1274.75 556.729 1269.52 c 0
 460.413 1009 180.826 212.888 99.2529 37.4316 c 0
 84.7734 6.28809 58.8896 2.27734 37.7871 11.3789 c 0
 16.1494 20.7109 2.00488 42.7529 14.7295 72.0273 c 0
 120.146 314.543 413.771 1101.46 497.691 1390 c 0
 502.468 1406.42 518.428 1420.66 541.785 1428.04 c 0
 585.395 1441.82 636.184 1427.5 649.415 1385.56 c 0
 765.231 1018.51 1011.25 308.406 1092.46 56.8584 c 0
 1097.85 40.1533 1081.01 12.2598 1054.1 2.78223 c 0
 1035.27 -3.85059 1018.56 -1.63672 1008.42 27.4277 c 0
EndSplineSet
EndChar

StartChar: B
Encoding: 66 66 28
Width: 1104
VWidth: 0
Flags: HW
HStem: 727 144<229 491.37>
VStem: 100 129<13.3174 92 206.735 727 871 1333.98>
LayerCount: 2
Fore
SplineSet
134.17 1416.95 m 0
 143.092 1424.75 156.729 1426.68 173.675 1421.03 c 0
 176.422 1420.11 179.646 1419.83 182.27 1420.13 c 0
 505.475 1457.03 741.576 1387.06 796.8 1198.4 c 0
 802.375 1179.29 805.792 1159.74 807.05 1140.11 c 0
 816.021 1000.14 715.715 853.278 491.725 838.959 c 0
 480.853 838.264 472.346 828.596 473.041 817.724 c 0
 473.764 806.399 484.443 799 493 799 c 0
 743.982 798.997 898.824 746.696 1014.59 542.15 c 1
 1022.17 528.69 1028.8 514.722 1034.4 500.585 c 0
 1103.47 326.079 1020.96 114.494 868.706 54.623 c 1
 655.143 -28.8633 434.598 5.80566 250.823 109.422 c 0
 241.334 114.771 228.93 111.312 223.579 101.822 c 0
 221.876 98.8018 221.001 94.2422 221 92.001 c 0
 221 81.6084 222 72.9209 222 69.0029 c 0
 222 68.5312 222.028 67.8721 222.055 67.5225 c 0
 222.259 64.7568 222.335 62.0762 222.294 59.4775 c 0
 221.634 17.5986 190.846 -5.00879 165.926 -4.47168 c 0
 145.999 -4.04199 120.324 10.8193 121.991 70.4209 c 0
 126.023 209.525 124.005 1081.74 119.998 1331.32 c 0
 119.879 1338.75 115.016 1345.61 109.542 1348.58 c 0
 104.589 1351.27 100.562 1356.27 98.3984 1363.57 c 0
 93.0625 1381.55 101.182 1405.61 126.446 1412.76 c 0
 129.283 1413.56 132.134 1415.17 134.17 1416.95 c 0
214.023 1331.97 m 0
 210.966 1268.79 209 1026.34 209 871 c 0
 209 860.07 218.297 851.504 228.015 851.024 c 0
 273.154 848.797 320.079 850.596 366.286 856.552 c 0
 550.72 880.324 739.969 974.598 715.831 1160.59 c 1
 696.086 1309.32 483.627 1376.87 231.947 1350.89 c 0
 222.043 1349.87 214.475 1341.3 214.023 1331.97 c 0
209 726.915 m 0
 210 491.716 214.009 382.354 218.007 223.497 c 0
 218.179 216.667 222.104 210.251 227.627 206.9 c 0
 442.593 76.4971 633.693 59.0342 809.688 121.152 c 1
 820.022 124.835 830.074 129.617 839.928 135.421 c 0
 939.199 193.89 1021.1 359.761 927.196 518.213 c 0
 783.655 759.902 468.811 746.007 229.082 747 c 0
 217.031 747.05 208.962 735.809 209 726.915 c 0
EndSplineSet
EndChar

StartChar: C
Encoding: 67 67 29
Width: 1202
VWidth: 0
Flags: HW
LayerCount: 2
Fore
SplineSet
896.151 1315.6 m 0
 818.774 1368.67 713.127 1368.94 594.862 1337.33 c 1
 562.599 1328.84 531.733 1317.19 502.659 1302.91 c 0
 176.868 1142.86 60.0723 650.943 197.061 373.157 c 0
 206.679 353.644 217.059 335.239 228.143 317.919 c 0
 426.244 8.35742 836.215 57.1211 1121.75 240.133 c 1
 1140.6 252.103 1155.29 246.275 1166.44 231.911 c 0
 1181.16 212.938 1180.97 187.213 1164.86 174.896 c 0
 1101.09 126.206 1031.43 88.0059 959.112 60.2832 c 0
 618.323 -70.3457 225.042 32.5176 101.686 355.13 c 0
 97.5615 365.938 93.6768 377.195 90.0479 388.858 c 0
 -5.87012 697.121 82.7734 1263.4 544.89 1406.89 c 1
 700.079 1454.71 877.104 1438.2 938.993 1392 c 1
 972.675 1366.54 970.84 1339.34 959.725 1322.95 c 0
 948.188 1305.93 924.052 1296.5 896.151 1315.6 c 0
EndSplineSet
EndChar

StartChar: D
Encoding: 68 68 30
Width: 1260
VWidth: 0
Flags: HW
HStem: 88 98<35.903 104.003>
VStem: 112 140<19.581 535.387>
LayerCount: 2
Fore
SplineSet
182.797 1364.96 m 0
 178.193 1364.66 162.076 1379.39 159.853 1410.94 c 0
 158.043 1436.61 167.069 1441.03 167.285 1441.04 c 1
 556.863 1465.84 828.082 1390.69 1063.48 1100.39 c 0
 1252.27 868.029 1257.77 458.093 1052.05 226.284 c 0
 821.736 -32.9414 436.493 -16.416 65.3242 106.974 c 0
 42.1436 114.7 38.4619 130.811 43.124 145.736 c 0
 48.2363 162.104 62.7969 173.335 82.9629 166.933 c 0
 402.998 65.6074 803.624 38.7803 997.847 291.799 c 0
 1178.12 525.951 1151.25 872.579 986.509 1074.63 c 0
 774.928 1334.45 492.183 1382.09 182.797 1364.96 c 0
106.984 1388.77 m 0
 106.779 1394.02 106.871 1398.84 107.206 1403.21 c 0
 110.105 1441.15 128.332 1448.65 147.839 1447.1 c 0
 176.67 1444.81 205.594 1418.25 203.066 1388.63 c 1
 191.744 1242.5 218.818 224.111 232.083 77.1797 c 1
 232.345 74.3574 232.468 71.7158 232.476 69.0947 c 0
 232.6 27.0654 202.262 3.84277 177.408 3.86914 c 0
 157.535 3.88965 131.583 18.1963 132 77.8633 c 0
 133.006 224.872 114.029 1209.95 106.984 1388.77 c 0
EndSplineSet
EndChar

StartChar: E
Encoding: 69 69 31
Width: 1180
VWidth: 0
Flags: HW
HStem: 0 119<248 354.531 829.668 1098.3> 730 123<233.376 718.996> 1332 111<222 1109.52>
VStem: 90 143<906.863 1323>
LayerCount: 2
Fore
SplineSet
210.001 740.79 m 1
 213.004 454.404 225.021 232.912 228.007 118.479 c 0
 228.293 107.486 237.979 99.3389 247.299 99.0117 c 0
 532.707 88.999 810.482 87.9688 1096.55 110.061 c 0
 1125.56 112.316 1131.32 100.683 1132.16 87.0127 c 0
 1133.6 63.7178 1113.4 33.5654 1083.89 31.9697 c 0
 778.931 15.0312 505.308 23.0039 198.804 19.999 c 0
 196.657 19.9775 194.092 19.4717 192.393 18.877 c 0
 187.302 17.0957 182.169 16.2578 177.257 16.3281 c 0
 157.594 16.6064 131.517 31.6758 132.994 91.4814 c 1
 137.036 239.016 123.038 1141.78 109.968 1383.13 c 0
 108.577 1408.15 114.345 1422.04 120.668 1429.42 c 0
 133.566 1444.46 164.137 1443.8 186.83 1423.95 c 0
 190.445 1420.79 195.323 1419.02 199.896 1419 c 0
 581.339 1416.99 753.105 1405.97 1110.95 1423.02 c 0
 1111.01 1423.03 1120.6 1419.64 1121.91 1398.21 c 0
 1123.38 1373.96 1112.59 1353.36 1087.88 1351.97 c 0
 781.676 1334.72 550.371 1339 222.244 1343 c 0
 210.627 1343.14 201.45 1332.92 202.028 1321.95 c 0
 204.96 1266.26 206.999 984.625 213.019 845.137 c 0
 213.488 834.253 222.979 825.549 233.862 826.018 c 0
 237.341 826.168 241.627 827.807 243.601 829.04 c 0
 248.371 832.021 253.269 833.742 261.72 833.037 c 1
 575.051 818.973 700.306 825.054 1010.55 849.06 c 0
 1038.9 851.264 1045.27 839.471 1046.16 824.057 c 0
 1047.63 798.625 1026.67 767.525 997.919 765.971 c 0
 684.553 749.013 577.048 754.005 260.873 750 c 1
 252.387 750 247.576 752.196 243.171 756.051 c 0
 234.972 763.225 222.122 762.368 214.949 754.17 c 0
 214.29 753.417 214.56 753.75 213.962 752.948 c 0
 210.001 740.79 l 1
EndSplineSet
EndChar

StartChar: F
Encoding: 70 70 32
Width: 1160
VWidth: 0
Flags: HW
HStem: 734 123<242 405.856 702.909 926.496> 1328 116<229 1178.85>
VStem: 95 146<909.809 1328> 131 131<24.9488 540.34>
LayerCount: 2
Fore
SplineSet
114.99 1387.68 m 0
 114.428 1413.04 120.56 1427.05 127.148 1434.59 c 0
 140.217 1449.54 169.08 1448.86 191.83 1428.95 c 0
 195.445 1425.79 200.323 1424.02 204.896 1424 c 0
 589.385 1421.99 822.983 1409.96 1180.95 1427.02 c 0
 1180.95 1427.02 1188.78 1425.35 1190.19 1405.76 c 0
 1191.96 1381.04 1180.07 1357.77 1154.58 1355.95 c 0
 849.225 1334.13 562.539 1344 229.24 1348 c 0
 217.876 1348.13 209.127 1338.25 209.001 1328.25 c 0
 207.986 1247.14 215.002 1013.53 221.015 856.236 c 0
 221.43 845.383 230.887 837 241 837 c 0
 241.719 837 243.552 837 243.552 837 c 1
 556.103 822.97 605.267 820.05 915.551 844.061 c 0
 943.416 846.227 949.093 835.088 949.924 820.498 c 0
 951.372 795.048 929.327 762.561 899.915 760.971 c 0
 587.885 744.029 555.885 758.006 241.745 753.999 c 0
 229.826 753.847 221.634 742.782 222.017 733.203 c 0
 235.017 407.297 235.921 165.33 242.055 82.5225 c 0
 242.278 79.5029 242.359 76.5801 242.311 73.7529 c 0
 241.577 31.3379 212.498 10.1035 191.06 10.5254 c 0
 174.154 10.8584 149.292 24.6777 150.992 85.4531 c 0
 155.049 233.521 118.994 1209.66 114.99 1387.68 c 0
EndSplineSet
EndChar

StartChar: G
Encoding: 71 71 33
Width: 1440
VWidth: 0
Flags: HW
HStem: 735.649 125.351<815.622 1202.01>
VStem: 1241 112<-8.13222 343.544>
LayerCount: 2
Fore
SplineSet
1064.46 1277.93 m 0
 985.598 1304.86 877.086 1371.35 649.071 1313.38 c 0
 558.029 1290.24 480.109 1255 414.504 1211.05 c 0
 91.2402 994.451 70.4902 571.023 218.398 350.848 c 0
 318.007 202.569 518.604 101.184 714.896 100.315 c 0
 972.964 99.1738 1220.29 275.168 1222.01 735.574 c 0
 1222.05 747.011 1211.93 755.511 1202.29 755.647 c 0
 1109.96 756.957 999.821 757.992 842.708 739.868 c 0
 813.567 736.506 795.731 756.833 793.182 779.346 c 0
 790.999 798.625 799.267 816.795 829.209 820.122 c 0
 989.616 837.947 1207.33 840.004 1282.37 841.002 c 0
 1285.41 841.042 1288.21 840.926 1290.8 840.681 c 0
 1333.25 836.656 1336.21 789.348 1331.19 736.905 c 0
 1308.99 504.795 1306.97 279.261 1333.11 25.9463 c 0
 1334.61 11.3496 1323.02 -1.14355 1301.95 -4.31152 c 0
 1280.39 -7.55371 1263.64 0.951172 1260.8 20.8281 c 0
 1247.05 117.053 1243.01 243.497 1244.02 348.312 c 0
 1244.12 359.205 1235.11 368.398 1224.21 368.504 c 0
 1216.19 368.582 1208.76 363.578 1205.67 356.468 c 0
 1146.68 220.536 1062.11 132.103 965.92 79.1973 c 0
 671.771 -82.583 260.287 89.1367 138.526 310.635 c 0
 115.193 353.08 95.6436 399.328 80.6045 448.075 c 0
 -22.1172 781.04 84.4131 1227.07 619.884 1391.89 c 0
 824.065 1454.73 1075.86 1407.72 1105.46 1334.5 c 0
 1107.69 1328.97 1107.84 1320.69 1104.66 1311.31 c 0
 1096.28 1286.52 1074.5 1274.5 1064.46 1277.93 c 0
EndSplineSet
EndChar

StartChar: H
Encoding: 72 72 34
Width: 1333
VWidth: 0
Flags: HW
HStem: 723 140<167.319 687.55> 757 122<687.55 1190.44>
VStem: 90.1387 136.049<930.122 1427.26> 115.621 140.013<15.7803 531.806> 1077.5 136.05<920.031 1417.17> 1102.99 140.01<5.6865 521.713>
LayerCount: 2
Fore
SplineSet
1144.78 776.999 m 0
 1054.78 775.99 370.234 746.985 224.453 742.992 c 0
 219.3 742.851 214.463 742.936 209.936 743.217 c 0
 159.851 746.328 148.313 770.503 149.664 790.576 c 0
 151.385 816.146 176.646 846.171 221.614 843.049 c 0
 368.811 832.828 1039.36 850.888 1144.55 859.061 c 0
 1178.24 861.678 1203.49 832.861 1203.85 810.729 c 0
 1204.07 797.354 1196.32 777.576 1144.78 776.999 c 0
1097.48 1374.94 m 0
 1097.27 1380.18 1097.35 1384.99 1097.67 1389.36 c 0
 1100.46 1427.06 1118.37 1434.46 1137.63 1433.02 c 0
 1166.53 1430.87 1195.98 1403.98 1193.61 1374.26 c 0
 1181.98 1228.03 1210.12 209.774 1223.08 63.2383 c 0
 1223.32 60.4668 1223.44 57.7783 1223.43 55.1699 c 0
 1223.38 13.0957 1192.87 -10.0352 1168.03 -9.8457 c 0
 1148.26 -9.69531 1122.48 4.70215 1122.99 64.1875 c 0
 1124.24 211.325 1104.88 1196.16 1097.48 1374.94 c 0
110.122 1385.03 m 0
 109.904 1390.27 109.984 1395.08 110.309 1399.45 c 0
 113.102 1437.15 131.008 1444.55 150.265 1443.11 c 0
 179.159 1440.96 208.615 1414.06 206.251 1384.36 c 0
 194.614 1238.12 222.753 219.868 235.711 73.332 c 0
 235.956 70.5605 236.071 67.8711 236.068 65.2637 c 0
 236.014 23.1895 205.499 0.0595703 180.659 0.248047 c 0
 160.89 0.397461 135.112 14.7979 135.62 74.2822 c 0
 136.874 221.42 117.521 1206.25 110.122 1385.03 c 0
EndSplineSet
EndChar

StartChar: I
Encoding: 73 73 35
Width: 406
VWidth: 0
Flags: HW
VStem: 120.139 136.049<930.122 1427.26> 145.621 140.013<15.7803 531.806>
LayerCount: 2
Fore
SplineSet
140.122 1385.03 m 0
 139.905 1390.27 139.984 1395.08 140.309 1399.45 c 0
 143.102 1437.15 161.008 1444.55 180.265 1443.11 c 0
 209.158 1440.96 238.615 1414.06 236.251 1384.36 c 0
 224.614 1238.12 252.753 219.869 265.712 73.332 c 0
 265.957 70.5615 266.071 67.8721 266.068 65.2646 c 0
 266.015 23.1895 235.499 0.0595703 210.659 0.248047 c 0
 190.889 0.397461 165.112 14.7979 165.62 74.2812 c 0
 166.874 221.419 147.521 1206.25 140.122 1385.03 c 0
EndSplineSet
EndChar

StartChar: J
Encoding: 74 74 36
Width: 1072
VWidth: 0
Flags: HW
HStem: -291 119<-0.907978 476.581> 1315 118<-11.7706 848.751>
LayerCount: 2
Fore
SplineSet
0.387695 1413 m 0
 360.646 1420 551.808 1407.97 890.656 1420.01 c 0
 939.145 1421.74 952.057 1394.38 954.977 1336.98 c 0
 982.167 802.176 1084.37 377.003 859.196 31.9297 c 0
 671.271 -256.057 411.441 -314.685 41.2832 -271.137 c 0
 -6.53711 -265.511 -19.1836 -234.512 -16.0195 -214.341 c 0
 -13.624 -199.069 -3.87305 -188.283 17.7861 -191.749 c 0
 317.844 -239.758 561.358 -196.79 759.296 40.1787 c 0
 979.979 304.38 925.612 661.624 865.864 1321.8 c 0
 864.869 1332.8 854.556 1340.17 845.556 1340 c 0
 537.211 1334 325.865 1323.02 22.79 1334.98 c 0
 -11.1514 1336.33 -26.4766 1360.14 -27.1006 1381.78 c 0
 -27.6328 1400.23 -19.0078 1412.63 0.387695 1413 c 0
EndSplineSet
EndChar

StartChar: K
Encoding: 75 75 37
Width: 1075
VWidth: 0
Flags: HW
VStem: 95 143<995.654 1428.49> 118 124<9.62898 518.309>
LayerCount: 2
Fore
SplineSet
114.938 1365.59 m 0
 110.906 1417.2 130.144 1426.97 144.574 1427.97 c 0
 167.825 1429.56 199.981 1406.47 202.033 1372.84 c 1
 209.059 1243.44 215.005 1201.39 218.001 981.728 c 0
 218.149 970.835 227.379 961.854 238.272 962.002 c 0
 242.365 962.058 246.932 963.816 249.567 965.685 c 0
 438.813 1099.86 681.864 1279.9 882.562 1422.68 c 1
 906.236 1439.41 923.043 1431.98 934.229 1415.15 c 0
 949.525 1392.13 949.581 1351.27 910.948 1325.67 c 0
 641.182 1146.82 409.968 999.639 272.979 842.206 c 1
 262.277 830.166 250.348 805.343 265.496 783.7 c 1
 402.645 578.977 760.377 114.668 1011.27 105.013 c 1
 1015.23 104.876 1018.69 104.166 1022.05 102.939 c 0
 1044.49 94.7461 1059.79 59.6309 1049.87 32.6797 c 0
 1041.48 9.87012 1009.83 -18.0322 913.97 17.7461 c 1
 736.526 83.5762 422.812 399.694 258.359 633.506 c 0
 252.092 642.417 239.404 644.626 230.494 638.358 c 0
 224.827 634.372 222 626.598 222 622 c 0
 222 453.725 231.916 137.786 228.023 58.9541 c 1
 225.686 8.4707 192.215 -15.3203 171.926 -14.3633 c 0
 157.928 -13.7041 134.958 -0.638672 137.977 61.0361 c 0
 159.046 497.431 139.008 1062.59 114.938 1365.59 c 0
EndSplineSet
EndChar

StartChar: L
Encoding: 76 76 38
Width: 1020
VWidth: 0
Flags: HW
HStem: -12 132<241.82 706.34> 32 122<629.339 1020.23>
VStem: 112 126<115.589 1435.78>
LayerCount: 2
Fore
SplineSet
120 1395.09 m 0
 119.963 1399.9 120.146 1404.13 120.521 1408.15 c 0
 124.188 1447.45 142.92 1454.67 162.135 1452.79 c 0
 190.518 1450.03 219.015 1422.87 216.093 1392.92 c 0
 204.753 1275.38 219.983 185.744 218.01 120.606 c 0
 217.691 110.128 226.055 101.444 235.298 100.184 c 0
 436.814 72.7041 802.595 85.4355 984.203 134.688 c 1
 1017.7 143.668 1026.83 131.515 1030.18 118.561 c 0
 1035.95 96.2402 1020.64 60.0244 986.174 51.4092 c 1
 783.844 1.55762 433.079 8 271 8 c 0
 263.654 8 256.605 8.07422 249.862 8.24707 c 0
 160.188 10.5459 129.491 22.8916 131.992 120.468 c 1
 136.03 267.814 121.001 1211.12 120 1395.09 c 0
EndSplineSet
EndChar

StartChar: M
Encoding: 77 77 39
Width: 1575
VWidth: 0
Flags: HW
VStem: 100.142 144<893.893 1240> 115.402 135<4.96124 486.173> 1324.14 120<962.781 1226> 1352.4 123<5.97537 483.166>
LayerCount: 2
Fore
SplineSet
300.444 1388.5 m 0
 441.979 1021.12 573.946 734.433 736.532 609.158 c 0
 770.438 583.033 807.137 568.148 847.322 596.695 c 0
 1012.71 714.175 1169.8 1100.77 1289.6 1388.31 c 0
 1302.42 1419.06 1336.28 1434.92 1370.04 1435.6 c 0
 1406.93 1436.34 1423.98 1420.25 1424.14 1409.7 c 0
 1433.16 814.823 1433.9 605.036 1455.41 45.2314 c 0
 1456.39 19.7559 1438.81 7.25 1414.84 6.08398 c 0
 1389.63 4.85938 1373.12 17.4375 1372.38 32.9512 c 0
 1352.5 450.346 1347.14 808.221 1344.14 1226.14 c 0
 1344.06 1237.04 1334.89 1246.08 1324 1246 c 0
 1315.82 1245.94 1308.59 1239.68 1306.21 1234.85 c 0
 1191.65 1002.73 1024.9 613.479 896.342 521.251 c 0
 836.073 478.013 781.188 471.482 721.063 516.952 c 0
 566.626 633.752 394.047 911.083 262.772 1247.28 c 0
 258.81 1257.42 247.014 1262.59 236.867 1258.63 c 0
 228.708 1255.44 224.102 1246.58 224.143 1239.88 c 0
 227.019 767.351 245.114 428.631 230.416 31.7402 c 0
 230.02 21.04 202.01 0.647461 165.542 1.19336 c 0
 140.367 1.57129 135.3 9.79785 135.399 15.6602 c 0
 144.139 530.676 145.873 818.576 120.12 1367.94 c 0
 118.393 1404.79 134.031 1422.03 157.375 1431.13 c 0
 207.981 1450.85 286.93 1423.58 300.444 1388.5 c 0
EndSplineSet
EndChar

StartChar: N
Encoding: 78 78 40
Width: 1293
VWidth: 0
Flags: HW
VStem: 100.109 135<929.583 1283.82> 128.909 135<-12.7829 468.245> 1060.11 124<971.146 1455.75>
LayerCount: 2
Fore
SplineSet
1138.9 53.0996 m 0
 1134.74 43.9473 1129.59 35.9102 1123.66 29 c 0
 1090.7 -9.39355 1028.67 -18.0029 966.182 35.9609 c 0
 776.061 200.147 533.205 799.476 252.5 1293.7 c 0
 247.12 1303.17 234.705 1306.59 225.231 1301.21 c 0
 218.71 1297.51 214.969 1289.99 215.113 1283.38 c 0
 225.979 788.855 223.998 509.608 243.925 14.1963 c 0
 244.272 5.57129 220.82 -14.3076 183.4 -14.7734 c 0
 155.948 -15.1152 148.96 -5.86914 148.908 0.171875 c 0
 144 569.843 150.13 859.314 120.078 1399.93 c 0
 118.393 1430.3 144.816 1458.43 166.439 1459.86 c 0
 192.373 1461.59 186.128 1459.31 196.108 1451.82 c 0
 200.412 1448.59 206.546 1447.41 210.86 1448.01 c 0
 240.797 1452.17 265.528 1442.99 281.036 1417.4 c 1
 582.392 927.896 883.854 128.138 1031.14 106.046 c 0
 1032.56 105.833 1034.02 105.715 1035.5 105.708 c 0
 1129.37 105.271 1083.96 657.522 1080.11 1412.92 c 0
 1079.94 1445.66 1100.61 1459.1 1121.78 1459.24 c 0
 1143.07 1459.38 1164.11 1446.08 1164.11 1412.82 c 0
 1164.09 676.516 1193.77 173.804 1138.9 53.0996 c 0
EndSplineSet
EndChar

StartChar: O
Encoding: 79 79 41
Width: 1314
VWidth: 0
Flags: HW
LayerCount: 2
Fore
SplineSet
582.75 1435.79 m 0
 600.854 1440.93 616.527 1435.55 628.833 1426.49 c 0
 632.672 1423.67 637.661 1422.33 642.149 1422.65 c 0
 978.374 1447.27 1220.14 1179.51 1253.46 799.071 c 0
 1304.55 215.681 996.969 36.1406 700.726 9.62012 c 0
 439.966 -13.7246 139.497 161.077 67.8408 562.983 c 0
 16.7666 849.447 102.837 1299.7 582.75 1435.79 c 0
562.393 1337.09 m 0
 132.24 1201.88 120.883 778.07 143.571 596.76 c 0
 183.812 275.188 446.742 62.79 692.352 90.3584 c 0
 947.502 118.998 1208.05 261.54 1168.07 766.362 c 0
 1167.65 771.639 1167.2 776.889 1166.71 782.113 c 0
 1132.98 1144.57 930.863 1381.89 593.357 1350.2 c 0
 579.391 1348.87 568.065 1339.73 562.393 1337.09 c 0
EndSplineSet
EndChar

StartChar: P
Encoding: 80 80 42
Width: 1050
VWidth: 0
Flags: HW
VStem: 95.4541 140<22.3188 675.925>
LayerCount: 2
Fore
SplineSet
107.396 1385.45 m 0
 107.277 1390.71 107.449 1395.53 107.858 1399.9 c 0
 111.377 1437.59 129.491 1444.63 148.809 1442.74 c 0
 177.623 1439.93 206.412 1412.54 203.496 1382.96 c 0
 189.087 1236.78 205.324 223.172 215.502 76.6143 c 0
 215.695 73.8389 215.759 71.1484 215.706 68.541 c 0
 214.858 26.4756 183.913 3.92578 159.081 4.58203 c 0
 139.317 5.10449 113.817 19.9893 115.446 79.4521 c 0
 119.482 226.742 111.415 1206.75 107.396 1385.45 c 0
316.422 515.846 m 0
 207.37 529.477 124.325 564.446 67.0352 602.641 c 0
 27.6133 628.923 29.4717 658.041 37.3682 670.985 c 0
 43.4316 680.926 52.6855 684.828 65.459 676.967 c 0
 149.232 625.415 249.34 598.626 329.837 590.11 c 0
 538.116 568.077 761.296 582.921 859.794 777.984 c 0
 864.448 787.201 868.731 796.455 872.652 805.734 c 0
 964.01 1021.89 858.328 1248.91 683.702 1322.43 c 0
 530.918 1386.76 362.028 1343.18 216.113 1308.51 c 0
 197.828 1304.16 185.423 1314.15 180.079 1335.89 c 0
 173.139 1364.13 184.787 1396.59 216.813 1404.29 c 0
 373.305 1441.92 558.108 1447.38 665.051 1416.77 c 0
 676.487 1413.5 687.596 1409.92 698.382 1406.05 c 0
 971.763 1307.92 1046.08 1018.79 963.617 789.131 c 0
 858.909 497.509 597.192 480.752 316.422 515.846 c 0
EndSplineSet
EndChar

StartChar: Q
Encoding: 81 81 43
Width: 1352
VWidth: 0
Flags: HW
LayerCount: 2
Fore
SplineSet
593.255 1435.79 m 0
 611.357 1440.93 627.031 1435.55 639.335 1426.49 c 0
 643.173 1423.67 648.163 1422.32 652.651 1422.65 c 0
 988.876 1447.27 1230.64 1179.52 1263.96 799.071 c 0
 1315.02 216.048 1010.01 48.9805 710.141 5.49219 c 0
 452.968 -31.8047 150.147 160.252 78.3438 562.983 c 0
 27.2705 849.447 113.342 1299.7 593.255 1435.79 c 0
572.893 1340.08 m 0
 142.771 1204.88 128.366 778.222 151.073 596.76 c 0
 191.296 275.335 456.961 55.7568 702.854 83.3574 c 0
 958.264 112.026 1221.56 261.593 1181.58 766.363 c 0
 1181.16 771.626 1180.71 776.863 1180.22 782.075 c 0
 1146.42 1144.68 941.433 1384.89 603.859 1353.2 c 0
 589.893 1351.87 578.566 1342.73 572.893 1340.08 c 0
1306.76 -39.1768 m 0
 1178.72 6.80078 956.539 172.617 875.414 270.743 c 0
 850.861 300.44 859.556 330.994 874.779 344.098 c 0
 885.98 353.739 901.727 357.244 920.817 334.98 c 0
 1005.87 235.804 1227.35 56.3467 1362.2 -19.4355 c 0
 1367.76 -22.5576 1368.93 -24.9395 1369.03 -25.1445 c 1
 1368.31 -29.1416 1341.95 -51.8145 1306.76 -39.1768 c 0
EndSplineSet
EndChar

StartChar: R
Encoding: 82 82 44
Width: 1046
VWidth: 0
Flags: HW
HStem: 1294 111<49.3107 113.032>
VStem: 113.032 136.919<891.939 1296.99> 134.464 137<22.9518 539.667>
LayerCount: 2
Fore
SplineSet
224.443 1318.16 m 0
 220.8 1211.63 223.213 1134.99 229.958 877.198 c 0
 230.233 866.667 239.239 858.632 248.097 857.808 c 0
 498.846 834.456 762.266 810.942 867.858 976.233 c 0
 942.047 1092.36 888.974 1204.06 836.501 1249.17 c 0
 685.333 1379.1 433.858 1370.32 241.045 1337.19 c 0
 231.75 1335.59 224.759 1327.38 224.443 1318.16 c 0
108.438 1316.46 m 0
 104.197 1315.45 100.033 1314.46 95.7959 1313.45 c 0
 68.9385 1307 53.4609 1323.09 49.0059 1345.44 c 0
 44.7031 1367.03 53.1279 1382.42 68.2812 1385.37 c 0
 86.9941 1389.01 106.181 1392.65 125.776 1396.19 c 0
 131.57 1397.24 136.755 1401.06 139.525 1405.84 c 0
 150.374 1424.56 174.116 1427.56 198.446 1412.95 c 0
 202.414 1410.56 207.438 1409.69 211.64 1410.3 c 0
 433.395 1442.74 768.808 1437.13 905.182 1298 c 0
 973.153 1228.65 1026.28 1101.59 961.719 956.113 c 0
 885.824 785.104 569.697 736.063 365.995 777.598 c 0
 355.321 779.773 344.58 772.67 342.403 761.996 c 0
 341.249 756.335 343.084 749.97 345.879 746.163 c 0
 556.822 458.897 740.323 278.396 987.041 55.1699 c 0
 994.812 48.1387 996.191 31.6582 980.642 15.8887 c 0
 962.896 -2.1084 922.747 -15.5693 867.551 39.1973 c 0
 679.849 225.438 501.183 395.107 268.096 707.611 c 0
 261.583 716.343 248.84 718.198 240.107 711.686 c 0
 234.552 707.543 231.934 699.729 232.073 695.055 c 0
 239.277 454.627 247.323 140.933 251.512 80.6133 c 0
 251.706 77.8203 251.772 75.1123 251.724 72.4883 c 0
 250.938 30.1895 220.606 8.02734 196.918 8.57812 c 0
 178.111 9.01562 152.816 23.5361 154.457 83.4521 c 0
 158.143 218.024 139.889 1009.5 133.026 1297.47 c 0
 132.716 1310.48 119.793 1319.13 108.438 1316.46 c 0
EndSplineSet
EndChar

StartChar: S
Encoding: 83 83 45
Width: 969
VWidth: 0
Flags: HW
LayerCount: 2
Fore
SplineSet
788.227 1272.32 m 0
 666.525 1390.91 382.976 1367.11 271.285 1293.71 c 0
 188.156 1239.09 106.728 1159.38 139.895 1030.03 c 0
 202.6 785.478 863.975 642.835 914.167 407.823 c 0
 921.125 375.243 924.338 345.309 924.392 317.836 c 0
 924.862 81.0703 685.598 7 506.727 7 c 0
 311.068 7 160.815 72.9424 75.4004 207.706 c 0
 67.8262 219.657 63.3379 231.146 61.0742 242.01 c 0
 51.1543 289.623 84.54 328.258 111.163 333.804 c 0
 125.648 336.821 141.562 333.294 148.906 297.03 c 0
 178.039 153.16 365.204 81.8564 528.763 88.2324 c 0
 684.462 94.3018 839.929 174.158 832.71 352.809 c 0
 822.554 604.026 149.462 726.17 61.2002 985.445 c 0
 16.2451 1117.51 66.3477 1260.97 191.274 1343.3 c 0
 372.55 1462.77 706.253 1442.45 817.726 1363.67 c 0
 823.885 1359.31 829.146 1354.94 833.606 1350.63 c 0
 866.401 1318.89 859.055 1289.81 843.401 1273.74 c 0
 828.393 1258.33 806.368 1254.64 788.227 1272.32 c 0
EndSplineSet
EndChar

StartChar: T
Encoding: 84 84 46
Width: 1240
VWidth: 0
Flags: HW
HStem: 1325.3 114<38.065 115.501 820.368 1116.6>
VStem: 538.231 140<19.6176 1312.33>
LayerCount: 2
Fore
SplineSet
47.5 1419.31 m 0
 540.054 1401.3 733.687 1413.88 1187 1431.31 c 0
 1217.74 1432.5 1233.1 1411.84 1234.87 1392.37 c 0
 1236.34 1376.14 1229.71 1364.76 1211.55 1363.23 c 0
 997.664 1345.18 838.467 1336.04 670.098 1333.25 c 0
 659.083 1333.06 650.898 1323.4 650.453 1314.22 c 0
 639.375 1086.11 648.688 212.037 658.279 73.9131 c 0
 658.473 71.1377 658.536 68.4473 658.484 65.8398 c 0
 657.637 23.7734 626.691 1.22461 601.859 1.88086 c 0
 582.096 2.40332 556.595 17.2881 558.224 76.751 c 0
 562.028 215.639 560.541 1060.07 557.217 1312.59 c 0
 557.065 1324.06 546.72 1332.31 537.263 1332.33 c 0
 385.451 1332.66 241.513 1337.58 49.0312 1345.28 c 0
 20.5889 1346.42 4.34375 1370.19 5.02051 1390.47 c 0
 5.51172 1405.22 13.3994 1420.56 47.5 1419.31 c 0
EndSplineSet
EndChar

StartChar: U
Encoding: 85 85 47
Width: 1274
VWidth: 0
Flags: HW
VStem: 77.7725 129<949.48 1442.13> 1043.77 135<966.725 1450.28>
LayerCount: 2
Fore
SplineSet
97.7461 1399.43 m 0
 99.5439 1434.69 124.248 1449.96 147.115 1449.17 c 0
 167.986 1448.46 188.339 1435.09 186.791 1398.29 c 0
 183.723 1325.36 175.151 1204.76 173.471 1066.18 c 0
 168.721 674.549 216.639 103.592 643.531 98.4512 c 0
 662.154 98.2266 680.126 99.1963 697.452 101.312 c 0
 1167.48 158.695 1108.84 1026.17 1063.62 1390.91 c 0
 1058.09 1435.46 1082.66 1453.32 1108.86 1456.27 c 0
 1135.53 1459.28 1156.61 1445.77 1158.89 1425.24 c 0
 1200.84 1047.87 1209.88 477.683 1016.54 209.135 c 0
 990.568 173.062 962.519 142.435 932.986 116.81 c 0
 726.024 -62.7637 439.059 -1.0293 273.886 189.548 c 0
 71.6143 422.943 82.7158 1104.69 97.7461 1399.43 c 0
EndSplineSet
EndChar

StartChar: V
Encoding: 86 86 48
Width: 1234
VWidth: 0
Flags: HW
LayerCount: 2
Fore
SplineSet
13.0469 1367.51 m 0
 2.22754 1399.61 22.04 1424.91 46.9199 1432.44 c 0
 67.0615 1438.53 87.0947 1433.31 95.915 1403.45 c 0
 199.012 1054.49 470.06 452.999 626.596 143.963 c 0
 631.519 134.245 643.756 130.236 653.475 135.158 c 0
 658.157 137.529 661.812 141.967 663.373 146.562 c 0
 782.434 496.751 1016.5 1071.89 1149.69 1408.77 c 0
 1161.47 1438.57 1177.2 1439.48 1192.17 1433.76 c 0
 1214.7 1425.14 1229.19 1398.81 1222.43 1381.33 c 0
 1086.46 1029.41 855.211 442.264 712.635 48.8145 c 0
 705.193 28.2812 693.271 16.292 679.545 9.48633 c 0
 644.662 -7.80762 593.358 9.75781 575.434 46.7256 c 0
 412.141 383.53 132.431 1013.33 13.0469 1367.51 c 0
EndSplineSet
EndChar

StartChar: W
Encoding: 87 87 49
Width: 1810
VWidth: 0
Flags: HW
LayerCount: 2
Fore
SplineSet
15.1201 1373.5 m 0
 2.16504 1405.54 15.1445 1425.05 30.8281 1432.17 c 0
 47.6006 1439.79 76.2871 1436.5 95.3145 1393.85 c 0
 268.465 1005.73 402.663 539.528 490.041 139.729 c 0
 492.367 129.087 503.207 122.135 513.85 124.461 c 0
 520.053 125.816 525.35 130.193 527.88 135.931 c 0
 670.538 459.477 799.251 821.454 892.221 960.906 c 0
 897.319 968.555 903.933 974.351 911.942 978.674 c 0
 949.578 998.982 1013.98 981.172 1034.9 941.643 c 0
 1142.14 739.095 1282.78 409.542 1342.12 160.368 c 0
 1344.65 149.771 1355.61 143.021 1366.21 145.544 c 0
 1373.55 147.292 1379.15 154.301 1380.63 158.9 c 0
 1527.86 618.673 1674.13 1210.46 1736.64 1406.94 c 0
 1744.53 1431.74 1751.83 1429.46 1755.64 1428.55 c 0
 1774.88 1423.95 1810.77 1371.71 1798.19 1321.9 c 0
 1723.34 1025.45 1582.33 527.444 1444.37 50.5596 c 0
 1436.03 21.7305 1404.25 0.00292969 1366.38 -6.72852 c 0
 1318.41 -15.2549 1281.26 1.73145 1276.29 30.418 c 0
 1224.84 327.016 1133 533.754 980.516 842.848 c 0
 975.695 852.617 963.501 856.756 953.731 851.937 c 0
 950.443 850.314 947.613 847.753 945.677 844.692 c 0
 850.256 693.863 668.21 245.281 610.484 59.9473 c 0
 602.878 35.5312 576.013 16.6025 539.893 9.9375 c 0
 482.176 -0.712891 423.885 22.3145 415.254 69.5918 c 0
 348.245 436.667 180.607 964.285 15.1201 1373.5 c 0
EndSplineSet
EndChar

StartChar: X
Encoding: 88 88 50
Width: 1051
VWidth: 0
Flags: HW
LayerCount: 2
Fore
SplineSet
60.6387 1354.01 m 0
 57.7012 1358.36 55.2471 1362.5 53.2266 1366.39 c 0
 35.8213 1399.94 47.1787 1415.65 64.3252 1424.53 c 0
 90.0537 1437.85 129.239 1430.42 142.818 1403.89 c 0
 209.768 1273.09 902.546 216.762 990.576 98.6934 c 0
 992.238 96.4629 993.748 94.2344 995.113 92.0127 c 0
 1017.15 56.1689 1003.31 20.4668 982.067 7.59082 c 0
 965.162 -2.65625 935.662 -3.92676 904.879 46.9736 c 0
 828.667 172.989 160.764 1205.69 60.6387 1354.01 c 0
888.963 1394.76 m 0
 891.676 1399.27 894.397 1403.25 897.076 1406.73 c 0
 920.16 1436.66 939.188 1432.98 954.47 1421.17 c 0
 977.399 1403.46 987.184 1364.8 968.854 1341.3 c 0
 878.6 1225.62 219.394 178.337 149.366 48.5811 c 0
 148.045 46.1338 146.66 43.8252 145.222 41.6504 c 0
 122.011 6.55762 83.8018 4.05176 63.1699 17.8857 c 0
 46.749 28.8975 33.1611 55.1104 66.3369 104.486 c 0
 148.354 226.554 796.599 1241.3 888.963 1394.76 c 0
EndSplineSet
EndChar

StartChar: Y
Encoding: 89 89 51
Width: 1063
VWidth: 0
Flags: HW
LayerCount: 2
Fore
SplineSet
490.791 25.4443 m 0
 486.791 17.9795 482.582 11.916 478.344 7.03613 c 0
 453.943 -21.0498 423.66 -15.8896 401.698 3.35156 c 0
 380.382 22.0283 375.798 46.0039 389.985 62.042 c 0
 466.59 148.639 558.631 363.726 592.952 435.665 c 0
 595.709 441.442 595.028 448.8 592.744 453.312 c 0
 464.605 706.404 153.295 1181.44 21.2783 1338.85 c 0
 -0.0507812 1364.28 12.1445 1408.47 37.3994 1425.97 c 0
 52.0664 1436.13 69.8828 1439.08 91.4746 1407.67 c 0
 223.158 1216.11 475.177 832.064 619.878 581.306 c 0
 625.322 571.87 637.762 568.534 647.197 573.979 c 0
 651.115 576.24 654.646 581.177 655.655 583.594 c 0
 788.538 901.738 930.326 1275.36 942.285 1377.68 c 0
 942.833 1382.37 943.75 1386.59 944.948 1390.41 c 0
 954.488 1420.76 984.974 1431.68 1013.03 1422.75 c 0
 1040.52 1414 1065.61 1386.11 1047.37 1329.1 c 0
 1006.32 1200.8 837.881 794.319 692.467 463.97 c 0
 690.023 458.419 690.27 451.904 693.088 446.569 c 0
 694.299 444.276 695.529 441.942 696.725 439.679 c 0
 702.2 429.285 704.474 420.079 704.816 412.003 c 0
 706.028 383.466 681.66 362.688 659.505 361.776 c 0
 651.956 361.466 645.143 356.497 642.23 350.31 c 0
 594.082 248.005 535.414 108.743 490.791 25.4443 c 0
EndSplineSet
EndChar

StartChar: Z
Encoding: 90 90 52
Width: 1147
VWidth: 0
Flags: HW
HStem: -1 112<177.557 449.317 948.207 1102.21> 1305 120<55.9901 315.279 735.838 951.556>
LayerCount: 2
Fore
SplineSet
94.6299 1324.91 m 0
 58.2773 1321.85 45.8145 1342.23 45.0322 1363.95 c 0
 44.2197 1386.53 57.0762 1404.29 77.2695 1405.01 c 0
 357.073 1415.02 706.809 1423.99 989.852 1414.01 c 0
 1018.65 1413 1037.55 1404.6 1050.01 1393.35 c 0
 1083.25 1363.35 1078.73 1298.29 1041.73 1257.42 c 0
 795.418 985.394 390.393 476.422 160.771 121.873 c 0
 154.849 112.729 157.541 100.136 166.685 94.2139 c 0
 170.467 91.7646 176.554 90.873 179.023 91.0547 c 0
 450.009 110.979 793.544 114.964 1066.47 100.029 c 0
 1092.22 98.6201 1103.46 79.8057 1102.5 57.584 c 0
 1101.54 35.1309 1088.6 18.8564 1066.57 19.9746 c 0
 789.79 34.0166 444.328 35.0156 133.526 18.9736 c 0
 112.878 17.9072 97.6416 22.3896 86.2061 29.5537 c 0
 52.4639 50.6914 45.4014 103.725 67.418 138.245 c 0
 302.973 507.576 703.799 1004.46 966.453 1297.66 c 0
 973.723 1305.77 973.016 1318.63 964.901 1325.9 c 0
 961.41 1329.02 956.486 1330.82 952.337 1330.98 c 0
 696.629 1340.97 452.02 1355.03 94.6299 1324.91 c 0
EndSplineSet
EndChar

StartChar: zero
Encoding: 48 48 53
Width: 1285
VWidth: 0
Flags: HW
HStem: 1322 114.6<451.483 861.157>
LayerCount: 2
Fore
SplineSet
553.4 1350.15 m 0
 971.78 1383.44 1128.22 1117 1156 766.363 c 0
 1195.99 261.432 935.213 122.973 680.277 94.3574 c 0
 434.858 66.8105 172.754 275.07 132.499 596.76 c 0
 109.29 782.232 179.26 1112.91 426.791 1301.9 c 0
 440.289 1312.2 470 1332 468 1348 c 1
 480 1336 530.053 1348.29 553.4 1350.15 c 0
450.606 1392.13 m 1
 442 1398 416.221 1387.41 398.149 1376.57 c 0
 136.996 1219.89 5.00879 847.688 55.7686 562.983 c 0
 127.425 161.079 427.893 -13.7246 688.652 9.61914 c 0
 985.593 36.2021 1268.89 183.569 1237.96 768.944 c 0
 1214.15 1219.48 968.932 1490.58 483.621 1416.83 c 0
 471.082 1414.92 455 1405 450.606 1392.13 c 1
EndSplineSet
EndChar

StartChar: one
Encoding: 49 49 54
Width: 406
VWidth: 0
Flags: HW
VStem: 120.139 136.05<912.309 1418.26> 145.621 140.013<15.7803 537.658>
LayerCount: 2
Fore
SplineSet
140.122 1376.03 m 0
 139.905 1381.27 139.985 1386.08 140.309 1390.45 c 0
 143.102 1428.15 161.008 1435.55 180.266 1434.11 c 0
 209.159 1431.96 238.616 1405.06 236.252 1375.36 c 0
 224.615 1229.12 252.755 219.855 265.712 73.332 c 0
 265.957 70.5615 266.071 67.8721 266.068 65.2646 c 0
 266.015 23.1895 235.499 0.0595703 210.66 0.248047 c 0
 190.89 0.397461 165.113 14.7979 165.62 74.2812 c 0
 166.874 221.421 147.521 1197.25 140.122 1376.03 c 0
EndSplineSet
EndChar

StartChar: two
Encoding: 50 50 55
Width: 1011
VWidth: 0
Flags: HMW
HStem: 0 130 6 115<248.55 277.626 864.954 968.48>
LayerCount: 2
Fore
SplineSet
737.062 944.429 m 0
 746 965.511 753.515 986.841 759.667 1008.52 c 0
 798.651 1145.92 780.305 1301.56 643.425 1340.25 c 0
 476.795 1387.33 263.046 1364.23 98.2109 1227.39 c 0
 77.0361 1209.81 58.499 1215.59 46.0576 1230.55 c 0
 31.2334 1248.38 27.3418 1279.44 57.7383 1304.59 c 0
 224.606 1442.69 451.682 1444 645.243 1417.19 c 0
 671.485 1413.56 695.178 1407.29 716.414 1398.75 c 0
 868.762 1337.49 909.353 1149.04 815.441 916.489 c 0
 755.429 767.884 434.322 394.437 232.717 133.22 c 0
 226.062 124.596 227.707 111.823 236.33 105.167 c 0
 240.486 101.96 246.053 100.566 250.896 101.139 c 0
 400.891 118.851 747.519 123.918 929.245 112.042 c 0
 964.662 109.728 978.157 83.8105 975.867 59.5879 c 0
 973.866 38.4258 961.236 23.3779 936.583 25.8965 c 0
 728.525 47.1523 424.219 34.9902 177.335 19.9629 c 0
 151.265 18.376 134.362 24.8223 122.974 34.0459 c 0
 94.4971 57.1084 94.8779 107.635 114.403 131.259 c 0
 384.108 457.586 674.992 798.012 737.062 944.429 c 0
EndSplineSet
EndChar

StartChar: three
Encoding: 51 51 56
Width: 1023
VWidth: 0
Flags: HW
HStem: 25.1523 134.848<45.2439 328.878>
LayerCount: 2
Fore
SplineSet
899.472 1024.4 m 0
 873.831 938.042 831.911 866.64 707.529 823.915 c 0
 697.226 820.376 691.573 808.806 695.111 798.503 c 0
 697.17 792.51 702.935 787.737 707.252 786.183 c 0
 776.916 761.103 908.784 665.801 956.134 529.438 c 0
 1012.17 368.062 963.88 176.253 789.33 79.4922 c 0
 647.604 0.926758 291.951 -5.38965 73.4922 44.6475 c 0
 48.8408 50.2939 38.4199 80.5859 48.8291 111.939 c 0
 57.0156 136.6 72.4141 147.769 92.7197 141.021 c 0
 249.484 88.9219 554.668 60.1289 713.637 135.948 c 0
 850.267 201.112 934.207 327.183 878.11 505.987 c 0
 809.29 725.346 558.53 763.01 364.667 749.797 c 0
 362.107 749.622 359.692 749.578 357.416 749.645 c 0
 326.98 750.542 314.806 770.959 315.678 796.048 c 0
 316.643 823.773 334.231 846.857 362.314 845.855 c 0
 523.062 840.125 749.361 836.149 813.081 1035.92 c 0
 843.432 1131.08 809.495 1233.23 726.892 1294.1 c 0
 582.303 1400.65 313.97 1366.76 141.5 1260.01 c 0
 115.174 1243.71 89.6914 1255.48 77.9141 1276.1 c 0
 67.6924 1294 68.0645 1316.64 97.916 1333.62 c 0
 309.609 1454.03 591.174 1446.69 733.953 1383.7 c 0
 893.227 1313.44 935.198 1144.74 899.472 1024.4 c 0
EndSplineSet
EndChar

StartChar: four
Encoding: 52 52 57
Width: 1016
VWidth: 0
Flags: HW
VStem: 764.505 132.05<909.942 1412.17> 789.987 136.013<20.6865 529.942>
LayerCount: 2
Fore
SplineSet
214.48 1394.35 m 0
 227.419 1425.62 252.34 1429.63 273.095 1421.72 c 0
 293.381 1413.99 302.087 1398.22 296.321 1383.15 c 0
 221.863 1188.55 142.005 1030.86 121.062 765.574 c 0
 110.835 636.02 201.528 604.804 304.605 592.373 c 0
 483.72 570.772 606.149 595.42 772.634 609.066 c 0
 798.149 611.158 814.975 591.203 817.106 564.27 c 0
 819.143 538.549 807.273 517.109 778.499 514.943 c 0
 595.975 501.208 520.185 501.227 285 501.229 c 0
 276.756 501.229 268.684 501.459 260.791 501.915 c 0
 113.473 510.424 27.1162 594.427 35.9658 744.825 c 0
 52.9004 1032.64 142.164 1219.59 214.48 1394.35 c 0
784.487 1369.94 m 0
 784.269 1375.23 784.344 1380.08 784.659 1384.5 c 0
 787.379 1422.54 804.829 1429.4 822.758 1428.03 c 0
 850.123 1425.94 879.021 1399.46 876.618 1369.27 c 0
 864.981 1223.03 893.122 224.744 906.077 78.2383 c 0
 906.324 75.4463 906.443 72.7354 906.445 70.1064 c 0
 906.482 27.6826 876.723 5.05957 853.398 5.15332 c 0
 834.933 5.22754 809.473 19.1396 809.986 79.1875 c 0
 811.243 226.329 791.885 1191.17 784.487 1369.94 c 0
EndSplineSet
EndChar

StartChar: five
Encoding: 53 53 58
Width: 1089
VWidth: 0
Flags: HMW
HStem: 0 131<137.085 617.693> 1312 115<564.055 1015.45>
VStem: 40 130<982.98 1312>
LayerCount: 2
Fore
SplineSet
1017.56 1333.99 m 0
 673.522 1345.99 465.436 1350.02 169.638 1331.96 c 0
 159.281 1331.33 151.076 1322.49 150.86 1312.43 c 0
 148.6 1206.83 139.908 1085.45 131.511 979.581 c 0
 130.445 966.141 143.304 957.297 153.017 958.062 c 0
 493.509 984.829 750.1 917.051 911.969 736.645 c 0
 915.988 732.165 919.88 727.668 923.647 723.157 c 0
 1106.32 504.424 1000.79 241.643 884.052 144.364 c 0
 692.426 -15.3311 409.733 -22.8613 157.653 39.416 c 0
 142.512 43.1572 129.607 69.6592 137.661 100.113 c 0
 144.113 124.51 159.297 139.783 189.702 131.675 c 0
 406.403 73.8887 660.76 64.6318 825.107 210.021 c 0
 832.239 216.329 839.108 223.058 845.689 230.163 c 0
 949.451 342.196 985.361 553.9 825.429 701.689 c 0
 665.357 849.608 426.964 917.456 118.145 865.725 c 0
 113.217 864.899 108.213 864.777 103.199 865.309 c 0
 70.0908 868.812 41.793 900.051 45.3184 930.715 c 0
 60.7383 1064.81 70.8887 1169.56 64.8418 1327.76 c 0
 63.2363 1369.77 84.2646 1403.59 115.436 1406.06 c 0
 417.062 1429.96 710.144 1422 1014.46 1407.02 c 0
 1035.27 1406 1045.19 1390.34 1044.59 1369.01 c 0
 1043.95 1346.7 1032.04 1333.48 1017.56 1333.99 c 0
EndSplineSet
EndChar

StartChar: six
Encoding: 54 54 59
Width: 1118
VWidth: 0
Flags: HW
VStem: 25.9697 119<664 992.109>
LayerCount: 2
Fore
SplineSet
154.211 520.09 m 0
 153.204 513.656 152.45 507.043 151.94 500.274 c 0
 141.133 356.864 239.792 119.031 455.492 103.055 c 0
 707.216 84.4102 917.073 228.881 972.486 465.438 c 0
 987.113 527.879 989.25 584.729 980.945 635.278 c 0
 949.487 826.768 770.618 918.316 589.755 888.578 c 0
 375.577 853.361 224.356 719.941 155.109 523.654 c 0
 154.716 522.538 154.352 520.992 154.211 520.09 c 0
354.396 1381.15 m 0
 224.657 1181.58 126.021 986.455 124.97 664.064 c 0
 124.935 653.172 134.012 644.035 144.905 644 c 0
 153.039 643.975 160.328 649.69 163.052 655.453 c 0
 221.016 778.078 357.786 938.879 601.131 964.957 c 0
 666.3 971.94 725.163 968.551 777.38 956.818 c 0
 1003.76 905.956 1112.36 696.537 1060.5 466.396 c 0
 998.268 190.213 770.993 -26.5273 444.056 23.7676 c 0
 109.271 75.2695 35.2432 376.062 45.96 726.388 c 0
 54.7939 1015.13 179.359 1280.07 288.005 1423.95 c 0
 299.639 1439.35 321.388 1440.4 340.559 1428.17 c 0
 359.035 1416.38 366.32 1399.5 354.396 1381.15 c 0
EndSplineSet
EndChar

StartChar: seven
Encoding: 55 55 60
Width: 1047
VWidth: 0
Flags: HW
HStem: 1332 111<-10.854 896>
VStem: 342 138.801<-2.11728 171.107>
LayerCount: 2
Fore
SplineSet
22.916 1423.03 m 0
 410.561 1401.98 584.344 1410.96 933.689 1423.01 c 0
 952.077 1423.65 966.596 1420.3 977.934 1414.83 c 0
 1012.4 1398.19 1022.44 1358.48 1008 1328.73 c 0
 765.794 829.36 596.973 590.816 461.354 25.7549 c 0
 455.479 1.27734 425.372 -10.0332 393.842 -1.48633 c 0
 367.873 5.55371 355.77 20.8291 361.284 40.8828 c 0
 492.748 518.94 625.545 761.381 913.812 1325.9 c 0
 918.766 1335.61 914.797 1347.86 905.095 1352.81 c 0
 901.887 1354.45 897.855 1355.16 894.72 1354.96 c 0
 661.436 1340.01 372.24 1334.01 19.0137 1351.97 c 0
 2.36719 1352.82 -7.60254 1367.18 -6.42773 1388.91 c 0
 -5.25293 1410.64 6.23926 1423.93 22.916 1423.03 c 0
EndSplineSet
EndChar

StartChar: eight
Encoding: 56 56 61
Width: 1055
VWidth: 0
Flags: HW
LayerCount: 2
Fore
SplineSet
-458 377 m 4
 -306.615 426.847 -206 611 -254 767 c 4
 -304.703 931.784 -419.946 959.534 -623.946 980.534 c 4
 -724.617 990.896 -711.483 1115.09 -605.946 1109.53 c 4
 -320.946 1094.53 -195.907 994.271 -126.999 795 c 4
 -52.999 581 -200 323 -410 260 c 4
 -639.014 191.296 -982.65 190.888 -1089.58 514.621 c 4
 -1166 746 -1055.95 1040.53 -708.856 1097.16 c 4
 -556.727 1121.97 -562.991 989.307 -668.946 977.534 c 4
 -911.946 950.534 -1028 737 -968.667 557 c 4
 -905.195 364.443 -704 296 -458 377 c 4
107 1152 m 0
 109.413 1166.96 112.861 1181.7 117.762 1196.39 c 0
 169.113 1350.33 379.489 1494.94 645.305 1406.03 c 0
 650.385 1404.33 654.891 1402.49 658.86 1400.56 c 0
 690.562 1385.17 690.941 1365.95 682.931 1349.7 c 0
 671.974 1327.47 642.764 1312.75 616.625 1325.87 c 0
 578.521 1345.01 538.544 1354.98 499.224 1357.29 c 0
 353.465 1365.86 210.345 1268.82 202.207 1135.79 c 0
 193.464 984.396 299.682 880.696 495.141 850.706 c 0
 632.254 829.667 785.131 904.887 807.916 1045.43 c 0
 821.079 1126.62 794.957 1232.33 662.623 1303.26 c 0
 641.426 1314.62 639.333 1330.09 645.399 1344.95 c 0
 653.782 1365.5 679.671 1382.46 711.462 1369.18 c 0
 836.485 1316.93 928.008 1148.63 896.761 1022.44 c 0
 858.007 865.926 735.08 746.357 493.993 768.392 c 0
 485.009 769.213 476.116 770.207 467.322 771.371 c 0
 237.179 801.847 79.5938 945.546 107 1152 c 0
679.649 144 m 0
 831.034 193.847 931.649 378 883.649 534 c 0
 832.946 698.784 717.703 726.534 513.703 747.534 c 0
 413.032 757.897 426.166 882.089 531.703 876.534 c 0
 816.703 861.534 941.742 761.272 1010.65 562 c 0
 1084.65 348 937.649 90 727.649 27 c 0
 498.635 -41.7041 154.999 -42.1123 48.0723 281.621 c 0
 -28.3506 513 81.7031 807.534 428.793 864.155 c 0
 580.922 888.973 574.658 756.307 468.703 744.534 c 0
 225.703 717.534 109.649 504 168.982 324 c 0
 232.454 131.443 433.649 63 679.649 144 c 0
EndSplineSet
EndChar

StartChar: nine
Encoding: 57 57 62
Width: 1050
VWidth: 0
Flags: HW
VStem: 815 140<-5.29642 511.048>
LayerCount: 2
Fore
SplineSet
809.986 1363.73 m 0
 809.781 1369 809.871 1373.83 810.206 1378.21 c 0
 813.105 1416.15 831.332 1423.65 850.838 1422.1 c 0
 879.67 1419.81 908.594 1393.25 906.066 1363.63 c 1
 894.743 1217.49 921.819 199.131 935.084 52.165 c 1
 935.343 49.375 935.468 46.707 935.476 44.0967 c 0
 935.598 2.32617 905.627 -20.5781 880.871 -20.5781 c 0
 860.812 -20.5781 834.58 -6.07617 834.999 53.8623 c 0
 836.002 200.874 817.011 1184.91 809.986 1363.73 c 0
761.29 1311.15 m 0
 710.161 1341.83 572.316 1372.3 463.191 1339.14 c 0
 449.87 1335.1 436.716 1329.99 423.78 1323.95 c 0
 230.025 1233.44 68.1084 924.183 161.89 724.515 c 1
 183.426 678.438 219.802 641.188 265.253 616.283 c 0
 419.884 531.556 674.717 588.901 842.555 895.417 c 1
 843.976 898.027 845.612 900.744 846.586 902.272 c 1
 851.799 876.751 847.341 824.874 828.055 785.831 c 0
 762.226 652.049 659.208 564.375 549.589 521.528 c 0
 358.775 446.944 151.475 507.894 77.6396 697.249 c 0
 73.9482 706.742 70.6318 716.489 67.6885 726.465 c 0
 -4.05371 969.602 149.636 1337.14 434.604 1420.8 c 1
 575.692 1461.79 776.108 1414.01 814.179 1385.87 c 1
 836.683 1369.5 837.523 1345.74 826.122 1326.44 c 0
 813.896 1305.75 789.91 1293.98 761.29 1311.15 c 0
EndSplineSet
EndChar

StartChar: period
Encoding: 46 46 63
Width: 402
VWidth: 0
Flags: HW
LayerCount: 2
Fore
SplineSet
140.734 97.5117 m 0
 142.257 105.889 146.661 114.117 153.54 121.359 c 0
 177.617 146.709 222.739 152.024 243.238 132.525 c 0
 250.067 126.014 255.293 117.422 258.646 107.417 c 0
 271.213 69.9277 254.683 24.9629 224.664 14.957 c 1
 217.508 12.5293 210.402 12.0879 202.892 13.3311 c 0
 168.02 19.1016 134.729 62.6875 140.734 97.5117 c 0
EndSplineSet
EndChar

StartChar: slash
Encoding: 47 47 64
Width: 646
VWidth: 0
Flags: HW
LayerCount: 2
Fore
SplineSet
515.2 1419.15 m 0
 516.836 1424.21 518.606 1428.77 520.47 1432.87 c 0
 537.515 1470.38 560.503 1471.74 579.342 1463.13 c 0
 603.491 1452.1 618.729 1423 607.02 1397.7 c 0
 545.5 1264.79 52.585 -95.9561 13.7021 -238.745 c 0
 12.9717 -241.429 12.1475 -243.991 11.2402 -246.436 c 0
 -3.39746 -285.881 -40.0391 -296.996 -63.2725 -288.208 c 0
 -81.7656 -281.213 -100.95 -258.769 -79.8516 -203.151 c 0
 -27.8379 -66.04 459.943 1248.26 515.2 1419.15 c 0
EndSplineSet
EndChar

StartChar: comma
Encoding: 44 44 65
Width: 275
VWidth: 0
Flags: HW
VStem: 74.3994 128.601<-254.157 155.303>
LayerCount: 2
Fore
SplineSet
94.1836 109.247 m 0
 90.0938 136.877 105 150.749 126.464 155.355 c 0
 152.765 161 178.512 148.873 183.442 125.817 c 0
 213.934 -16.748 172.888 -212.719 117.453 -289.337 c 0
 96.4277 -318.396 77.1953 -316.285 65.0537 -308.404 c 0
 49.3818 -298.232 38.6836 -271.909 57.6719 -243.104 c 0
 136.576 -123.397 113.321 -20.0283 94.1836 109.247 c 0
EndSplineSet
EndChar

StartChar: plus
Encoding: 43 43 66
Width: 957
VWidth: 0
Flags: HW
HStem: 470.189 140<67.7516 890.151>
VStem: 423.557 135.976<134.175 947.987>
LayerCount: 2
Fore
SplineSet
443.554 176.836 m 0
 446.663 355.577 441.782 747.254 437.023 893.804 c 0
 436.856 898.956 436.917 903.793 437.175 908.322 c 0
 440.031 958.423 464.146 970.083 484.227 968.834 c 0
 509.804 967.244 539.959 942.135 537.062 897.15 c 0
 527.676 751.268 524.607 324.718 539.64 179.81 c 0
 539.824 178.029 539.902 176.285 539.885 174.57 c 0
 539.57 145.017 507.391 119.043 479.759 119.501 c 0
 462.161 119.793 442.722 129.013 443.554 176.836 c 0
849.877 492.585 m 0
 671.17 496.601 271.495 494.197 124.885 490.182 c 0
 119.732 490.04 114.896 490.125 110.368 490.406 c 0
 60.2842 493.519 48.7461 517.69 50.0967 537.765 c 0
 51.8174 563.334 77.0791 593.36 122.048 590.237 c 0
 267.882 580.111 702.36 574.388 847.391 588.687 c 0
 849.172 588.862 850.916 588.933 852.631 588.905 c 0
 882.182 588.44 907.991 556.13 907.394 528.5 c 0
 907.014 510.903 897.694 491.51 849.877 492.585 c 0
EndSplineSet
EndChar

StartChar: hyphen
Encoding: 45 45 67
Width: 650
VWidth: 0
Flags: HW
HStem: 470.189 140<57.7516 593.151>
LayerCount: 2
Fore
SplineSet
552.877 492.585 m 0
 374.51 496.594 260.922 494.183 114.886 490.182 c 0
 109.733 490.041 104.896 490.126 100.368 490.407 c 0
 50.2842 493.52 38.7461 517.69 40.0967 537.766 c 0
 41.8174 563.334 67.0791 593.361 112.047 590.237 c 0
 256.485 580.208 406.523 574.502 550.39 588.687 c 0
 552.171 588.861 553.916 588.932 555.63 588.904 c 0
 585.182 588.44 610.991 556.129 610.394 528.499 c 0
 610.013 510.903 600.694 491.51 552.877 492.585 c 0
EndSplineSet
EndChar

StartChar: semicolon
Encoding: 59 59 68
Width: 338
VWidth: 0
Flags: HW
VStem: 105.399 128.601<-254.157 155.303>
LayerCount: 2
Fore
SplineSet
125.185 109.238 m 0
 121.095 136.871 136.001 150.749 157.465 155.355 c 0
 183.766 161 209.512 148.873 214.442 125.817 c 0
 244.934 -16.749 203.889 -212.718 148.452 -289.338 c 0
 127.427 -318.396 108.196 -316.285 96.0537 -308.404 c 0
 80.3818 -298.232 69.6846 -271.908 88.6719 -243.104 c 0
 167.576 -123.397 144.322 -20.0371 125.185 109.238 c 0
100.733 912.514 m 0
 102.257 920.889 106.662 929.117 113.539 936.359 c 0
 137.615 961.709 182.74 967.024 203.238 947.525 c 0
 210.067 941.014 215.293 932.422 218.646 922.417 c 0
 231.214 884.928 214.679 839.961 184.667 829.957 c 1
 177.504 827.527 170.404 827.087 162.892 828.33 c 0
 128.021 834.102 94.7285 877.689 100.733 912.514 c 0
EndSplineSet
EndChar

StartChar: colon
Encoding: 58 58 69
Width: 338
VWidth: 0
Flags: HW
LayerCount: 2
Fore
SplineSet
100.733 912.514 m 0
 102.257 920.889 106.662 929.117 113.539 936.359 c 0
 137.615 961.709 182.74 967.024 203.238 947.525 c 0
 210.067 941.014 215.293 932.422 218.646 922.417 c 0
 231.214 884.928 214.679 839.961 184.667 829.957 c 1
 177.504 827.527 170.404 827.087 162.892 828.33 c 0
 128.021 834.102 94.7285 877.689 100.733 912.514 c 0
116.773 97.5107 m 0
 118.297 105.889 122.701 114.117 129.58 121.359 c 0
 153.656 146.709 198.779 152.024 219.278 132.524 c 0
 226.107 126.014 231.333 117.421 234.687 107.417 c 0
 247.253 69.9277 230.723 24.9629 200.704 14.957 c 1
 193.548 12.5293 186.442 12.0879 178.932 13.3311 c 0
 144.06 19.1016 110.77 62.6865 116.773 97.5107 c 0
EndSplineSet
EndChar

StartChar: backslash
Encoding: 92 92 70
Width: 703
VWidth: 0
Flags: HW
LayerCount: 2
Fore
SplineSet
664.03 -229.847 m 0
 608.756 -58.9053 80.8848 1358.01 28.8701 1495.09 c 0
 27.041 1499.91 25.5303 1504.51 24.3066 1508.88 c 0
 10.7666 1557.2 29.8027 1576.04 49.2012 1581.37 c 0
 73.9141 1588.16 110.579 1574.18 122.423 1530.69 c 0
 161.338 1387.78 694.328 -75.4814 755.85 -208.4 c 0
 756.616 -210.058 757.263 -211.698 757.801 -213.323 c 0
 766.271 -238.888 747.912 -267.713 723.171 -275.79 c 0
 704.558 -281.866 679.712 -278.344 664.03 -229.847 c 0
EndSplineSet
EndChar

StartChar: quotesingle
Encoding: 39 39 71
Width: 227
VWidth: 0
Flags: HW
VStem: 25.3926 136<1082.03 1406.93>
LayerCount: 2
Fore
SplineSet
45.3691 1391.03 m 0
 46.4336 1412.96 57.2148 1419.67 74.9287 1420.43 c 0
 106.009 1421.76 140.4 1397.08 141.409 1372.19 c 0
 144.44 1297.46 152.654 1129.04 179.394 1047.75 c 0
 189.837 1016 174.669 996.826 157.408 990.806 c 0
 140.89 985.045 118.144 989.509 106.338 1024.41 c 0
 84.3408 1089.44 40.6396 1293.55 45.3691 1391.03 c 0
EndSplineSet
EndChar

StartChar: quotedbl
Encoding: 34 34 72
Width: 480
VWidth: 0
Flags: HW
VStem: 25.3926 136<1082.03 1406.93> 287.393 136<1082.03 1406.93>
LayerCount: 2
Fore
SplineSet
307.369 1391.03 m 0
 308.435 1412.96 319.215 1419.67 336.929 1420.43 c 0
 368.009 1421.76 402.4 1397.08 403.41 1372.19 c 0
 406.44 1297.46 414.659 1129.04 441.395 1047.75 c 0
 451.836 1016 436.67 996.826 419.408 990.806 c 0
 402.889 985.045 380.144 989.509 368.339 1024.41 c 0
 346.345 1089.44 302.635 1293.55 307.369 1391.03 c 0
45.3691 1391.03 m 0
 46.4336 1412.96 57.2148 1419.67 74.9287 1420.43 c 0
 106.009 1421.76 140.4 1397.08 141.409 1372.19 c 0
 144.44 1297.46 152.654 1129.04 179.394 1047.75 c 0
 189.837 1016 174.669 996.826 157.408 990.806 c 0
 140.89 985.045 118.144 989.509 106.338 1024.41 c 0
 84.3408 1089.44 40.6396 1293.55 45.3691 1391.03 c 0
EndSplineSet
EndChar

StartChar: dollar
Encoding: 36 36 73
Width: 969
VWidth: 0
Flags: HW
VStem: 419 140.001<-171.681 -13 1556 1600.72>
LayerCount: 2
Fore
SplineSet
440.995 1560.45 m 0
 440.877 1565.7 441.048 1570.5 441.454 1574.87 c 0
 444.955 1612.5 463.002 1619.57 482.227 1617.77 c 0
 511.075 1615.06 540.021 1587.62 537.097 1557.96 c 0
 522.688 1411.78 528.834 29.7383 539.049 -117.386 c 0
 539.242 -120.161 539.306 -122.852 539.254 -125.459 c 0
 538.406 -167.524 507.46 -190.074 482.629 -189.418 c 0
 462.864 -188.895 437.363 -174.011 438.992 -114.547 c 0
 443.024 32.5713 445.021 1381.41 440.995 1560.45 c 0
788.227 1272.32 m 0
 666.525 1390.91 382.976 1367.11 271.285 1293.71 c 0
 188.156 1239.09 106.728 1159.38 139.895 1030.03 c 0
 202.6 785.478 863.975 642.835 914.167 407.823 c 0
 921.125 375.243 924.338 345.309 924.392 317.836 c 0
 924.862 81.0703 685.598 7 506.727 7 c 0
 311.068 7 160.815 72.9424 75.4004 207.706 c 0
 67.8262 219.657 63.3379 231.146 61.0742 242.01 c 0
 51.1543 289.623 84.54 328.258 111.163 333.804 c 0
 125.648 336.821 141.562 333.294 148.906 297.03 c 0
 178.039 153.16 365.204 81.8564 528.763 88.2324 c 0
 684.462 94.3018 839.929 174.158 832.71 352.809 c 0
 822.554 604.026 149.462 726.17 61.2002 985.445 c 0
 16.2451 1117.51 66.3477 1260.97 191.274 1343.3 c 0
 372.55 1462.77 706.253 1442.45 817.726 1363.67 c 0
 823.885 1359.31 829.146 1354.94 833.606 1350.63 c 0
 866.401 1318.89 859.055 1289.81 843.401 1273.74 c 0
 828.393 1258.33 806.368 1254.64 788.227 1272.32 c 0
EndSplineSet
EndChar

StartChar: percent
Encoding: 37 37 74
Width: 1090
VWidth: 0
Flags: HW
LayerCount: 2
Fore
SplineSet
744.6 364.826 m 0
 714.667 341.696 696.824 311.266 689.812 279.714 c 0
 673.548 206.534 714.489 124.366 790.489 107.477 c 0
 795.268 106.415 800.065 105.585 804.866 104.985 c 0
 882.769 95.2422 961.408 146.532 972.682 238.569 c 0
 976.923 273.209 965.908 304.95 946.798 329.736 c 0
 902.241 387.527 809.066 414.642 744.6 364.826 c 0
622.426 323.011 m 0
 629.674 358.62 647.401 386.934 672.172 408.923 c 0
 757.442 484.623 924.494 479.12 999.835 393.766 c 0
 1021.13 369.634 1034.61 339.944 1040.93 307.442 c 0
 1063.68 190.539 991.94 48.668 881.018 27.1328 c 0
 849.55 21.0234 818.117 21.2373 788.494 27.2275 c 0
 677.066 49.7578 587.969 153.717 622.426 323.011 c 0
174.417 1222.03 m 0
 144.485 1198.9 126.824 1168.61 119.812 1137.05 c 0
 103.549 1063.88 144.488 981.703 220.489 964.819 c 0
 225.268 963.758 230.065 962.929 234.866 962.328 c 0
 312.768 952.587 391.409 1003.87 402.68 1095.91 c 0
 406.922 1130.55 395.905 1162.29 376.797 1187.08 c 0
 332.242 1244.87 238.932 1271.88 174.417 1222.03 c 0
52.4258 1180.35 m 0
 59.6729 1215.96 77.4014 1244.28 102.172 1266.26 c 0
 187.444 1341.96 354.496 1336.47 429.834 1251.11 c 0
 451.133 1226.97 464.604 1197.29 470.93 1164.78 c 0
 493.686 1047.88 421.938 906.014 311.016 884.476 c 0
 279.549 878.366 248.114 878.58 218.493 884.57 c 0
 107.064 907.104 17.9707 1011.06 52.4258 1180.35 c 0
882.801 1285.44 m 0
 885.589 1289.97 888.392 1293.98 891.173 1297.53 c 0
 916.624 1329.93 939.276 1325.8 955.54 1312.98 c 0
 976.386 1296.54 984.294 1264.66 966.922 1242.85 c 0
 875.48 1128.08 260.599 165.567 189.325 36.6787 c 0
 187.979 34.2441 186.571 31.9502 185.11 29.79 c 0
 161.542 -5.0625 123.311 -7.17773 102.821 6.86719 c 0
 86.5137 18.0459 73.1943 44.3965 106.872 93.4307 c 0
 190.136 214.653 788.898 1132.97 882.801 1285.44 c 0
EndSplineSet
EndChar

StartChar: equal
Encoding: 61 61 75
Width: 1116
VWidth: 0
Flags: HW
HStem: 263 136<62.7513 1042.08> 617 136<68.7513 1048.08>
LayerCount: 2
Fore
SplineSet
1013.88 636.994 m 0
 835.236 641.009 272.843 643.019 125.885 638.992 c 0
 120.732 638.852 115.896 638.937 111.368 639.218 c 0
 61.2842 642.329 49.7461 666.503 51.0967 686.576 c 0
 52.8174 712.146 78.0791 742.171 123.047 739.049 c 0
 269.106 728.906 865.843 718.746 1011.39 733.097 c 0
 1013.17 733.272 1014.92 733.342 1016.63 733.315 c 0
 1046.19 732.851 1072 700.537 1071.4 672.909 c 0
 1071.02 655.313 1061.7 635.92 1013.88 636.994 c 0
1007.88 282.995 m 0
 829.237 287.009 266.843 289.018 119.885 284.992 c 0
 114.732 284.852 109.896 284.937 105.368 285.218 c 0
 55.2842 288.329 43.7461 312.502 45.0967 332.576 c 0
 46.8174 358.145 72.0781 388.172 117.047 385.048 c 0
 263.106 374.906 859.843 364.746 1005.39 379.097 c 0
 1007.17 379.272 1008.92 379.342 1010.63 379.315 c 0
 1040.19 378.851 1066 346.538 1065.4 318.909 c 0
 1065.02 301.314 1055.7 281.92 1007.88 282.995 c 0
EndSplineSet
EndChar

StartChar: question
Encoding: 63 63 76
Width: 900
VWidth: 0
Flags: HW
HStem: 1296 123<57.0418 556.299>
LayerCount: 2
Fore
SplineSet
532.306 97.5107 m 0
 533.83 105.893 538.233 114.117 545.111 121.359 c 0
 569.189 146.709 614.312 152.023 634.811 132.525 c 0
 641.64 126.014 646.865 117.422 650.219 107.418 c 0
 662.786 69.9287 646.257 24.9639 616.232 14.9551 c 1
 609.084 12.5293 601.973 12.0879 594.464 13.3301 c 0
 559.592 19.1006 526.302 62.6865 532.306 97.5107 c 0
357.309 396.54 m 0
 285.491 433.884 269.229 509.102 305.255 576.581 c 0
 397.204 748.805 600.485 902.803 699.115 1032.92 c 0
 727.129 1069.88 746.914 1103.92 757.871 1135.96 c 0
 788.671 1226.05 742.257 1291.72 638.017 1326.95 c 0
 488.427 1377.5 248.75 1343.93 105.727 1315.62 c 0
 65.2227 1307.6 48.7432 1326.6 45.5723 1344.58 c 0
 42.1104 1364.22 53.6338 1391.86 96.0664 1399.3 c 0
 304.502 1435.85 498.479 1427.91 638.279 1404.28 c 0
 700.103 1393.83 750.104 1372.25 786.185 1343 c 0
 876.198 1270.03 889.518 1141.62 762.082 984.604 c 0
 644.904 840.223 477.578 697.727 398.279 559.979 c 0
 356.997 488.269 406.958 445.05 452.19 413.581 c 0
 480.519 393.877 480.362 383.319 480.362 383.319 c 1
 479.034 379.599 426.97 360.317 357.309 396.54 c 0
EndSplineSet
EndChar

StartChar: exclam
Encoding: 33 33 77
Width: 406
VWidth: 0
Flags: HW
VStem: 120.139 136.05<915.546 1427.26> 136 140.013<334.328 857.24>
LayerCount: 2
Fore
SplineSet
153.693 98.5117 m 0
 155.216 106.889 159.621 115.117 166.499 122.359 c 0
 190.576 147.709 235.699 153.024 256.198 133.525 c 0
 263.027 127.014 268.253 118.421 271.606 108.417 c 0
 284.173 70.9277 267.642 25.9619 237.626 15.958 c 1
 230.465 13.5283 223.364 13.0879 215.852 14.3311 c 0
 180.98 20.1016 147.688 63.6865 153.693 98.5117 c 0
140.122 1385.03 m 0
 139.905 1390.27 139.984 1395.08 140.309 1399.45 c 0
 143.102 1437.15 161.008 1444.55 180.265 1443.11 c 0
 209.158 1440.96 238.616 1414.06 236.252 1384.36 c 0
 224.651 1238.58 243.158 538.106 256.091 391.88 c 0
 256.336 389.108 256.451 386.42 256.447 383.812 c 0
 256.394 341.737 225.879 318.607 201.039 318.796 c 0
 181.269 318.945 155.492 333.346 155.999 392.83 c 0
 157.251 539.704 147.52 1206.26 140.122 1385.03 c 0
EndSplineSet
EndChar

StartChar: parenleft
Encoding: 40 40 78
Width: 660
VWidth: 0
Flags: HW
HStem: -300 109<553.648 688.605> 1394 106<526.116 637.169>
LayerCount: 2
Fore
SplineSet
608.793 1412.72 m 0
 341.396 1325.66 74.3066 1011 110.963 538.453 c 0
 143.848 114.527 360.928 -142.418 673.646 -210.542 c 0
 692.217 -214.587 696.729 -225.934 693.166 -242.151 c 0
 688.139 -265.041 664.707 -287.843 631.202 -280.468 c 0
 322.754 -212.568 76.3018 39.999 33.834 547.667 c 0
 -7.70508 1044.23 295.858 1408.34 587.708 1480.59 c 0
 617.778 1488.03 626.945 1476.96 630.992 1464.95 c 0
 637.749 1444.88 625.865 1418.28 608.793 1412.72 c 0
EndSplineSet
EndChar

StartChar: parenright
Encoding: 41 41 79
Width: 680
VWidth: 0
Flags: HW
HStem: -294 109<41.0286 161.595> 1393 108<-20.807 100.827>
LayerCount: 2
Fore
SplineSet
6.15625 1412.25 m 0
 -8.96973 1416.57 -19.9629 1437.17 -16.3096 1457.24 c 0
 -13.4014 1473.23 -3.34473 1487.56 30.0674 1481.34 c 0
 323.153 1426.76 603.127 1045.8 628.769 640.737 c 0
 658.354 173.394 403.29 -207.364 98.4287 -274.468 c 0
 64.9258 -281.843 41.4961 -259.041 36.4668 -236.151 c 0
 32.9043 -219.933 37.4199 -208.586 55.9863 -204.541 c 0
 372.359 -135.627 582.144 229.169 551.674 637.488 c 0
 524.375 1003.31 289.688 1331.25 6.15625 1412.25 c 0
EndSplineSet
EndChar

StartChar: asterisk
Encoding: 42 42 80
Width: 687
VWidth: 0
Flags: HW
HStem: 1228 140<62.7476 194.642 484.604 653.236>
LayerCount: 2
Fore
SplineSet
436.75 1221.55 m 0
 464.447 1185.05 492.26 1149.9 519.625 1117.17 c 0
 540.471 1092.24 529.76 1049.09 506.151 1032.54 c 0
 492.029 1022.64 471.055 1018.63 443.621 1058.35 c 0
 412.869 1102.9 383.573 1144.17 355.195 1183.29 c 0
 348.8 1192.11 336.082 1194.14 327.264 1187.74 c 0
 325.484 1186.45 322.724 1183.16 322.724 1183.16 c 0
 296.025 1145.74 270.666 1108.6 247.49 1072.62 c 0
 229.889 1045.29 185.511 1042.68 162.683 1060.29 c 0
 149.028 1070.82 138.951 1089.65 168.717 1127.67 c 0
 193.382 1159.17 216.585 1189.39 238.688 1218.66 c 0
 245.252 1227.35 243.473 1240.11 234.779 1246.67 c 0
 231.099 1249.45 225.612 1250.79 222.24 1250.7 c 0
 188.062 1249.87 154.141 1248.93 119.922 1247.99 c 0
 115.613 1247.88 111.524 1247.91 107.652 1248.09 c 0
 56.0332 1250.45 44.1113 1274.53 45.0479 1294.14 c 0
 46.2617 1319.57 71.6084 1350.5 117.393 1348.03 c 0
 142.364 1346.68 167.935 1345.51 193.885 1344.52 c 0
 204.771 1344.11 214.215 1352.87 214.628 1363.75 c 0
 214.806 1368.43 213.033 1373.38 210.53 1376.66 c 0
 196.268 1395.31 182.002 1413.91 167.649 1432.63 c 0
 165.027 1436.05 162.659 1439.38 160.532 1442.62 c 0
 132.172 1485.82 144.676 1509.59 161.107 1520.33 c 0
 182.418 1534.27 222.335 1531.87 247.19 1493.35 c 0
 271.23 1456.08 296.812 1417.59 323.336 1378.98 c 0
 329.504 1370 342.165 1367.65 351.146 1373.81 c 0
 353.039 1375.12 355.597 1377.98 356.087 1378.66 c 0
 385.857 1420.27 414.666 1461.14 443.877 1502.54 c 0
 446.361 1506.06 448.84 1509.31 451.301 1512.31 c 0
 484.095 1552.24 510.512 1547.38 525.659 1534.89 c 0
 545.303 1518.69 554.906 1479.87 525.522 1444.68 c 0
 506.907 1422.38 487.99 1399.29 469.013 1375.68 c 0
 462.19 1367.18 463.585 1354.38 472.078 1347.56 c 0
 476.006 1344.4 482.863 1343.08 485.273 1343.16 c 0
 518.352 1344.27 550.695 1345.88 581.86 1348.05 c 0
 614.282 1350.31 642.943 1316.33 642.504 1287.5 c 0
 642.241 1270.25 633.188 1250.91 584.919 1251.99 c 0
 538.544 1253.04 494.736 1253.54 452.73 1253.64 c 0
 441.837 1253.67 432.708 1244.58 432.683 1233.69 c 0
 432.673 1229.17 435.174 1223.63 436.75 1221.55 c 0
EndSplineSet
EndChar

StartChar: numbersign
Encoding: 35 35 81
Width: 1084
VWidth: 0
Flags: HW
HStem: 444.14 125.681<-73.6812 128.851 278.333 630.2 779.111 1079.89> 900.058 128.292<-33.6813 204.477 351.583 705.757 852.519 1119.89>
LayerCount: 2
Fore
SplineSet
298.799 1365.67 m 0
 299.551 1370.94 300.52 1375.74 301.658 1380.09 c 0
 312.075 1419.96 334.496 1425.21 354.524 1419.93 c 0
 380.197 1413.17 400.165 1387.09 392.93 1360.16 c 0
 380.967 1315.65 358.424 1190.38 331.857 1031.65 c 0
 329.858 1019.71 339.301 1008.46 351.407 1008.35 c 0
 472.093 1007.29 606.651 1007.11 726.336 1008.07 c 0
 736.34 1008.15 744.509 1016.15 745.919 1024.88 c 0
 771.272 1181.81 791.639 1310.57 799.399 1364.93 c 0
 800.15 1370.2 801.12 1375 802.259 1379.35 c 0
 812.676 1419.22 835.096 1424.47 855.125 1419.19 c 0
 880.797 1412.43 900.765 1386.35 893.529 1359.42 c 0
 881.619 1315.1 859.217 1190.71 832.794 1032.93 c 0
 830.604 1019.86 842.143 1009.44 852.872 1009.63 c 0
 940.474 1011.18 1009.72 1013.52 1045.56 1017.06 c 0
 1047.35 1017.23 1049.09 1017.3 1050.81 1017.27 c 0
 1080.29 1016.8 1106.06 984.638 1105.57 957.024 c 0
 1105.25 939.344 1095.97 919.874 1048.05 920.95 c 0
 1002.95 921.964 925.222 922.398 831.548 922.425 c 0
 821.562 922.428 813.256 914.574 811.801 905.637 c 0
 794.379 798.561 776.275 683.915 759.345 574.143 c 0
 757.302 560.9 769.282 550.95 779.4 551.097 c 0
 882.639 552.593 965.296 555.082 1005.56 559.053 c 0
 1007.35 559.229 1009.1 559.298 1010.82 559.271 c 0
 1040.29 558.799 1066.06 526.639 1065.57 499.025 c 0
 1065.25 481.344 1055.97 461.874 1008.05 462.951 c 0
 957.949 464.077 867.525 464.489 759.756 464.419 c 0
 749.801 464.412 741.393 456.664 739.993 447.406 c 0
 711.498 258.806 689.356 103.014 684.479 51.793 c 0
 684.216 49.0234 683.839 46.3584 683.361 43.7949 c 0
 675.646 2.43457 641.43 -14.752 617.04 -10.043 c 0
 597.627 -6.2959 574.903 12.5586 586.234 70.9551 c 0
 595.793 120.224 620.44 264.384 649.927 440.843 c 0
 652.133 454.046 640.309 464.175 630.131 464.14 c 0
 506.336 463.712 373.321 462.836 258.474 461.771 c 0
 248.493 461.679 240.243 453.766 238.883 444.758 c 0
 210.635 257.671 188.729 103.447 183.881 52.5283 c 0
 183.617 49.7588 183.24 47.0938 182.762 44.5303 c 0
 175.047 3.16992 140.83 -14.0166 116.439 -9.30762 c 0
 97.0264 -5.56055 74.3037 13.2939 85.6338 71.6904 c 0
 95.1133 120.544 119.419 262.674 148.577 437.092 c 0
 150.771 450.217 139.122 460.518 128.604 460.388 c 0
 63.9365 459.588 12.7949 458.753 -16.5469 457.948 c 0
 -21.7002 457.808 -26.5371 457.893 -31.0645 458.174 c 0
 -81.1494 461.286 -92.6865 485.458 -91.3359 505.532 c 0
 -89.6152 531.101 -64.3545 561.128 -19.3857 558.004 c 0
 13.207 555.74 73.71 553.893 150.465 552.473 c 0
 160.403 552.289 169.011 559.82 170.565 569.198 c 0
 188.329 676.352 206.859 789.089 224.217 895.594 c 0
 226.364 908.772 214.572 918.926 204.251 918.809 c 0
 122.79 917.89 57.9941 916.895 23.4521 915.948 c 0
 18.2998 915.808 13.4619 915.893 8.93457 916.174 c 0
 -41.1494 919.283 -52.6865 943.459 -51.3359 963.532 c 0
 -49.6143 989.102 -24.3525 1019.13 20.6152 1016.01 c 0
 57.9854 1013.41 132.236 1011.34 225.432 1009.87 c 0
 235.365 1009.71 243.969 1017.25 245.492 1026.68 c 0
 270.771 1183.13 291.057 1311.43 298.799 1365.67 c 0
705.701 922.252 m 0
 583.269 921.907 448.843 921.091 330.264 920.057 c 0
 320.256 919.97 312.108 911.948 310.697 903.268 c 0
 293.373 796.704 275.387 682.782 258.566 573.719 c 0
 256.699 561.611 266.565 550.792 278.124 550.672 c 0
 395.55 549.447 529.399 549.084 651.239 549.821 c 0
 661.248 549.882 669.412 557.888 670.849 566.55 c 0
 688.941 675.675 707.84 790.672 725.496 899.036 c 0
 727.656 912.289 715.697 922.28 705.701 922.252 c 0
EndSplineSet
EndChar

StartChar: less
Encoding: 60 60 82
Width: 918
VWidth: 0
Flags: HW
LayerCount: 2
Fore
SplineSet
781.053 134.994 m 0
 592.491 197.52 295.89 326.672 112.989 420.108 c 0
 99.3242 427.089 87.7637 439.81 80.0439 456.098 c 0
 59.6953 499.034 69.1025 556.126 116.348 578.175 c 0
 340.928 682.979 549.33 770.722 792.879 861.559 c 0
 810.555 868.151 837.123 853.355 845.771 830.734 c 0
 851.473 815.825 850.645 800.393 820.758 788.983 c 0
 579.398 696.84 393.643 617.531 187.085 516.256 c 0
 177.304 511.46 173.137 499.275 177.933 489.494 c 0
 179.734 485.818 183.275 482.444 186.096 480.86 c 0
 333.966 397.812 620.899 271.814 816.134 213.145 c 0
 846.769 203.938 851.105 184.536 845.161 166.195 c 0
 837.811 143.516 813.844 124.12 781.053 134.994 c 0
EndSplineSet
EndChar

StartChar: greater
Encoding: 62 62 83
Width: 918
VWidth: 0
Flags: HW
LayerCount: 2
Fore
SplineSet
137.822 122.929 m 0
 104.673 111.937 79.7783 131.677 72.7754 154.657 c 0
 67.2637 172.745 71.7617 191.748 102.041 200.848 c 0
 297.275 259.519 584.209 385.514 732.079 468.562 c 0
 741.577 473.896 745.058 486.296 739.724 495.794 c 0
 737.719 499.363 733.994 502.533 731.09 503.958 c 0
 524.534 605.231 338.779 684.553 97.418 776.685 c 0
 67.709 788.024 66.7871 803.312 72.2578 818.05 c 0
 80.6797 840.741 107.506 855.896 125.296 849.262 c 0
 368.849 758.437 577.248 670.682 801.827 565.876 c 0
 819.322 557.712 830.965 545.576 838.407 531.172 c 0
 860.645 488.137 842.078 426.656 805.187 407.811 c 0
 622.286 314.373 326.193 185.389 137.822 122.929 c 0
EndSplineSet
EndChar

StartChar: underscore
Encoding: 95 95 84
Width: 1085
VWidth: 0
Flags: HW
HStem: -139.346 140<-57.6812 1129.72>
LayerCount: 2
Fore
SplineSet
1089.45 -116.005 m 0
 910.521 -111.98 146.32 -115.33 -0.547852 -119.354 c 0
 -5.7002 -119.494 -10.5371 -119.409 -15.0645 -119.128 c 0
 -65.1494 -116.017 -76.6865 -91.8438 -75.3359 -71.7705 c 0
 -73.6152 -46.2012 -48.3535 -16.1738 -3.38574 -19.2969 c 0
 143.225 -29.4785 941.313 -34.2607 1086.96 -19.9033 c 0
 1088.74 -19.7275 1090.49 -19.6582 1092.2 -19.6846 c 0
 1121.75 -20.1494 1147.56 -52.4609 1146.97 -80.0908 c 0
 1146.59 -97.6865 1137.27 -117.08 1089.45 -116.005 c 0
EndSplineSet
EndChar

StartChar: bar
Encoding: 124 124 85
Width: 420
VWidth: 0
Flags: HW
VStem: 140.074 140.001<-236.681 1535.72>
LayerCount: 2
Fore
SplineSet
162.068 1495.45 m 0
 161.951 1500.7 162.122 1505.5 162.528 1509.87 c 0
 166.029 1547.5 184.076 1554.57 203.301 1552.77 c 0
 232.149 1550.06 261.094 1522.62 258.17 1492.96 c 0
 243.761 1346.78 249.906 -35.2627 260.123 -182.386 c 0
 260.315 -185.161 260.38 -187.852 260.327 -190.459 c 0
 259.479 -232.524 228.535 -255.074 203.703 -254.418 c 0
 183.938 -253.895 158.438 -239.011 160.066 -179.547 c 0
 164.096 -32.4287 166.096 1316.41 162.068 1495.45 c 0
EndSplineSet
EndChar

StartChar: ampersand
Encoding: 38 38 86
Width: 1097
VWidth: 0
Flags: HW
LayerCount: 2
Fore
SplineSet
423.349 914.536 m 0
 517.903 985.266 607.081 1023.69 663.996 1115.46 c 0
 678.299 1138.52 684.238 1164.46 683.668 1190.08 c 0
 681.731 1277 605.737 1369.16 510.546 1367 c 0
 476.139 1366.21 442.472 1358.25 411.686 1345.2 c 0
 316.687 1304.94 238.299 1209.44 277.594 1116.98 c 0
 311.148 1038.02 354.603 994.902 393.7 921.181 c 0
 399.385 910.461 413.728 907.339 423.349 914.536 c 0
884.23 183.155 m 0
 933.897 119.007 985.825 53.7881 1039.98 -12.6367 c 0
 1054.05 -29.8984 1048.19 -50.5322 1030.4 -65.0889 c 0
 1013.32 -79.0674 995.438 -79.6016 984.062 -65.4629 c 0
 931.255 0.170898 879.257 66.7637 828.68 133.485 c 0
 821.368 143.131 807.504 142.534 800.653 137.337 c 0
 722.801 78.2734 642.521 36.4062 565.216 19.54 c 0
 491.792 3.52148 418.946 -3.97168 352.637 0.914062 c 0
 168.553 14.4795 29.4639 119.22 52.4238 425.706 c 0
 66.4951 613.579 191.27 735.787 332.857 846.081 c 0
 340.737 852.219 342.446 863.522 338.121 871.444 c 0
 275.631 985.886 224.298 1052.34 201.115 1127.68 c 0
 194.076 1150.56 191.487 1173.01 192.78 1194.78 c 0
 200.312 1321.66 345.054 1435.47 548.782 1423.04 c 0
 569.226 1421.79 588.295 1417.77 605.964 1411.45 c 0
 719.312 1370.92 777.643 1232.79 736.185 1117.78 c 0
 697.498 1010.46 582.817 953.062 451.357 851.533 c 0
 443.509 845.471 441.403 834.223 446.209 825.797 c 0
 546.064 650.688 667.507 470.445 809.454 281.23 c 0
 816.812 271.425 831.443 270.941 839.593 279.089 c 0
 880.589 320.075 921.249 364.832 962.392 410.874 c 0
 984.108 435.175 1006.12 431.93 1021.1 420.149 c 0
 1037.5 407.254 1043.95 384.977 1027.81 364.628 c 0
 983.581 308.861 935.957 256.457 886.369 209.993 c 0
 878.756 202.859 878.301 190.814 884.23 183.155 c 0
362.446 780.698 m 0
 240.195 678.513 130.314 559.005 120.514 392.374 c 0
 117.564 342.223 122.295 297.057 134.192 257.328 c 0
 184.789 88.3799 359.791 31.8438 572.265 96.0547 c 0
 636.68 115.523 696.629 153.091 754.529 200.947 c 0
 762.983 207.935 763.526 220.572 757.893 228.223 c 0
 617.146 419.35 490.502 608.348 392.526 775.468 c 0
 385.743 787.038 370.166 787.15 362.446 780.698 c 0
EndSplineSet
EndChar

StartChar: asciicircum
Encoding: 94 94 87
Width: 703
VWidth: 0
Flags: HW
LayerCount: 2
Fore
SplineSet
52.668 1044.73 m 0
 116.229 1150.99 194.606 1266.58 284 1430.42 c 0
 291.48 1444.13 302.193 1454.76 314.568 1461.9 c 0
 348.692 1481.58 395.832 1475.81 424.053 1426.12 c 0
 508.241 1277.9 580.84 1156.71 653.35 1035.72 c 0
 660.687 1023.48 654.868 1005.25 635.105 993.888 c 0
 616.167 983.002 591.865 982.521 573.859 1013.94 c 0
 522.292 1103.93 444.533 1220.53 368.898 1355.76 c 0
 363.581 1365.27 351.188 1368.77 341.681 1363.46 c 0
 338.376 1361.61 334.558 1356.78 333.979 1355.75 c 0
 253.241 1211.11 190.57 1109.65 129.838 1018.05 c 0
 108.039 985.174 77.0859 984.105 59.7139 994.344 c 0
 45.8018 1002.54 36.8623 1018.31 52.668 1044.73 c 0
EndSplineSet
EndChar

StartChar: at
Encoding: 64 64 88
Width: 1471
VWidth: 0
Flags: HW
HStem: -249.256 118.182<500.474 728.8>
LayerCount: 2
Fore
SplineSet
1188.96 143.424 m 0
 1193.8 143.093 1198.49 143.146 1203.24 143.562 c 0
 1314.79 153.363 1362.37 344.812 1344.92 534.853 c 0
 1318.84 819.073 1137.51 1160.52 686.962 1118.79 c 0
 237.888 1077.21 120.154 688.938 123.207 429.648 c 0
 127.052 103.082 427.166 -151.074 672.877 -151.074 c 0
 720.458 -151.073 739.603 -176.784 740.122 -191.875 c 0
 740.536 -203.883 729.404 -227.396 671.432 -229.267 c 0
 410.439 -237.685 74.2383 -1.94141 47.1611 404.214 c 0
 22.6377 772.073 202.129 1155.63 699.94 1198.96 c 0
 728.153 1201.41 755.377 1202.6 781.638 1202.6 c 0
 1254.16 1202.63 1426.85 817.764 1426.88 484.056 c 0
 1426.9 232.801 1327.91 36 1209.21 36 c 0
 1110.55 36 1058.07 107.197 1030.09 227.896 c 0
 1027.63 238.508 1016.71 245.322 1006.09 242.863 c 0
 1000.48 241.562 995.401 237.094 993.226 233.267 c 0
 919.614 103.839 822.902 38.9502 725.247 17.0078 c 0
 530.903 -26.6592 330.54 101.136 296.213 254.372 c 0
 227.279 562.088 400.995 863.867 703.371 936.554 c 0
 905.469 985.135 972.05 924.864 1006.16 840.506 c 0
 1009.58 832.033 1008.22 822.457 1001.43 812.363 c 0
 994.212 801.641 999.5 786.99 1010.7 782.585 c 0
 1019.75 779.022 1027.51 771.748 1028.65 752.805 c 0
 1048.03 429.111 1087.15 150.382 1188.96 143.424 c 0
942.483 789.537 m 0
 919.117 795.285 919.469 873.163 755.654 865.356 c 0
 720.044 863.66 684.146 853.58 649.393 837.179 c 0
 462.395 748.929 291.838 468.337 400.531 238.819 c 0
 424.733 187.713 463.384 147.501 510.098 121.815 c 0
 639.677 50.5674 826.167 93.0752 940.061 301.155 c 0
 985.528 384.223 973.773 571.126 950.396 730.895 c 0
 948.609 743.103 950.845 752.59 955.186 760.397 c 0
 960.479 769.918 956.945 782.303 947.425 787.596 c 0
 945.89 788.449 942.717 789.479 942.483 789.537 c 0
EndSplineSet
EndChar

StartChar: singlestorya
Encoding: 65536 -1 89
Width: 975
VWidth: 0
Flags: HW
LayerCount: 2
Fore
SplineSet
751.833 270.365 m 0
 681.542 117.719 577.628 42.6133 472.08 19.2041 c 0
 287.768 -21.6738 95.6543 95.9512 60.0195 257.313 c 0
 -8.00586 565.33 164.826 866.877 467.164 939.555 c 0
 669.265 988.137 735.842 927.863 769.947 843.506 c 0
 773.373 835.029 772.012 825.451 765.224 815.361 c 0
 758.009 804.639 763.298 789.989 774.497 785.585 c 0
 783.549 782.025 791.301 774.752 792.436 755.805 c 0
 812.415 422.154 831.711 312.925 955.845 129.779 c 0
 971.172 107.166 972.541 51.0771 960.141 27.251 c 0
 954.471 16.3574 953.183 17.8027 947.758 20.6758 c 0
 889.798 51.3623 848.963 147.389 787.929 270.863 c 0
 783.102 280.629 770.902 284.757 761.137 279.93 c 0
 756.97 277.87 753.39 273.746 751.833 270.365 c 0
706.277 792.537 m 0
 682.908 798.286 683.266 876.156 519.449 868.356 c 0
 483.839 866.661 447.939 856.579 413.187 840.179 c 0
 226.188 751.932 55.6328 471.336 164.324 241.818 c 0
 188.526 190.713 227.178 150.5 273.892 124.814 c 0
 403.471 53.5674 589.962 96.0742 703.856 304.155 c 0
 749.323 387.223 737.567 574.126 714.189 733.896 c 0
 712.403 746.104 714.637 755.59 718.979 763.396 c 0
 724.273 772.917 720.74 785.301 711.22 790.596 c 0
 709.685 791.449 706.514 792.479 706.277 792.537 c 0
EndSplineSet
EndChar

StartChar: bracketleft
Encoding: 91 91 90
Width: 606
VWidth: 0
Flags: HW
HStem: -325 126<186 586.637> 1496 128<179.133 567.642>
VStem: 48 138<-202.91 1496>
LayerCount: 2
Fore
SplineSet
65.9678 1505.66 m 0
 65.208 1539.51 63.0039 1600.59 158.713 1604.01 c 0
 241.002 1606.94 475.519 1598.15 535.285 1596.01 c 0
 580.686 1594.39 588.724 1574.1 587.729 1557.96 c 0
 586.4 1536.39 566.262 1513.33 537.308 1515.23 c 0
 413.378 1523.36 178.852 1516 178.516 1515.99 c 0
 167.551 1515.65 159.382 1505.99 159.14 1496.51 c 0
 149.973 1138.45 157.085 -62.4551 166.045 -200.344 c 1
 169.001 -242.882 434.35 -233.498 557.708 -222.928 c 0
 573.525 -221.571 589.87 -240.146 589.274 -269.796 c 0
 588.791 -293.913 578.133 -309.569 554.476 -309.006 c 0
 470.993 -307.018 282.541 -296.937 138.875 -305.031 c 0
 86.8779 -307.962 68 -280.561 68 -199 c 0
 68 -52.8164 69.9922 1326.71 65.9678 1505.66 c 0
EndSplineSet
EndChar

StartChar: bracketright
Encoding: 93 93 91
Width: 606
VWidth: 0
Flags: HW
HStem: -327 126<19.5668 420.204> 1495.27 120.73<38.5616 427.071>
VStem: 420.204 138<-200.91 1496>
LayerCount: 2
Fore
SplineSet
540.209 1504.45 m 0
 536.194 1325.63 538.206 -50.8164 538.204 -197 c 0
 538.204 -203.991 538.031 -210.654 537.679 -216.972 c 0
 533.982 -283.211 515.498 -305.746 467.329 -303.031 c 0
 323.662 -294.936 135.211 -305.018 51.7285 -307.005 c 0
 26.2725 -307.611 14.8496 -288.275 17.1533 -260.842 c 0
 19.3887 -234.214 33.9023 -219.676 48.4961 -220.927 c 0
 54.2686 -221.422 60.1777 -221.879 66.2051 -222.302 c 0
 190.139 -230.988 437.285 -239.756 440.159 -198.339 c 1
 449.12 -60.4648 456.247 1138.46 447.064 1496.51 c 0
 446.78 1507.59 437.03 1515.55 427.848 1515.99 c 1
 419.003 1516.26 190.989 1523.23 68.8955 1515.23 c 0
 39.6074 1513.31 19.3691 1536.94 18.4385 1558.65 c 0
 17.7598 1574.5 26.0068 1594.41 70.917 1596.01 c 0
 130.687 1598.14 365.202 1606.95 447.49 1604.01 c 0
 543.205 1600.59 540.969 1538.3 540.209 1504.45 c 0
EndSplineSet
EndChar

StartChar: grave
Encoding: 96 96 92
Width: 485
VWidth: 0
Flags: HW
LayerCount: 2
Fore
SplineSet
53.793 1401.21 m 0
 39.7842 1414.34 42.3408 1435.7 62.1465 1453.62 c 0
 81.7666 1471.36 109.666 1476.97 133.906 1450.14 c 0
 242.858 1329.55 327.97 1236.45 427.051 1130.35 c 0
 446.656 1109.36 441.857 1095.68 435.606 1089.08 c 0
 426.836 1079.84 399.281 1072.02 365.517 1104.43 c 0
 264.512 1201.37 195.437 1268.52 53.793 1401.21 c 0
EndSplineSet
EndChar

StartChar: braceleft
Encoding: 123 123 93
Width: 753
VWidth: 0
Flags: HW
HStem: -225 138<391.88 697.682> 606 147<53.5045 206.536> 1503 129<390.989 699.015>
LayerCount: 2
Fore
SplineSet
644.5 1522.66 m 0
 544.942 1541.32 409.999 1561.09 361.422 1447.86 c 1
 236.646 1154.09 469.323 911.481 274.822 691.239 c 0
 267.253 682.667 269.26 669.604 276.421 663.146 c 0
 447.144 509.21 228.265 235.262 358.851 -32.793 c 1
 417.065 -151.112 560.446 -125.419 665.328 -106.688 c 0
 690.082 -102.269 702.689 -116.929 704.625 -143.007 c 0
 706.905 -173.731 690.07 -202.931 660.389 -205.051 c 0
 497.59 -216.681 362.596 -205.133 282.823 -76.4795 c 1
 175.939 96.8984 277.685 245.859 258.739 463.733 c 0
 251.19 550.544 211.344 636.662 87.8818 625.925 c 0
 69.2109 624.301 48.29 647.978 45.3066 683.911 c 0
 42.7832 714.302 53.7832 731.573 72.4092 733.063 c 0
 155.221 739.688 236.944 756.972 258.234 844.222 c 1
 323.93 1108.33 159.637 1284.51 277.344 1499.37 c 0
 350.68 1632.91 515.758 1648.28 663.102 1612.56 c 0
 702.518 1603.01 711.982 1577.81 708.267 1557.79 c 0
 704.287 1536.34 683.879 1515.27 644.5 1522.66 c 0
EndSplineSet
EndChar

StartChar: braceright
Encoding: 125 125 94
Width: 754
VWidth: 0
Flags: HW
HStem: -229 138<52.1318 366.463> 596 147<548.293 701.309> 1495 129<55.7988 363.906>
LayerCount: 2
Fore
SplineSet
109.796 1514.56 m 0
 71.8379 1507.44 52.1768 1526.86 47.0957 1547.26 c 0
 41.9648 1567.86 50.8281 1594.65 91.7119 1604.56 c 0
 239.071 1640.28 404.311 1624.87 477.447 1491.41 c 0
 595.363 1275.53 430.036 1099.32 496.59 834.181 c 1
 518.08 747.018 599.578 729.691 682.404 723.063 c 0
 701.032 721.573 712.03 704.303 709.508 673.911 c 0
 706.531 638.053 685.558 614.306 666.932 615.926 c 0
 543.473 626.66 503.622 540.543 496.075 453.732 c 0
 477.12 235.717 579.962 84.9473 472.095 -86.3125 c 1
 390.812 -214.703 252.924 -220.729 89.4248 -209.051 c 0
 57.6016 -206.777 40.3652 -172.526 45.9834 -140.594 c 0
 49.8662 -118.523 61.3232 -106.553 84.4844 -110.688 c 0
 188.186 -129.207 336.58 -162.725 395.913 -42.8945 c 1
 528.871 224.11 307.752 499.289 478.393 653.146 c 0
 486.886 660.805 486.374 674.012 479.991 681.239 c 0
 285.51 901.461 518.343 1145.14 393.407 1439.82 c 1
 345.024 1553.11 209.493 1533.26 109.796 1514.56 c 0
EndSplineSet
EndChar

StartChar: asciitilde
Encoding: 126 126 95
Width: 1227
VWidth: 0
Flags: HW
LayerCount: 2
Fore
SplineSet
1143.26 527.38 m 0
 989.569 399.471 817.658 407.22 630.926 487.378 c 0
 430.103 573.584 257.126 589.44 86.8662 458.87 c 0
 67.7168 444.187 60.0566 449.476 53.6338 458.327 c 0
 39.7734 477.432 39.4873 527.074 80.3086 556.413 c 0
 247.455 676.548 436.863 666.069 630.351 585.535 c 0
 806.712 512.13 950.354 491.516 1150.13 624.584 c 0
 1171.61 638.893 1175.79 632.566 1177.14 630.988 c 0
 1186.94 619.49 1184.85 562.006 1143.26 527.38 c 0
EndSplineSet
EndChar

StartChar: exclamdown
Encoding: 161 161 96
Width: 406
VWidth: 0
Flags: HW
VStem: 137.99 136.05<128.005 639.723> 153.851 140.012<-453.213 69.6993>
LayerCount: 2
Fore
SplineSet
132.733 908.514 m 0
 134.257 916.889 138.662 925.117 145.539 932.359 c 0
 169.616 957.709 214.74 963.024 235.238 943.525 c 0
 242.067 937.014 247.293 928.421 250.646 918.417 c 0
 263.214 880.928 246.684 835.962 216.663 825.956 c 1
 209.51 823.529 202.402 823.088 194.893 824.33 c 0
 160.021 830.102 126.729 873.689 132.733 908.514 c 0
157.973 597.484 m 0
 157.756 602.73 157.836 607.537 158.16 611.912 c 0
 160.951 649.605 178.859 657.014 198.116 655.573 c 0
 227.009 653.413 256.467 626.524 254.103 596.815 c 0
 242.501 451.038 261.012 -249.437 273.94 -395.662 c 0
 274.186 -398.434 274.301 -401.122 274.297 -403.73 c 0
 274.243 -445.805 243.729 -468.934 218.89 -468.746 c 0
 199.119 -468.596 173.343 -454.195 173.851 -394.711 c 0
 175.103 -247.836 165.362 418.721 157.973 597.484 c 0
EndSplineSet
EndChar

StartChar: cent
Encoding: 162 162 97
Width: 875
VWidth: 0
Flags: HW
VStem: 397 136.05<1000.73 1180.06> 422.482 140.013<-231.42 -29.0901>
LayerCount: 2
Fore
SplineSet
416.983 1137.83 m 0
 416.767 1143.07 416.847 1147.88 417.17 1152.25 c 0
 419.963 1189.95 437.869 1197.35 457.126 1195.91 c 0
 486.02 1193.75 515.478 1166.86 513.113 1137.16 c 0
 501.477 990.917 529.611 -27.332 542.573 -173.868 c 0
 542.818 -176.639 542.933 -179.328 542.93 -181.936 c 0
 542.875 -224.01 512.361 -247.141 487.521 -246.952 c 0
 467.751 -246.803 441.974 -232.403 442.481 -172.919 c 0
 443.736 -25.7812 424.382 959.047 416.983 1137.83 c 0
710.623 842.15 m 0
 659.495 872.825 521.655 903.308 412.518 870.135 c 0
 397.344 865.523 382.582 859.816 368.293 853.128 c 0
 182.049 765.961 71.4443 510.916 163.23 315.497 c 0
 254.658 120.838 475.648 32.9561 775.832 136.085 c 0
 806.961 146.779 822.83 133.543 828.606 117.565 c 0
 835.357 98.8926 828.954 70.916 792.562 57.8184 c 0
 532.352 -35.8242 197.039 -13.5439 79.0547 288.89 c 0
 74.0977 301.597 69.6787 314.564 65.7998 327.742 c 0
 -4.51855 566.674 103.462 869.14 384.052 951.429 c 0
 524.992 992.764 725.13 944.778 763.569 916.825 c 0
 785.975 900.532 786.877 876.708 775.489 857.407 c 0
 763.284 836.723 739.313 824.937 710.623 842.15 c 0
EndSplineSet
EndChar

StartChar: Euro
Encoding: 8364 8364 98
Width: 1378
VWidth: 0
Flags: HW
HStem: 482 136<79.7516 835.081> 836 136<62.7516 879.081>
LayerCount: 2
Fore
SplineSet
844.881 855.995 m 0
 666.381 860.007 266.736 862.013 119.886 857.993 c 0
 114.733 857.852 109.896 857.937 105.369 858.218 c 0
 55.2842 861.328 43.7461 885.503 45.0977 905.576 c 0
 46.8184 931.145 72.0781 961.172 117.047 958.048 c 0
 262.66 947.938 697.146 937.776 842.395 952.096 c 0
 844.175 952.271 845.92 952.342 847.635 952.314 c 0
 877.187 951.851 902.998 919.539 902.398 891.909 c 0
 902.018 874.313 892.699 854.921 844.881 855.995 c 0
800.881 501.995 m 0
 622.452 506.005 283.684 508.014 136.886 503.992 c 0
 131.733 503.852 126.896 503.937 122.369 504.218 c 0
 72.2842 507.33 60.7471 531.502 62.0977 551.576 c 0
 63.8174 577.144 89.0791 607.173 134.048 604.048 c 0
 279.438 593.952 653.293 583.791 798.394 598.096 c 0
 800.175 598.271 801.92 598.342 803.635 598.314 c 0
 833.188 597.85 858.996 565.538 858.398 537.909 c 0
 858.018 520.313 848.699 500.921 800.881 501.995 c 0
1052.66 1315.55 m 0
 975.281 1368.62 869.549 1368.93 751.309 1337.33 c 1
 719.014 1328.83 688.173 1317.2 659.092 1302.91 c 0
 333.312 1142.86 216.494 650.946 353.494 373.157 c 0
 363.113 353.645 373.492 335.239 384.576 317.919 c 0
 582.676 8.36035 992.635 57.1084 1278.19 240.143 c 1
 1297.02 252.095 1311.72 246.273 1322.87 231.911 c 0
 1337.59 212.938 1337.4 187.213 1321.29 174.897 c 0
 1257.52 126.207 1187.87 88.0059 1115.54 60.2832 c 0
 774.755 -70.3457 381.476 32.5166 258.119 355.13 c 0
 253.994 365.939 250.109 377.196 246.48 388.858 c 0
 150.562 697.12 239.196 1263.4 701.334 1406.89 c 1
 856.495 1454.71 1033.55 1438.19 1095.42 1392.01 c 1
 1129.11 1366.53 1127.27 1339.34 1116.15 1322.95 c 0
 1104.62 1305.93 1080.53 1296.46 1052.66 1315.55 c 0
EndSplineSet
EndChar

StartChar: yen
Encoding: 165 165 99
Width: 1160
VWidth: 0
Flags: HW
HStem: 307.946 126.889<223.324 573.117 772.874 1164.67> 535.712 126.066<221.324 525.536 862.222 1163.29>
LayerCount: 2
Fore
SplineSet
552.836 25.4443 m 0
 548.836 17.9785 544.628 11.915 540.389 7.03516 c 0
 515.989 -21.0498 485.706 -15.8896 463.744 3.35156 c 0
 442.428 22.0283 437.844 46.0039 452.031 62.042 c 0
 498.69 114.789 549.543 213.012 591.132 299.26 c 0
 595.863 309.072 591.616 321.229 581.804 325.961 c 0
 579.056 327.286 575.523 327.962 572.99 327.946 c 0
 449.014 327.162 338.341 325.834 280.457 324.249 c 0
 275.305 324.107 270.467 324.192 265.94 324.474 c 0
 215.856 327.586 204.318 351.758 205.669 371.832 c 0
 207.39 397.401 232.651 427.429 277.619 424.305 c 0
 343.102 419.756 483.611 416.189 632.312 414.836 c 0
 640.467 414.762 647.815 420.401 650.602 426.341 c 0
 652.164 429.673 653.632 432.78 654.998 435.646 c 0
 657.527 440.946 657.449 447.383 655.217 452.394 c 0
 642.25 481.505 627.605 512.197 611.577 544.069 c 0
 608.153 550.876 600.838 555.124 593.595 555.083 c 0
 460.592 554.316 339.832 552.93 278.458 551.249 c 0
 273.306 551.107 268.468 551.192 263.94 551.474 c 0
 213.856 554.584 202.318 578.759 203.669 598.832 c 0
 205.39 624.4 230.651 654.429 275.619 651.304 c 0
 325.378 647.849 418.191 644.974 525.202 643.185 c 0
 536.094 643.003 545.352 651.955 545.533 662.848 c 0
 545.593 666.392 544.335 670.539 543 672.931 c 0
 393.783 940.238 184.463 1246.12 57.3311 1387.38 c 0
 35.9941 1411.09 44.8838 1451.06 68.2148 1469.66 c 0
 83.6826 1482 103.948 1486.11 128.755 1454.62 c 0
 271.131 1273.92 498.382 926.856 645.055 652.158 c 0
 648.586 645.545 656.033 641.623 662.562 641.579 c 0
 684.448 641.43 706.395 641.331 728.189 641.286 c 0
 736.452 641.269 743.903 646.801 746.731 653.687 c 0
 870.512 955.046 993.209 1282.53 1004.33 1377.68 c 0
 1004.88 1382.37 1005.79 1386.59 1006.99 1390.41 c 0
 1016.53 1420.76 1047.02 1431.68 1075.08 1422.75 c 0
 1102.56 1414 1127.66 1386.11 1109.41 1329.09 c 0
 1076.67 1226.77 962.472 946.325 843.841 669.659 c 0
 839.547 659.647 844.329 647.689 854.341 643.396 c 0
 856.877 642.309 861.518 641.77 862.427 641.779 c 0
 959.758 642.77 1042.67 645.19 1088.96 649.753 c 0
 1090.74 649.929 1092.49 649.998 1094.2 649.971 c 0
 1123.75 649.507 1149.56 617.195 1148.97 589.565 c 0
 1148.59 571.969 1139.27 552.577 1091.45 553.651 c 0
 1026.87 555.103 922.202 555.71 807.753 555.712 c 0
 799.544 555.712 792.19 550.071 789.415 543.697 c 0
 777.688 516.767 766.029 490.134 754.512 463.97 c 0
 752.069 458.419 752.315 451.903 755.134 446.569 c 0
 756.345 444.276 757.575 441.942 758.77 439.682 c 0
 760.92 435.597 762.574 431.689 763.812 427.973 c 0
 766.618 419.542 775.175 414.272 782.832 414.289 c 0
 913.946 414.581 1032.24 416.964 1090.96 422.752 c 0
 1092.74 422.928 1094.49 422.998 1096.2 422.971 c 0
 1125.75 422.507 1151.56 390.195 1150.97 362.565 c 0
 1150.59 344.97 1141.27 325.575 1093.45 326.65 c 0
 1009.88 328.53 859.013 328.995 706.882 328.562 c 0
 698.739 328.538 691.469 322.799 688.764 316.907 c 0
 643.994 219.409 592.745 99.9424 552.836 25.4443 c 0
EndSplineSet
EndChar

StartChar: uni00AD
Encoding: 173 173 100
Width: 650
VWidth: 0
Flags: HW
HStem: 470.189 140<57.7516 593.151>
LayerCount: 2
Fore
SplineSet
552.877 492.585 m 0
 374.51 496.594 260.922 494.183 114.886 490.182 c 0
 109.733 490.041 104.896 490.126 100.368 490.407 c 0
 50.2842 493.52 38.7461 517.69 40.0967 537.766 c 0
 41.8174 563.334 67.0791 593.361 112.047 590.237 c 0
 256.485 580.208 406.523 574.502 550.39 588.687 c 0
 552.171 588.861 553.916 588.932 555.63 588.904 c 0
 585.182 588.44 610.991 556.129 610.394 528.499 c 0
 610.013 510.903 600.694 491.51 552.877 492.585 c 0
EndSplineSet
EndChar

StartChar: macron
Encoding: 175 175 101
Width: 695
VWidth: 0
Flags: HW
HStem: 1330.2 117<59.3846 638.872>
LayerCount: 2
Fore
SplineSet
592.882 1350.19 m 0
 414.331 1354.21 265.882 1350.19 119.886 1346.19 c 0
 113.71 1346.02 107.968 1346.13 102.653 1346.49 c 0
 52.8125 1349.79 44.1719 1370.98 45.0635 1384.13 c 0
 46.3203 1402.68 69.5449 1430.55 117.047 1427.25 c 0
 261.879 1417.18 446.45 1413.11 590.396 1427.3 c 0
 592.465 1427.5 594.492 1427.59 596.481 1427.56 c 0
 627.866 1427.2 650.701 1398.84 650.406 1378.9 c 0
 650.235 1367.39 643.221 1349.06 592.882 1350.19 c 0
EndSplineSet
EndChar

StartChar: degree
Encoding: 176 176 102
Width: 520
VWidth: 0
Flags: HW
LayerCount: 2
Fore
SplineSet
147.721 1412.79 m 0
 115.626 1387.82 98.1621 1351.12 92.749 1313.18 c 0
 80.9932 1230.76 125.351 1130.14 219.268 1117.19 c 0
 232.479 1115.37 245.172 1114.34 257.346 1114.12 c 0
 360.898 1112.3 422.465 1173.39 423.998 1280.71 c 0
 424.603 1323.03 411.999 1358.94 390.73 1386.38 c 0
 334.271 1459.21 221.564 1470.22 147.721 1412.79 c 0
52.4258 1356.01 m 0
 59.6729 1391.62 77.4014 1419.93 102.172 1441.92 c 0
 187.444 1517.62 354.496 1512.13 429.833 1426.77 c 0
 451.132 1402.63 464.603 1372.95 470.93 1340.44 c 0
 493.686 1223.54 421.938 1081.67 311.016 1060.13 c 0
 279.548 1054.02 248.115 1054.24 218.493 1060.23 c 0
 107.064 1082.76 17.9707 1186.72 52.4258 1356.01 c 0
EndSplineSet
EndChar

StartChar: plusminus
Encoding: 177 177 103
Width: 957
VWidth: 0
Flags: HW
HStem: 48.1895 139.999<67.7516 890.151> 470.189 140<67.7516 890.151>
VStem: 423.557 135.976<253.175 842.986>
LayerCount: 2
Fore
SplineSet
848.951 70.6055 m 0
 670.244 74.624 271.495 72.1992 124.885 68.1816 c 0
 119.732 68.041 114.896 68.126 110.368 68.4072 c 0
 60.2832 71.5186 48.7461 95.6914 50.0967 115.765 c 0
 51.8174 141.334 77.0791 171.36 122.048 168.236 c 0
 267.882 158.109 702.361 152.387 847.391 166.687 c 0
 849.172 166.862 850.916 166.932 852.631 166.904 c 0
 882.182 166.44 907.992 134.129 907.395 106.499 c 0
 907.014 88.9023 897.316 69.5195 848.951 70.6055 c 0
443.554 295.836 m 0
 446.66 474.432 441.768 642.769 437.023 788.804 c 0
 436.856 793.956 436.917 798.793 437.175 803.322 c 0
 440.031 853.422 464.146 865.082 484.227 863.833 c 0
 509.804 862.242 539.959 837.135 537.062 792.15 c 0
 527.733 647.143 524.703 442.794 539.64 298.81 c 0
 539.824 297.029 539.902 295.285 539.885 293.569 c 0
 539.57 264.017 507.392 238.043 479.76 238.501 c 0
 462.162 238.793 442.722 248.013 443.554 295.836 c 0
849.877 492.585 m 0
 671.17 496.601 271.495 494.197 124.885 490.182 c 0
 119.732 490.04 114.896 490.125 110.368 490.406 c 0
 60.2842 493.519 48.7461 517.69 50.0967 537.765 c 0
 51.8174 563.334 77.0791 593.36 122.048 590.237 c 0
 267.882 580.111 702.36 574.388 847.391 588.687 c 0
 849.172 588.862 850.916 588.933 852.631 588.905 c 0
 882.182 588.44 907.991 556.13 907.394 528.5 c 0
 907.014 510.903 897.694 491.51 849.877 492.585 c 0
EndSplineSet
EndChar

StartChar: guillemotleft
Encoding: 171 171 104
Width: 736
VWidth: 0
Flags: HW
LayerCount: 2
Fore
SplineSet
626.902 153.677 m 0
 567.932 225.642 468.957 347.615 411.235 415.278 c 0
 343.375 494.816 336.929 486.354 415.579 583.73 c 0
 484.062 668.52 553.79 756.174 645.413 859.748 c 0
 652.263 867.491 658.999 868.094 669.982 859.557 c 0
 689.755 844.19 704.403 803.605 675.752 767.413 c 0
 618.757 695.419 542.797 599.473 472.495 512.906 c 0
 466.542 505.576 466.769 494.801 472.443 487.754 c 0
 529.821 416.502 613.784 310.499 669.472 247.729 c 0
 698.325 215.2 685.836 166.122 663.466 147.626 c 0
 651.945 138.101 641.53 135.826 626.902 153.677 c 0
310.902 153.677 m 0
 251.932 225.641 152.958 347.617 95.2344 415.278 c 0
 27.3779 494.817 20.9258 486.354 99.5781 583.73 c 0
 168.063 668.52 237.788 756.176 329.412 859.748 c 0
 336.262 867.49 342.999 868.095 353.982 859.557 c 0
 373.754 844.188 388.404 803.607 359.752 767.414 c 0
 302.757 695.419 226.798 599.473 156.494 512.906 c 0
 150.541 505.576 150.768 494.802 156.442 487.754 c 0
 213.819 416.499 297.786 310.5 353.472 247.728 c 0
 382.326 215.2 369.835 166.122 347.466 147.627 c 0
 335.944 138.101 325.529 135.826 310.902 153.677 c 0
EndSplineSet
EndChar

StartChar: guillemotright
Encoding: 187 187 105
Width: 736
VWidth: 0
Flags: HW
LayerCount: 2
Fore
SplineSet
109.516 153.677 m 0
 94.6621 135.551 83.9492 137.987 72.0459 148.397 c 0
 50.1055 167.586 38.5508 215.718 66.9473 247.729 c 0
 122.632 310.501 206.597 416.499 263.976 487.754 c 0
 269.898 495.11 269.627 505.883 263.923 512.906 c 0
 193.623 599.474 117.663 695.421 60.666 767.414 c 0
 33.1719 802.142 45.4111 840.902 64.207 857.696 c 0
 76.2148 868.426 83.998 867.67 91.0049 859.748 c 0
 182.63 756.176 252.354 668.52 320.839 583.731 c 0
 399.492 486.354 393.04 494.817 325.183 415.278 c 0
 267.46 347.617 168.486 225.641 109.516 153.677 c 0
425.515 153.677 m 0
 410.662 135.551 399.949 137.987 388.046 148.397 c 0
 366.105 167.586 354.552 215.719 382.946 247.729 c 0
 438.633 310.501 522.597 416.5 579.975 487.754 c 0
 585.898 495.109 585.626 505.883 579.923 512.906 c 0
 509.623 599.474 433.663 695.42 376.666 767.413 c 0
 349.174 802.144 361.41 840.901 380.207 857.696 c 0
 392.215 868.426 399.997 867.67 407.005 859.748 c 0
 498.63 756.175 568.354 668.52 636.839 583.73 c 0
 715.492 486.354 709.04 494.818 641.183 415.278 c 0
 583.46 347.616 484.485 225.642 425.515 153.677 c 0
EndSplineSet
EndChar

StartChar: logicalnot
Encoding: 172 172 106
Width: 1085
VWidth: 0
Flags: HW
HStem: 449.654 133.936<85.8188 926.5>
VStem: 928.5 120<75.1551 449.654>
LayerCount: 2
Fore
SplineSet
948.5 119.654 m 0
 948.5 280.123 946.5 297.942 946.5 449.654 c 0
 946.5 461.104 936.721 468.912 927.272 469.655 c 1
 920.225 469.646 275.209 468.805 142.952 465.182 c 0
 137.8 465.04 132.963 465.125 128.436 465.406 c 0
 78.3516 468.518 66.8135 492.691 68.1641 512.765 c 0
 69.8848 538.334 95.1465 568.361 140.114 565.237 c 0
 286.186 555.095 808.225 549.366 953.457 563.686 c 0
 957.062 564.042 960.992 564.384 965.112 564.594 c 0
 995.631 566.15 1024.39 563.313 1026.52 518.703 c 0
 1028.45 478.287 1027.38 159.694 1028.5 111.188 c 0
 1029.24 79.7227 1009.71 66.6807 990.308 66.6465 c 0
 970.964 66.6123 948.5 79.793 948.5 119.654 c 0
EndSplineSet
EndChar

StartChar: registered
Encoding: 174 174 107
Width: 1461
VWidth: 0
Flags: HW
HStem: 0 118.182<503.297 970.444> 1365.36 103.56<512.058 951.432>
VStem: 408.711 125.522<766 1075.11> 428.408 131.825<237.391 595.154> 1310.63 125.5<467.083 997.315>
LayerCount: 2
Fore
SplineSet
710.688 1468.51 m 0
 730.493 1470.96 745.477 1464.16 756.195 1454.24 c 0
 759.833 1450.87 764.735 1448.96 769.616 1448.92 c 0
 773.878 1448.89 778.119 1448.82 782.341 1448.72 c 0
 1198.19 1438.86 1425.32 1112.68 1416.14 736.019 c 0
 1401.9 152.294 1048.24 20 718.635 20 c 0
 396.027 20 68.2422 257.72 46.6055 663.423 c 0
 26.959 1031.8 181.164 1403 710.688 1468.51 c 0
681.821 1376.16 m 1
 205.625 1343 122.634 974.011 122.634 689.357 c 0
 122.634 362.755 407.723 94.292 719.683 98.1836 c 0
 980.028 101.42 1313.95 203.979 1330.62 712.703 c 0
 1330.86 719.948 1331.01 727.164 1331.09 734.347 c 0
 1334.89 1098.48 1126.58 1381.33 712.601 1385.36 c 0
 698.787 1385.47 689.72 1378.82 681.821 1376.16 c 1
504.246 1068.72 m 0
 501.722 999.087 509.708 921.499 514.24 757.447 c 0
 514.516 747.492 522.503 739.311 531.752 738.155 c 0
 658.054 722.368 786.233 698.573 896.761 766.994 c 0
 913.943 777.632 928.137 790.582 939.008 805.262 c 0
 989.434 873.356 963.61 968.37 880.12 1030.08 c 0
 781.501 1102.98 652.532 1109.1 521.027 1087.74 c 0
 511.102 1086.13 504.536 1076.73 504.246 1068.72 c 0
404.358 1095.43 m 0
 401.035 1094.69 398.414 1094.01 396.516 1093.65 c 0
 373.154 1089.23 368.844 1097.64 366.734 1108.51 c 0
 362.991 1127.79 375.957 1146.12 382.789 1147.38 c 0
 395.389 1149.7 408.309 1152.01 421.508 1154.28 c 0
 427.292 1155.27 432.321 1159.11 435.147 1163.48 c 1
 441.852 1171.02 490.079 1176.44 500.358 1170.61 c 0
 504.197 1168.43 509.131 1167.66 512.973 1168.19 c 0
 661.201 1188.69 797.941 1185.96 945.015 1090.94 c 0
 951.272 1086.9 957.294 1082.64 963.076 1078.17 c 0
 1065.38 999.203 1092.21 858.4 1014.9 758.361 c 0
 917.943 632.869 771.475 632.11 665.875 651.666 c 0
 655.163 653.649 644.551 646.354 642.567 635.642 c 0
 641.305 628.824 644.557 621.391 648.094 617.854 c 0
 787.068 478.949 798.533 421.086 1004.81 277.582 c 0
 1010.01 273.965 1010.9 272.375 1006.15 264.508 c 0
 994.401 245.028 947.071 221.64 898.621 251.091 c 0
 699.721 371.997 686.014 419.339 563.918 607.211 c 0
 557.981 616.346 545.384 619.019 536.249 613.082 c 0
 529.921 608.97 527.006 600.472 527.158 595.68 c 0
 532.017 442.229 537.457 307.077 540.287 268.535 c 0
 541.596 250.724 522.835 234.617 493.359 235.303 c 0
 467.65 235.9 447.492 248.677 448.399 279.991 c 0
 450.914 366.789 433.33 892.769 428.704 1076.41 c 0
 428.373 1089.57 415.229 1097.85 404.358 1095.43 c 0
EndSplineSet
EndChar

StartChar: acute
Encoding: 180 180 108
Width: 485
VWidth: 0
Flags: HW
LayerCount: 2
Fore
SplineSet
432.14 1407.3 m 0
 290.46 1274.56 221.325 1207.37 120.32 1110.43 c 0
 87.7891 1079.21 60.7617 1085.36 51.2764 1094.06 c 0
 44.1455 1100.59 38.4062 1114.53 58.7861 1136.35 c 0
 157.873 1242.44 242.972 1335.55 351.929 1456.14 c 0
 377.487 1484.42 407.837 1476.68 427.155 1456.22 c 0
 443.829 1438.57 445.406 1419.73 432.14 1407.3 c 0
EndSplineSet
EndChar

StartChar: dieresis
Encoding: 168 168 109
Width: 502
VWidth: 0
Flags: HW
LayerCount: 2
Fore
SplineSet
316.7 1559.39 m 0
 317.506 1567.45 321.52 1575.27 328.854 1582.47 c 0
 351.927 1605.09 394.153 1608.32 410.413 1591.49 c 0
 418.647 1582.96 425.32 1571.6 429.691 1558.93 c 0
 444.193 1516.89 431.315 1474.27 402.299 1464.29 c 0
 396.053 1462.15 390.104 1461.54 384.136 1462.11 c 0
 349.4 1465.44 312.302 1515.4 316.7 1559.39 c 0
54 1555.01 m 0
 54.8057 1563.07 58.8184 1570.89 66.1543 1578.09 c 0
 89.2266 1600.71 131.455 1603.94 147.713 1587.11 c 0
 155.947 1578.58 162.62 1567.22 166.991 1554.55 c 0
 181.493 1512.51 168.614 1469.89 139.599 1459.91 c 0
 133.353 1457.77 127.404 1457.15 121.436 1457.73 c 0
 86.7021 1461.06 49.5996 1511.02 54 1555.01 c 0
EndSplineSet
EndChar

StartChar: periodcentered
Encoding: 183 183 110
Width: 299
VWidth: 0
Flags: HW
LayerCount: 2
Fore
SplineSet
90.334 554.133 m 0
 91.1475 562.265 95.1777 570.271 102.514 577.465 c 0
 125.586 600.091 167.812 603.323 184.072 586.485 c 0
 192.308 577.957 198.979 566.599 203.352 553.927 c 0
 217.855 511.889 204.975 469.27 175.958 459.294 c 0
 169.712 457.147 163.764 456.535 157.794 457.107 c 0
 123.061 460.439 85.9346 510.142 90.334 554.133 c 0
EndSplineSet
EndChar

StartChar: oe
Encoding: 339 339 116
Width: 1726
VWidth: 0
Flags: HW
HStem: -18 123.011<360.353 689.194> 491.191 117.437<920.43 1384.22>
VStem: 1543 122<660.39 815.928>
LayerCount: 2
Fore
SplineSet
908.35 613.567 m 0
 923.663 674.166 949.498 732.036 986.259 783.353 c 0
 1082.78 918.085 1222.97 968.952 1350.18 964.643 c 0
 1516.53 959.007 1649.23 860.699 1645.01 741.71 c 0
 1644.89 738.17 1644.69 734.682 1644.42 731.242 c 0
 1629.5 542.531 1383.31 473.576 1021.17 502.615 c 0
979.725 465.753 m 0
 982.982 335.892 1037.5 207.458 1147 136.234 c 0
 1304.55 33.7617 1512.65 114.789 1614.36 206.119 c 0
 1636.39 225.901 1656.54 222.418 1668.66 212.339 c 0
 1682.32 200.972 1690.31 176.863 1665.75 147.944 c 0
 1581.43 48.6201 1320.23 -51.3867 1138.66 36.9834 c 0
 966.951 120.557 878 321.989 893.12 519.904 c 0
1031.46 576.214 m 0
 1105.21 568.609 1174.54 566.174 1237.23 568.664 c 0
 1420.03 575.924 1567.38 625.351 1562.98 735.794 c 0
 1561.89 763.414 1551.63 788.604 1535.29 809.725 c 0
 1462.54 903.751 1269.52 927.882 1136.65 824.803 c 0
 1069.88 773 1024.62 699.988 1000.47 620.365 c 0
980.364 506.253 m 1
 966.538 507.613 949.93 509.398 937.619 510.815 c 1
 933.334 517.456 929.696 542.581 932.841 564.52 c 0
 934.326 574.886 937.351 584.11 939.465 588.078 c 1
 957.385 585.32 973.421 583.076 990.328 580.938 c 1
 985.143 556.481 981.8 531.271 980.364 506.253 c 1
468.207 968.064 m 0
 489.067 969.96 504.213 963.454 514.559 953.882 c 0
 517.771 950.909 522.378 949.033 526.177 948.659 c 0
 762.338 925.359 922.715 786.255 956.887 588.594 c 0
 962.585 555.611 965.896 523.188 966.916 491.568 c 0
 975.651 220.745 818.799 10.5322 553.95 1.98926 c 0
 291.035 -6.49707 67.7207 160.726 46.542 451.453 c 0
 25.751 736.847 216.919 945.218 468.207 968.064 c 0
423.347 875.305 m 0
 247.173 821.278 132.771 663.076 134.596 473.808 c 0
 134.626 470.627 134.696 467.455 134.806 464.292 c 0
 142.236 249.058 329.87 77.3789 547.597 85.0234 c 0
 559.334 85.4355 570.92 86.457 582.323 88.0566 c 0
 775.242 115.104 914.401 306.013 886.698 501.813 c 0
 855.666 721.146 743.971 868.8 433.048 875.994 c 0
 432.327 876.011 431.621 876.051 430.926 876.11 c 0
 428.399 876.328 425.468 875.955 423.347 875.305 c 0
EndSplineSet
EndChar

StartChar: OE
Encoding: 338 338 120
Width: 1996
VWidth: 0
Flags: HW
HStem: 0 117<520.172 1376.81> 730 123<1052.44 1538.06> 1334 109<1396.61 1936.51>
VStem: 909.06 143<906.863 1338.7> 932.06 135<74.7532 549.895>
LayerCount: 2
Fore
SplineSet
924.108 1341.98 m 0
 839.482 1344.44 686.413 1353.26 565.37 1324.46 c 0
 518.371 1313.27 475.505 1298.11 436.608 1279.52 c 0
 83.46 1110.74 68.6055 670.133 198.028 400.35 c 0
 346.571 90.71 715.931 95.0029 930.245 97.001 c 0
 1144.39 98.9883 1535.42 84.501 1915.61 114.061 c 0
 1944.09 116.274 1950.34 104.511 1951.22 89.4365 c 0
 1952.68 64.4287 1931.86 33.5342 1902.98 31.9707 c 0
 1531.18 11.8848 976.58 20 948.061 20 c 0
 674.293 20 292.104 -24.4746 102.191 383.441 c 0
 85.5381 419.212 71.0244 459.89 59.5254 503.887 c 0
 -21.2598 812.976 47.2119 1271.63 514.058 1393.65 c 0
 671.115 1434.7 840.693 1425.3 928.867 1420.04 c 0
 964.168 1417.93 1539.14 1404.4 1930.01 1423.02 c 0
 1930.47 1423.04 1930.59 1423 1930.62 1422.99 c 1
 1930.81 1422.88 1935.38 1418 1936.23 1406 c 0
 1938.12 1379.3 1923.54 1355.13 1906.66 1353.95 c 0
 1601.79 1332.55 974.5 1340.51 924.108 1341.98 c 0
1021.06 1323 m 0
 1021.06 1265.29 1026.05 984.765 1032.08 845.138 c 0
 1032.55 834.254 1042.04 825.549 1052.92 826.019 c 0
 1056.4 826.169 1060.69 827.809 1062.66 829.039 c 0
 1067.43 832.021 1072.33 833.741 1080.78 833.037 c 1
 1394.11 818.973 1519.37 825.046 1829.61 849.06 c 0
 1857.96 851.264 1864.33 839.471 1865.22 824.057 c 0
 1866.69 798.625 1845.73 767.525 1816.98 765.971 c 0
 1503.61 749.014 1396.11 753.988 1079.93 750 c 1
 1071.45 749.999 1066.64 752.196 1062.23 756.052 c 0
 1054.03 763.226 1041.18 762.369 1034.01 754.17 c 0
 1030.64 750.318 1029.03 743.942 1029.06 740.79 c 0
 1032.05 454.44 1042.6 229.041 1047.08 114.222 c 0
 1048.19 85.6543 1015.43 62.2197 983.098 62.8037 c 0
 962.39 63.1787 951.546 70.9336 952.053 91.4717 c 1
 956.093 239.049 942.104 1141.7 929.029 1383.11 c 0
 927.875 1403.89 932.33 1401.48 937.725 1401.5 c 0
 965.254 1401.58 1021.06 1353.74 1021.06 1323 c 0
EndSplineSet
Colour: ff00
EndChar

StartChar: questiondown
Encoding: 191 191 165
Width: 893
VWidth: 0
Flags: HW
HStem: -471.157 124<333.078 836.508>
LayerCount: 2
Fore
SplineSet
537.709 869.23 m 0
 535.849 860.855 531.234 853.092 523.991 846.118 c 0
 498.681 821.749 453.06 818.289 433.696 838.645 c 0
 427.088 845.575 422.201 854.624 419.321 865.045 c 0
 408.734 903.346 427.388 947.245 457.578 955.573 c 1
 464.905 957.63 472.118 957.695 479.652 956.038 c 0
 514.494 948.375 545.438 903.118 537.709 869.23 c 0
624.223 553 m 0
 670.035 491.917 664.975 450.606 623.037 380.074 c 0
 523.218 212.413 313.018 68.4619 208.841 -57.373 c 1
 178.945 -93.1914 157.463 -126.559 145.099 -158.238 c 0
 110.583 -246.675 154.495 -314.03 257.005 -353.809 c 1
 404.372 -410.652 645.141 -389.096 789.2 -366.934 c 1
 829.894 -360.949 845.406 -380.599 847.74 -398.667 c 0
 850.312 -418.574 837.343 -445.826 794.694 -451.317 c 0
 585.283 -477.984 391.24 -461.139 252.402 -431.599 c 1
 191.396 -418.487 142.577 -394.777 107.96 -364.058 c 0
 21.1826 -287.047 13.7061 -157.716 148.188 -6.4248 c 0
 271.45 132.616 446.052 267.316 531.073 401.071 c 1
 570.347 462.163 567.852 514.523 533.496 562.625 c 0
 509.69 595.951 519.336 603.852 519.909 604.29 c 0
 529.229 611.416 583.69 607.042 624.223 553 c 0
EndSplineSet
EndChar

StartChar: multiply
Encoding: 215 215 167
Width: 831
VWidth: 0
Flags: HW
LayerCount: 2
Fore
SplineSet
90.625 731.795 m 0
 87.2871 735.404 84.3887 738.926 81.8877 742.337 c 0
 56.5391 776.921 68.0586 802.356 89.1133 817.604 c 0
 112.942 834.861 143.946 833.841 158.786 813.289 c 0
 199.996 756.229 325.468 616.883 392.198 547.849 c 0
 400.904 538.843 415.371 540.989 421.998 549.013 c 0
 460.281 595.363 596.689 746.755 652.666 808.603 c 0
 655.965 812.247 659.214 815.447 662.39 818.241 c 0
 694.586 846.564 720.941 837.351 737.999 817.734 c 0
 757.305 795.533 759.041 764.558 739.896 747.952 c 0
 684.335 699.766 524.59 530.51 479.295 473.556 c 0
 473.06 465.715 474.23 454.339 479.972 447.852 c 0
 531.012 390.185 677.527 246.15 734.644 201.273 c 0
 738.068 198.582 741.023 195.812 743.573 192.995 c 0
 766.675 167.471 760.148 132.654 738.12 112.78 c 0
 718.041 94.6641 684.04 87.4561 644.926 131.312 c 0
 601.658 179.827 472.584 322.293 422.437 373.41 c 0
 413.658 382.359 399.211 380.078 392.66 372.046 c 0
 350.244 320.037 220.912 191.329 182.238 131.91 c 0
 179.862 128.26 177.364 125.07 174.786 122.28 c 0
 151.415 97.001 116.155 100.41 94.4023 120.584 c 0
 74.5742 138.975 64.375 172.199 104.581 215.056 c 0
 147.261 260.548 288.042 377.073 336.455 450.115 c 0
 341.694 458.02 339.874 468.644 334.763 474.419 c 0
 282.796 533.141 147.072 670.739 90.625 731.795 c 0
EndSplineSet
EndChar

StartChar: section
Encoding: 167 167 168
Width: 1161
VWidth: 0
Flags: HW
HStem: 1478.21 128<510.666 997.214>
LayerCount: 2
Fore
SplineSet
647.939 810.555 m 0
 450.908 965.054 219.609 1141.59 164.257 1291.15 c 0
 149.468 1331.11 154.386 1423.44 255.438 1489.47 c 0
 473.1 1631.68 832.45 1629.22 963.386 1587.17 c 0
 967.287 1585.91 970.843 1584.5 974.08 1582.95 c 0
 1007.73 1566.88 1012.2 1534.62 1001.4 1512.22 c 0
 992.61 1493.98 975.93 1483.69 950.257 1496.19 c 0
 877.279 1531.74 773.223 1537.85 668.696 1528.33 c 0
 484.034 1511.5 257.812 1443.63 266.585 1348.38 c 0
 289.217 1102.64 952.237 743.51 1021.71 553.348 c 0
 1037.58 509.92 1044.51 471.454 1044.6 437.461 c 0
 1045.11 236.714 797.027 164 624.5 164 c 0
 616.613 164 608.022 164.858 599.001 166.377 c 0
 588.258 168.186 577.767 160.717 575.958 149.974 c 0
 574.708 142.545 578.569 134.809 583.025 131.167 c 0
 768.507 -20.3955 966.666 -171.989 1002.71 -270.652 c 0
 1018.21 -313.048 1024.94 -350.257 1025 -382.824 c 0
 1025.36 -579.995 769.604 -638.786 594.499 -638.788 c 0
 398.843 -638.79 248.59 -572.845 163.175 -438.082 c 0
 155.601 -426.131 151.112 -414.643 148.849 -403.778 c 0
 138.928 -356.165 172.314 -317.529 198.938 -311.983 c 0
 213.423 -308.966 229.337 -312.494 236.68 -348.757 c 0
 269.344 -510.065 508.404 -583.374 688.126 -561.321 c 0
 821.673 -544.936 941.465 -470.835 923.352 -323.351 c 0
 899.8 -131.59 243.747 201.031 145.257 467.154 c 0
 130.467 507.112 135.386 599.446 236.439 665.469 c 0
 345.592 736.779 498.531 765.898 636.89 774.858 c 0
 647.761 775.562 656.26 785.238 655.556 796.109 c 0
 655.182 801.884 651.849 807.489 647.939 810.555 c 0
418.491 276.893 m 0
 513.06 254.185 601.412 248.94 677.898 258.204 c 0
 841.18 277.981 958.667 367.772 942.351 500.649 c 0
 934.602 563.755 865.919 630.829 778.228 705.349 c 0
 774.813 708.249 770.077 709.93 766.095 710.093 c 0
 729.82 711.578 691.915 710.32 653.811 706.852 c 0
 467.752 689.913 238.774 620.039 247.585 524.377 c 0
 254.748 446.604 322.086 365.293 409.341 281.883 c 0
 411.886 279.449 415.104 277.706 418.491 276.893 c 0
EndSplineSet
EndChar

StartChar: Oslash
Encoding: 216 216 170
Width: 1314
VWidth: 0
Flags: HW
LayerCount: 2
Fore
SplineSet
1137.75 1455.07 m 0
 1141.24 1460.41 1144.75 1465.15 1148.1 1469.17 c 0
 1173.1 1499.15 1188.17 1493.46 1196.35 1486.6 c 0
 1210.51 1474.71 1217.77 1441.92 1196.71 1416.89 c 1
 1102.2 1304.92 272.571 119.241 197.737 -8.89941 c 0
 196.039 -11.8027 194.285 -14.5156 192.49 -17.0459 c 0
 168.064 -51.4785 138.701 -51.249 126.604 -42.5703 c 0
 116.195 -35.1035 103.215 -9.18457 141.181 43.2451 c 1
 227.58 161.792 1039.93 1304.8 1137.75 1455.07 c 0
582.75 1435.79 m 0
 600.854 1440.93 616.527 1435.55 628.833 1426.49 c 0
 632.672 1423.67 637.661 1422.33 642.149 1422.65 c 0
 978.374 1447.27 1220.14 1179.51 1253.46 799.071 c 0
 1304.55 215.681 996.969 36.1406 700.726 9.62012 c 0
 439.966 -13.7246 139.497 161.077 67.8408 562.983 c 0
 16.7666 849.447 102.837 1299.7 582.75 1435.79 c 0
562.393 1337.09 m 0
 132.24 1201.88 120.883 778.07 143.571 596.76 c 0
 183.812 275.188 446.742 62.79 692.352 90.3584 c 0
 947.502 118.998 1208.05 261.54 1168.07 766.362 c 0
 1167.65 771.639 1167.2 776.889 1166.71 782.113 c 0
 1132.98 1144.57 930.863 1381.89 593.357 1350.2 c 0
 579.391 1348.87 568.065 1339.73 562.393 1337.09 c 0
EndSplineSet
EndChar

StartChar: oslash
Encoding: 248 248 171
Width: 1012
VWidth: 0
Flags: HW
HStem: -18 123.011<355.058 689.194>
LayerCount: 2
Fore
SplineSet
844.749 996.07 m 0
 848.245 1001.41 851.747 1006.15 855.104 1010.17 c 0
 880.102 1040.15 895.175 1034.46 903.347 1027.6 c 0
 917.507 1015.71 924.771 982.927 903.706 957.888 c 1
 809.932 846.787 272.685 119.435 197.737 -8.89941 c 0
 196.039 -11.8027 194.285 -14.5156 192.49 -17.0459 c 0
 168.064 -51.4785 138.701 -51.249 126.604 -42.5703 c 0
 116.195 -35.1035 103.215 -9.18457 141.181 43.2451 c 1
 227.012 161.013 746.624 845.344 844.749 996.07 c 0
468.207 968.064 m 0
 489.067 969.96 504.213 963.454 514.559 953.882 c 0
 517.771 950.909 522.378 949.033 526.177 948.659 c 0
 762.338 925.359 922.715 786.255 956.887 588.594 c 0
 962.585 555.611 965.896 523.188 966.916 491.568 c 0
 975.651 220.745 818.799 10.5322 553.95 1.98926 c 0
 291.035 -6.49707 67.7207 160.726 46.542 451.453 c 0
 25.751 736.847 216.919 945.218 468.207 968.064 c 0
423.347 875.305 m 0
 247.173 821.278 132.771 663.076 134.596 473.808 c 0
 134.626 470.627 134.696 467.455 134.806 464.292 c 0
 142.236 249.058 329.87 77.3789 547.597 85.0234 c 0
 559.334 85.4355 570.92 86.457 582.323 88.0566 c 0
 775.242 115.104 914.401 306.013 886.698 501.813 c 0
 855.666 721.146 743.971 868.8 433.048 875.994 c 0
 432.327 876.011 431.621 876.051 430.926 876.11 c 0
 428.399 876.328 425.468 875.955 423.347 875.305 c 0
EndSplineSet
EndChar

StartChar: dotlessi
Encoding: 305 305 172
Width: 412
VWidth: 0
Flags: HW
VStem: 140.171 136.056<451.753 971.336> 152.167 140.009<15.6691 551.262>
LayerCount: 2
Fore
SplineSet
160.149 928.652 m 0
 159.909 933.911 159.969 938.729 160.276 943.114 c 0
 162.919 980.872 180.862 988.332 200.221 986.896 c 0
 229.092 984.756 258.511 958.041 256.283 928.4 c 0
 245.356 783.018 258.694 219.312 272.263 73.1924 c 0
 272.52 70.4219 272.646 67.7334 272.654 65.126 c 0
 272.784 23.0518 242.371 -0.211914 217.53 -0.132812 c 0
 197.759 -0.0693359 171.921 14.2178 172.167 73.7031 c 0
 172.772 220.251 168.333 749.787 160.149 928.652 c 0
EndSplineSet
EndChar

StartChar: divide
Encoding: 247 247 177
Width: 1085
VWidth: 0
Flags: HW
HStem: 445.189 140<85.8188 996.219>
LayerCount: 2
Fore
SplineSet
467.4 861.664 m 0
 468.206 869.722 472.219 877.547 479.555 884.74 c 0
 502.627 907.366 544.854 910.598 561.112 893.761 c 0
 569.348 885.233 576.02 873.874 580.391 861.202 c 0
 594.893 819.163 582.014 776.544 553 766.568 c 0
 546.753 764.421 540.805 763.809 534.835 764.382 c 0
 500.102 767.714 463 817.671 467.4 861.664 c 0
479.4 216.664 m 0
 480.207 224.722 484.219 232.547 491.555 239.74 c 0
 514.627 262.366 556.854 265.598 573.112 248.761 c 0
 581.347 240.233 588.02 228.874 592.392 216.202 c 0
 606.893 174.163 594.014 131.544 565 121.568 c 0
 558.753 119.421 552.805 118.809 546.836 119.382 c 0
 512.101 122.714 475.001 172.672 479.4 216.664 c 0
955.944 467.585 m 0
 777.177 471.603 289.655 469.2 142.952 465.182 c 0
 137.8 465.04 132.963 465.125 128.436 465.406 c 0
 78.3516 468.518 66.8135 492.691 68.1641 512.765 c 0
 69.8848 538.334 95.1465 568.361 140.114 565.237 c 0
 286.186 555.095 808.224 549.366 953.457 563.687 c 0
 955.238 563.861 956.983 563.932 958.697 563.904 c 0
 988.248 563.44 1014.06 531.129 1013.46 503.5 c 0
 1013.08 485.903 1003.76 466.511 955.944 467.585 c 0
EndSplineSet
EndChar

StartChar: Ccedilla
Encoding: 199 199 178
Width: 1202
VWidth: 0
Flags: HW
VStem: 596.623 85.377<-114 58.0136>
LayerCount: 2
Fore
SplineSet
612 29.0039 m 0
 612 32.8496 613.5 37.6514 617.83 42.2539 c 0
 632.79 58.1523 657.436 56.3174 658.629 55.1699 c 1
 658.646 55.1367 658.943 54.7021 659.022 53.0498 c 0
 661.983 -9.15918 660.617 -47.8506 662.005 -114.418 c 0
 662.274 -127.369 675.073 -136.23 686.668 -133.448 c 0
 761.897 -115.395 872.653 -106.089 923.362 -182.1 c 0
 927.055 -187.635 930.224 -193.303 932.907 -199.086 c 0
 967.17 -272.903 922.059 -371.885 840.233 -409.845 c 1
 734.768 -458.447 596.279 -409.918 547.35 -347.645 c 0
 537.659 -335.311 539.156 -322.343 541.152 -318.742 c 1
 542.549 -319.256 544.013 -319.988 546.407 -321.835 c 0
 622.235 -380.331 721.175 -390.946 803.097 -362.923 c 0
 811.153 -360.167 818.706 -356.616 825.676 -352.417 c 0
 873.209 -323.784 896.377 -262.533 867.689 -215.574 c 0
 825.562 -146.611 738.452 -168.192 672.449 -197.746 c 0
 663.21 -201.883 654.652 -203.458 647.425 -203.232 c 0
 628.92 -202.655 615.825 -191.837 616.613 -166.625 c 0
 618.669 -100.806 611.998 -38.6807 612 29.0039 c 0
896.151 1315.6 m 0
 818.774 1368.67 713.127 1368.94 594.862 1337.33 c 1
 562.599 1328.84 531.733 1317.19 502.659 1302.91 c 0
 176.868 1142.86 60.0723 650.943 197.061 373.157 c 0
 206.679 353.644 217.059 335.239 228.143 317.919 c 0
 426.244 8.35742 836.215 57.1211 1121.75 240.133 c 1
 1140.6 252.103 1155.29 246.275 1166.44 231.911 c 0
 1181.16 212.938 1180.97 187.213 1164.86 174.896 c 0
 1101.09 126.206 1031.43 88.0059 959.112 60.2832 c 0
 618.323 -70.3457 225.042 32.5176 101.686 355.13 c 0
 97.5615 365.938 93.6768 377.195 90.0479 388.858 c 0
 -5.87012 697.121 82.7734 1263.4 544.89 1406.89 c 1
 700.079 1454.71 877.104 1438.2 938.993 1392 c 1
 972.675 1366.54 970.84 1339.34 959.725 1322.95 c 0
 948.188 1305.93 924.052 1296.5 896.151 1315.6 c 0
EndSplineSet
EndChar

StartChar: cedilla
Encoding: 184 184 179
Width: 578
VWidth: 0
Flags: HW
VStem: 143.534 85.377<-107 65.0136>
LayerCount: 2
Fore
SplineSet
158.91 37 m 0
 158.91 40.6055 160.411 44.6514 164.741 49.2539 c 0
 179.701 65.1523 204.347 63.3174 205.539 62.1699 c 1
 205.558 62.1367 205.854 61.7021 205.934 60.0498 c 0
 208.895 -2.15918 207.526 -40.8506 208.916 -107.418 c 0
 209.186 -120.368 221.984 -129.23 233.579 -126.448 c 0
 308.808 -108.393 419.565 -99.0918 470.274 -175.1 c 0
 473.967 -180.634 477.135 -186.303 479.819 -192.085 c 0
 514.079 -265.904 468.972 -364.884 387.143 -402.846 c 1
 281.68 -451.446 143.19 -402.918 94.2607 -340.644 c 0
 84.5713 -328.311 86.0684 -315.343 88.0645 -311.742 c 1
 89.46 -312.256 90.9238 -312.988 93.3184 -314.835 c 0
 169.145 -373.33 268.088 -383.948 350.008 -355.923 c 0
 358.064 -353.167 365.616 -349.616 372.587 -345.417 c 0
 420.121 -316.785 443.286 -255.532 414.601 -208.574 c 0
 372.473 -139.611 285.364 -161.191 219.36 -190.746 c 0
 210.121 -194.884 201.563 -196.458 194.336 -196.232 c 0
 175.831 -195.655 162.736 -184.836 163.524 -159.625 c 0
 165.581 -93.8047 158.91 -30.6836 158.91 37 c 0
EndSplineSet
EndChar

StartChar: ccedilla
Encoding: 231 231 180
Width: 875
VWidth: 0
Flags: HW
VStem: 413.623 85.377<-112 60.0136>
LayerCount: 2
Fore
SplineSet
429 31.0039 m 0
 429 34.8496 430.5 39.6514 434.83 44.2529 c 0
 449.79 60.1523 474.436 58.3164 475.629 57.1699 c 1
 475.647 57.1367 475.944 56.7012 476.022 55.0498 c 0
 478.983 -7.15918 477.615 -45.8506 479.004 -112.417 c 0
 479.274 -125.368 492.072 -134.23 503.667 -131.447 c 0
 578.898 -113.394 689.652 -104.091 740.363 -180.1 c 0
 744.056 -185.634 747.225 -191.303 749.908 -197.085 c 0
 784.169 -270.904 739.074 -369.877 657.215 -407.853 c 1
 551.785 -456.445 413.275 -407.913 364.35 -345.645 c 0
 354.659 -333.311 356.157 -320.344 358.153 -316.742 c 1
 359.549 -317.257 361.013 -317.988 363.407 -319.836 c 0
 439.234 -378.331 538.176 -388.946 620.097 -360.923 c 0
 628.153 -358.167 635.706 -354.616 642.676 -350.417 c 0
 690.209 -321.785 713.377 -260.533 684.69 -213.574 c 0
 642.561 -144.609 555.453 -166.194 489.449 -195.746 c 0
 480.21 -199.884 471.652 -201.458 464.426 -201.232 c 0
 445.921 -200.655 432.825 -189.837 433.613 -164.625 c 0
 435.669 -98.8057 428.998 -36.6807 429 31.0039 c 0
710.623 842.15 m 0
 659.495 872.825 521.655 903.308 412.518 870.135 c 0
 397.344 865.523 382.582 859.816 368.293 853.128 c 0
 182.049 765.961 71.4443 510.916 163.23 315.497 c 0
 254.658 120.838 475.648 32.9561 775.832 136.085 c 0
 806.961 146.779 822.83 133.543 828.606 117.565 c 0
 835.357 98.8926 828.954 70.916 792.562 57.8184 c 0
 532.352 -35.8242 197.039 -13.5439 79.0547 288.89 c 0
 74.0977 301.597 69.6787 314.564 65.7998 327.742 c 0
 -4.51855 566.674 103.462 869.14 384.052 951.429 c 0
 524.992 992.764 725.13 944.778 763.569 916.825 c 0
 785.975 900.532 786.877 876.708 775.489 857.407 c 0
 763.284 836.723 739.313 824.937 710.623 842.15 c 0
EndSplineSet
EndChar

StartChar: ordfeminine
Encoding: 170 170 181
Width: 533
VWidth: 0
Flags: HW
HStem: 1293.78 113.22<226.307 377.7>
VStem: 380.127 110.5<1120.22 1293.78 1407 1466.89>
LayerCount: 2
Fore
SplineSet
483.368 996.924 m 0
 424.762 992.347 413.281 1009.72 409.919 1032.88 c 0
 408.354 1043.66 398.033 1051.36 387.253 1049.79 c 0
 383.914 1049.31 379.469 1047.01 378.127 1046 c 0
 342.227 1019.08 296.593 1002.04 250.543 995.692 c 0
 147.554 981.5 57.0117 1020.11 46.9424 1093.71 c 0
 26.7383 1241.38 172.753 1336.46 281.348 1371.99 c 0
 334.437 1389.37 365.553 1390.42 387.198 1387.22 c 0
 399.472 1385.4 409.89 1395.66 410.122 1406.57 c 0
 410.331 1416.36 413.567 1424.99 410.665 1438.27 c 0
 408.819 1446.71 404.538 1454.08 398.955 1460.42 c 0
 363.469 1500.66 269.743 1510.65 155.807 1408.92 c 0
 137.567 1392.63 119.047 1396.2 106.806 1407.88 c 0
 93.1836 1420.89 86.1396 1446.14 113.281 1474.32 c 0
 195.292 1559.48 346.604 1585.83 426.521 1544.97 c 0
 458.924 1528.41 472.894 1484.81 470.652 1441.02 c 0
 461.669 1265.44 463.032 1203.85 485.437 1052.66 c 0
 489.879 1022.68 486.67 1000.25 483.885 996.975 c 1
 483.672 996.945 483.6 996.941 483.368 996.924 c 0
380.526 1313.58 m 0
 369.045 1315.22 349.325 1314.53 305.171 1304.26 c 0
 300.475 1303.17 295.644 1301.91 290.707 1300.48 c 0
 220.447 1280.18 101.384 1216.95 131.793 1112.2 c 0
 134.301 1103.56 138.479 1095.69 143.997 1089.06 c 0
 192.535 1030.73 316.735 1069.14 392.931 1132.63 c 0
 397.896 1136.77 400.359 1143.76 400.104 1148.98 c 0
 396.863 1214.98 396.874 1234.58 397.698 1293.5 c 0
 397.846 1304.06 389.064 1312.36 380.526 1313.58 c 0
EndSplineSet
EndChar

StartChar: ordmasculine
Encoding: 186 186 182
Width: 556
VWidth: 0
Flags: HW
LayerCount: 2
Fore
SplineSet
185.223 1394.52 m 0
 148.509 1372.35 128.577 1338 121.362 1301.48 c 0
 104.888 1218.07 153.022 1113.31 232.211 1098.02 c 0
 237.34 1097.03 242.389 1096.22 247.355 1095.6 c 0
 366.047 1080.55 427.012 1168.72 437.852 1257.23 c 0
 441.412 1286.29 434.193 1314.07 420.108 1337.64 c 0
 377.905 1408.24 271.747 1446.76 185.223 1394.52 c 0
52.2451 1355.21 m 0
 61.4512 1392.48 83.96 1423 115.367 1446.48 c 0
 214.809 1520.82 392.787 1514.99 463.979 1419.69 c 0
 489.328 1385.76 505.098 1344.7 511.209 1301.49 c 0
 529.97 1168.86 458.375 1024.09 311.224 1003.47 c 0
 278.867 998.933 247.419 1000.6 218.092 1007.78 c 0
 95.8555 1037.68 5.19336 1164.67 52.2451 1355.21 c 0
EndSplineSet
EndChar

StartChar: uni00B5
Encoding: 181 181 183
Width: 1024
VWidth: 0
Flags: HW
VStem: 90 148<436.908 937.459> 115.482 122.735<-433.036 13.6026> 785 132<505.226 971.077>
LayerCount: 2
Fore
SplineSet
218.227 26.9443 m 0
 224.275 -172.996 230.846 -340.403 235.572 -393.868 c 0
 235.817 -396.639 235.933 -399.328 235.929 -401.936 c 0
 235.875 -444.011 205.36 -467.141 180.521 -466.952 c 0
 160.751 -466.803 134.975 -452.402 135.481 -392.919 c 0
 136.736 -245.642 117.385 738.767 109.975 918.039 c 1
 109.616 923.769 109.604 928.179 109.844 932.703 c 0
 111.853 970.737 129.858 978.578 149.369 977.438 c 0
 178.252 975.752 207.837 949.729 206.035 920.18 c 1
 201.896 846.67 207.952 505.125 218.039 346.753 c 1
 218.902 332.7 220.185 319.201 221.869 306.372 c 0
 242.489 149.383 328.771 84.9248 450.617 101.172 c 1
 701.188 133.856 803 498.288 805 922.895 c 1
 805.408 975.085 827.393 984.012 845.282 983.034 c 0
 870.877 981.636 898.943 956.501 897.034 925.174 c 1
 888.862 780.05 910.847 226.226 927.123 80.792 c 0
 927.455 77.7988 927.639 74.8965 927.688 72.0859 c 0
 928.429 29.7178 899.169 6.56152 875.933 6.19727 c 0
 857.529 5.90918 831.838 19.2607 830.998 79.3223 c 1
 829.999 142.227 828.996 235.42 824.993 383.54 c 0
 824.699 394.43 815.35 403.287 804.46 402.992 c 0
 795.785 402.758 788.329 396.416 785.979 389.178 c 0
 686.17 81.8291 578.691 23.1855 436.254 10.9229 c 0
 351.223 3.4707 291.497 17.8818 248.804 44.5176 c 0
 239.561 50.2832 227.015 47.3779 221.248 38.1348 c 0
 219.123 34.7285 218.146 29.583 218.227 26.9443 c 0
EndSplineSet
EndChar

StartChar: paragraph
Encoding: 182 182 184
Width: 961
VWidth: 0
Flags: HW
HStem: 551.334 127.69<272.59 556.245>
VStem: 557.119 126.002<-1.17419 551.334 693.028 1343.97> 761.178 130.652<10.7619 520.718> 786.178 120.652<824.019 1299.67>
LayerCount: 2
Fore
SplineSet
781.117 53.5596 m 0
 770.904 184.198 773.233 394.374 776.826 576.918 c 0
 777.083 589.986 764.469 599.069 753.183 596.977 c 0
 728.645 592.426 704.32 588.359 680.291 584.83 c 0
 670.464 583.387 663.176 574.57 663.197 564.998 c 0
 663.717 327.218 666.283 112.72 670.663 49.6143 c 0
 670.856 46.8389 670.92 44.1484 670.868 41.541 c 0
 670.021 -0.524414 639.075 -23.0742 614.244 -22.418 c 0
 594.479 -21.8955 568.979 -7.00977 570.607 52.4521 c 0
 572.314 114.711 574.534 320.525 576.244 551.186 c 0
 576.33 562.737 566.189 572.023 554.946 571.292 c 0
 274.651 553.053 70.626 626.159 47.7402 867.202 c 0
 16.8643 1192.4 250.748 1398.39 551.668 1436.16 c 0
 762.132 1462.57 881.842 1420.47 911.605 1278.89 c 0
 924.029 1219.79 912.748 1206.06 893.66 1189.36 c 0
 889.54 1185.76 887.113 1179.96 886.86 1175.42 c 0
 862.812 742.553 865.823 283.291 871.838 60.7725 c 0
 873.406 2.73828 849.53 -13.6875 833.932 -15.0049 c 0
 815.356 -16.5723 785.173 1.69141 781.117 53.5596 c 0
577.61 1328.52 m 0
 577.497 1333.58 577.652 1338.2 578.028 1342.45 c 0
 579.156 1355.19 567.676 1365.78 555.274 1364.01 c 0
 550.071 1363.26 544.847 1362.43 539.605 1361.52 c 0
 333.459 1325.5 88.665 1152.38 140.13 857.868 c 0
 169.271 691.104 374.286 650.132 558.088 659.048 c 0
 569.035 659.579 577.059 669.356 577.118 678.898 c 0
 578.868 957.136 579.626 1238.88 577.61 1328.52 c 0
686.547 673.323 m 0
 714.917 678.257 742.262 684.227 767.96 691.038 c 0
 776.563 693.319 782.514 701.427 782.821 709.619 c 0
 789.818 895.83 794.817 1083.55 806.144 1277.83 c 0
 806.444 1282.98 807.776 1287.65 809.712 1292.4 c 0
 812.807 1300 810.342 1308.93 805.554 1313.87 c 0
 779.551 1340.7 742.342 1357 695.497 1364.34 c 0
 684.735 1366.03 674.329 1358.44 672.644 1347.67 c 0
 672.259 1345.22 672.478 1342.06 672.873 1340.27 c 0
 673.878 1335.72 674.205 1331 673.712 1326 c 0
 666.502 1252.85 663.405 974.485 663.121 693.048 c 0
 663.107 679.697 676.365 671.553 686.547 673.323 c 0
EndSplineSet
EndChar

StartChar: Eth
Encoding: 208 208 185
Width: 1260
VWidth: 0
Flags: HW
HStem: 88 98<35.903 104.003> 742.843 116<-51.6763 709.439>
VStem: 112 140<19.581 535.387>
LayerCount: 2
Fore
SplineSet
663.449 762.838 m 0
 484.588 766.858 151.734 760.438 5.45703 756.435 c 0
 -0.723633 756.266 -6.46973 756.375 -11.7891 756.724 c 0
 -61.7529 759.993 -70.2383 781.092 -69.3652 793.878 c 0
 -68.124 812.045 -45.0107 839.799 2.61914 836.489 c 0
 148.459 826.363 516.344 824.682 660.962 838.939 c 0
 663.202 839.161 665.395 839.243 667.542 839.202 c 0
 698.93 838.591 721.371 810.398 720.971 790.987 c 0
 720.741 779.888 713.759 761.707 663.449 762.838 c 0
182.797 1364.96 m 0
 178.193 1364.66 162.076 1379.39 159.853 1410.94 c 0
 158.043 1436.61 167.069 1441.03 167.285 1441.04 c 1
 556.863 1465.84 828.082 1390.69 1063.48 1100.39 c 0
 1252.27 868.029 1257.77 458.093 1052.05 226.284 c 0
 821.736 -32.9414 436.493 -16.416 65.3242 106.974 c 0
 42.1436 114.7 38.4619 130.811 43.124 145.736 c 0
 48.2363 162.104 62.7969 173.335 82.9629 166.933 c 0
 402.998 65.6074 803.624 38.7803 997.847 291.799 c 0
 1178.12 525.951 1151.25 872.579 986.509 1074.63 c 0
 774.928 1334.45 492.183 1382.09 182.797 1364.96 c 0
106.984 1388.77 m 0
 106.779 1394.02 106.871 1398.84 107.206 1403.21 c 0
 110.105 1441.15 128.332 1448.65 147.839 1447.1 c 0
 176.67 1444.81 205.594 1418.25 203.066 1388.63 c 1
 191.744 1242.5 218.818 224.111 232.083 77.1797 c 1
 232.345 74.3574 232.468 71.7158 232.476 69.0947 c 0
 232.6 27.0654 202.262 3.84277 177.408 3.86914 c 0
 157.535 3.88965 131.583 18.1963 132 77.8633 c 0
 133.006 224.872 114.029 1209.95 106.984 1388.77 c 0
EndSplineSet
EndChar

StartChar: AE
Encoding: 198 198 186
Width: 2030
VWidth: 0
Flags: HW
HStem: 0 119<1063.71 1170.24 1645.38 1914.01> 483 112.229<511.068 980.693> 730 123<1049.09 1534.71> 1324 119<949.524 1936.35>
VStem: 905.71 143<906.863 1338.09>
LayerCount: 2
Fore
SplineSet
957.488 502.999 m 0
 799.556 501.237 561.736 514.151 345.262 485.831 c 0
 339.327 485.055 333.821 484.631 328.741 484.51 c 0
 283.864 483.437 273.207 502.808 272.808 520.827 c 0
 272.206 548.002 298.845 585.009 346.275 586.004 c 0
 536.243 589.989 842.586 583.964 964.438 575.279 c 0
 1000.39 572.718 1020.7 547.048 1020.98 532.194 c 0
 1021.15 523.473 1014.3 503.633 957.488 502.999 c 0
833.508 1391.14 m 0
 855.776 1425.34 879.835 1420.27 931.605 1420 c 0
 1313.12 1418 1568.67 1405.96 1926.66 1423.02 c 0
 1926.66 1423.02 1936.39 1419.55 1937.75 1395.93 c 0
 1939.36 1368.09 1926.87 1345.3 1903.57 1343.97 c 0
 1598.24 1326.51 968.095 1332.04 919.51 1333.98 c 0
 912.811 1334.25 906.221 1330.72 902.655 1325.93 c 0
 815.487 1208.58 175.22 180.713 108.049 48.8867 c 0
 106.786 46.4082 105.456 44.0684 104.069 41.8594 c 0
 81.6943 6.22949 43.5566 2.82031 22.6035 16.1631 c 0
 5.92578 26.7832 -8.27734 52.6689 23.7207 102.814 c 0
 102.406 226.12 736.654 1242.42 833.508 1391.14 c 0
1017.73 1322.16 m 0
 1020.68 1265.98 1022.7 984.766 1028.73 845.137 c 0
 1029.2 834.253 1038.69 825.548 1049.57 826.018 c 0
 1053.05 826.168 1057.34 827.806 1059.31 829.04 c 0
 1064.08 832.021 1068.98 833.741 1077.43 833.037 c 1
 1390.76 818.973 1516.02 825.046 1826.26 849.06 c 0
 1854.61 851.264 1860.98 839.471 1861.87 824.057 c 0
 1863.34 798.625 1842.38 767.525 1813.63 765.971 c 0
 1500.26 749.013 1392.76 753.988 1076.58 750 c 1
 1068.1 750 1063.29 752.196 1058.88 756.051 c 0
 1050.68 763.225 1037.83 762.368 1030.66 754.17 c 0
 1027.29 750.317 1025.68 743.941 1025.71 740.79 c 0
 1028.7 454.405 1040.73 232.912 1043.72 118.479 c 0
 1044 107.486 1053.69 99.3389 1063.01 99.0117 c 0
 1348.42 89.0039 1626.19 87.9932 1912.26 110.061 c 0
 1941.27 112.315 1947.03 100.684 1947.87 87.0127 c 0
 1949.3 63.7188 1929.12 33.5635 1899.6 31.9697 c 0
 1594.64 15.0166 1321.02 23.002 1014.51 19.999 c 0
 1012.37 19.9785 1009.8 19.4717 1008.1 18.877 c 0
 1003.01 17.0957 997.879 16.2578 992.967 16.3281 c 0
 973.304 16.6074 947.227 31.6855 948.703 91.4688 c 1
 952.743 239.052 938.753 1141.7 925.679 1383.11 c 0
 924.535 1403.68 928.932 1400.76 932.667 1400.88 c 0
 958.478 1401.71 1016.77 1352.19 1017.73 1322.16 c 0
EndSplineSet
Colour: ff00
EndChar

StartChar: Thorn
Encoding: 222 222 187
Width: 1050
VWidth: 0
Flags: HW
VStem: 95.4541 140<34.4708 675.925 1344.55 1403.06>
LayerCount: 2
Fore
SplineSet
107.396 1385.45 m 0
 107.277 1390.71 107.449 1395.53 107.858 1399.9 c 0
 111.377 1437.59 129.491 1444.63 148.809 1442.74 c 0
 177.623 1439.93 206.412 1412.54 203.496 1382.96 c 0
 189.087 1236.78 205.324 223.172 215.502 76.6143 c 0
 215.695 73.8389 215.759 71.1484 215.706 68.541 c 0
 214.858 26.4756 183.913 3.92578 159.081 4.58203 c 0
 139.317 5.10449 113.817 19.9893 115.446 79.4521 c 0
 119.482 226.742 111.415 1206.75 107.396 1385.45 c 0
316.422 309.846 m 0
 207.369 323.476 124.326 358.448 67.0352 396.641 c 0
 27.6133 422.923 29.4717 452.041 37.3682 464.985 c 0
 43.4316 474.925 52.6855 478.828 65.459 470.967 c 0
 149.231 419.415 249.341 392.624 329.838 384.11 c 0
 538.118 362.082 761.295 376.918 859.794 571.985 c 0
 864.447 581.201 868.73 590.456 872.652 599.734 c 0
 964.01 815.888 858.327 1042.91 683.702 1116.43 c 0
 530.918 1180.76 362.028 1137.18 216.113 1102.51 c 0
 197.827 1098.16 185.424 1108.15 180.079 1129.89 c 0
 173.138 1158.13 184.788 1190.59 216.813 1198.29 c 0
 373.304 1235.92 558.109 1241.38 665.051 1210.77 c 0
 676.487 1207.5 687.596 1203.92 698.382 1200.05 c 0
 971.765 1101.92 1046.08 812.791 963.617 583.131 c 0
 858.912 291.508 597.191 274.752 316.422 309.846 c 0
EndSplineSet
EndChar

StartChar: thorn
Encoding: 254 254 188
Width: 1063
VWidth: 0
Flags: HW
VStem: 107.059 140<-824.529 154.411 1339.03 1392.06>
LayerCount: 2
Fore
SplineSet
118.995 1374.45 m 0
 118.876 1379.71 119.049 1384.53 119.457 1388.9 c 0
 122.976 1426.59 141.091 1433.63 160.408 1431.74 c 0
 189.224 1428.93 218.012 1401.54 215.096 1371.96 c 0
 200.649 1225.41 216.885 -635.176 227.106 -782.386 c 0
 227.3 -785.161 227.363 -787.852 227.311 -790.459 c 0
 226.462 -832.524 195.519 -855.074 170.687 -854.418 c 0
 150.922 -853.895 125.424 -839.011 127.052 -779.547 c 0
 131.086 -632.175 123.02 1195.49 118.995 1374.45 c 0
323.48 19.8457 m 0
 216.495 33.2188 120.968 87.3926 62.0938 126.641 c 0
 22.6719 152.923 24.5303 182.041 32.4268 194.985 c 0
 38.4902 204.925 47.7441 208.828 60.5186 200.967 c 0
 142.114 150.754 234.337 106.665 336.568 94.1484 c 0
 544.501 68.6846 755.293 78.5273 858.611 270.523 c 0
 865.266 282.888 871.255 295.407 876.603 308.038 c 0
 971.781 532.844 864.865 794.129 690.761 867.433 c 0
 537.976 931.76 369.089 888.18 223.171 853.509 c 0
 204.886 849.163 192.483 859.148 187.139 880.892 c 0
 180.197 909.133 191.848 941.596 223.873 949.295 c 0
 380.367 986.909 565.165 992.385 672.109 961.772 c 0
 683.312 958.566 694.211 955.038 704.812 951.207 c 0
 978.91 852.147 1061.9 544.452 970.7 293.195 c 0
 864.951 1.8457 604.198 -15.2451 323.48 19.8457 c 0
EndSplineSet
EndChar

StartChar: ae
Encoding: 230 230 189
Width: 1550
VWidth: 0
Flags: HW
HStem: 495.063 118.251<750.244 1213.88>
VStem: 1366.68 122<665.978 820.928>
LayerCount: 2
Fore
SplineSet
730.623 612.854 m 0
 745.74 675.526 772.028 735.426 809.943 788.353 c 0
 906.461 923.086 1046.66 973.951 1173.87 969.643 c 0
 1340.21 964.007 1472.92 865.7 1468.69 746.709 c 0
 1468.57 743.159 1468.37 739.659 1468.09 736.21 c 0
 1453.16 547.558 1207.08 478.617 845.078 507.598 c 0
803.41 470.753 m 0
 806.667 340.892 861.186 212.458 970.689 141.234 c 0
 1128.24 38.7607 1336.33 119.792 1438.04 211.119 c 0
 1460.08 230.902 1480.23 227.418 1492.35 217.339 c 0
 1506.01 205.974 1513.99 181.866 1489.43 152.945 c 0
 1405.11 53.627 1143.92 -46.3916 962.348 41.9824 c 0
 782.121 129.699 693.102 347.377 719.809 554.17 c 0
854.633 581.266 m 0
 928.557 573.621 998.045 571.169 1060.87 573.662 c 0
 1243.69 580.919 1391.06 630.342 1386.66 740.794 c 0
 1385.57 768.414 1375.31 793.604 1358.97 814.725 c 0
 1286.22 908.751 1093.21 932.882 960.336 829.803 c 0
 893.56 778 848.312 704.988 824.153 625.365 c 0
804.049 511.254 m 1
 792.976 512.342 779.441 513.772 769.792 514.852 c 1
 764.362 520.046 757.144 552.801 761.455 578.346 c 0
 762.502 584.548 764.184 589.842 765.479 592.72 c 1
 781.804 590.225 797.966 587.973 814.013 585.938 c 1
 808.827 561.481 805.484 536.271 804.049 511.254 c 1
693.14 120.331 m 0
 606.472 59.0625 506.904 23.6621 412.223 12.3379 c 0
 222.209 -10.3867 63.7344 62.7861 47.3115 200.371 c 0
 20.5322 424.713 235.595 558.783 421.333 585.199 c 0
 555.132 604.229 659.343 591.642 703.687 585.219 c 0
 715.997 583.437 726.313 593.795 726.548 604.577 c 0
 726.997 625.182 726.996 680.947 727.836 701.172 c 0
 729.971 752.653 714.511 795.438 685.384 826.377 c 0
 583.78 934.3 342.229 891.156 168.113 726.533 c 0
 148.382 707.879 135.983 712.691 126.938 722.649 c 0
 112.032 739.06 106.125 779.934 143.189 813.096 c 0
 304.807 957.706 543.005 1005.07 693.877 931.044 c 0
 789.741 884.012 813.61 784.955 807.907 707.469 c 0
 792.755 501.609 783.938 390.807 803.224 309.391 c 0
 815.47 257.69 770.088 174.729 693.14 120.331 c 0
707.623 498.77 m 0
 686.324 503.458 556.969 536.829 448.837 515.626 c 0
 306.92 487.799 99.0537 389.029 132.211 216.23 c 0
 139.23 179.649 161.943 150.646 192.784 130.234 c 0
 323.551 43.6855 620.788 87.3877 747.372 278.975 c 0
 750.41 283.574 751.213 289.82 750.209 294.339 c 0
 737.588 351.133 721.882 378.445 723.322 478.951 c 0
 723.457 488.378 716.688 496.774 707.623 498.77 c 0
EndSplineSet
EndChar

StartChar: germandbls
Encoding: 223 223 190
Width: 1134
VWidth: 0
Flags: HW
HStem: 722.462 153<394.168 654.365>
VStem: 80.999 140.001<27.2564 1205.66>
LayerCount: 2
Fore
SplineSet
193.574 963.932 m 0
 193.743 893.742 200.351 97.7207 201.019 82.1445 c 0
 201.104 80.1455 201.127 78.1885 201.09 76.2734 c 0
 200.233 32.2588 168.434 8.93945 143.805 9.52246 c 0
 124.603 9.97754 99.3525 24.5859 100.991 84.4521 c 0
 104.798 223.377 105.058 840.798 106.599 980.781 c 0
 109.94 1284.39 236.259 1378.96 346.467 1406.6 c 0
 385.838 1416.48 423.915 1422.74 460.424 1425.75 c 0
 718.567 1447.05 895.546 1307.52 910.067 1130.37 c 0
 924.251 957.334 837.448 867.433 685.913 843.76 c 0
 675.149 842.078 667.559 831.675 669.24 820.912 c 0
 670.88 810.418 681.044 803.782 689.53 804.007 c 0
 831.456 807.767 969.432 720.76 1043.71 552.906 c 0
 1047.15 545.136 1050.31 537.17 1053.19 529.036 c 0
 1115.18 354.125 1045.17 112.7 872.358 51.8652 c 0
 685.561 -13.8926 509.269 -9.92285 356.334 60.1807 c 0
 322.866 75.5215 315.6 116.752 326.467 140.32 c 0
 332.599 153.619 340.16 158.585 356.483 150.903 c 0
 521.744 73.1328 692.513 78.3438 817.443 128.437 c 0
 829.999 133.472 841.882 139.166 853.085 145.461 c 0
 1001.06 228.619 1023.78 411.115 947.431 546.808 c 0
 845.544 727.897 629.628 720.863 442.276 742.331 c 0
 394.277 747.832 378.266 772.798 376.935 795.046 c 0
 375.299 822.391 396.252 853.262 438.455 855.49 c 0
 455.286 856.379 472.346 857.73 489.45 859.584 c 0
 654.544 877.473 845.515 945.396 826.882 1116.17 c 0
 826.084 1123.47 824.955 1130.66 823.502 1137.7 c 0
 791.6 1292.48 610.77 1369.63 400.891 1325.57 c 0
 289.45 1302.18 192.988 1206.41 193.574 963.932 c 0
EndSplineSet
EndChar

StartChar: eth
Encoding: 240 240 191
Width: 1028
VWidth: 0
Flags: HW
LayerCount: 2
Fore
SplineSet
873.173 1362.25 m 0
 742.923 1242.07 627.326 1177.5 507.362 1111.53 c 0
 474.94 1093.69 458.573 1105.54 451.321 1119.99 c 0
 442.496 1137.57 446.294 1164.29 473.944 1178.11 c 0
 610.875 1246.58 700.415 1304.97 825.596 1406.46 c 0
 855.63 1430.82 872.979 1423.26 880.836 1414.76 c 0
 890.812 1403.98 893.68 1381.18 873.173 1362.25 c 0
840.692 736.086 m 0
 770.346 814.275 656.499 871.882 519.449 865.356 c 0
 482.452 863.595 445.085 852.751 408.97 835.156 c 0
 223.219 744.662 53.6455 465.531 164.427 238.604 c 0
 183.917 198.682 213.536 164.715 249.976 138.574 c 0
 394.646 34.791 645.053 54.1611 819.181 297.748 c 0
 874.259 374.797 890.956 490.155 889.944 603.866 c 0
968.435 689.375 m 0
 976.605 509.262 944.452 327.966 874.917 233.888 c 0
 774.105 97.4941 659.156 27.9727 548.221 3.0459 c 0
 313.46 -49.7031 95.0195 98.0654 60.0068 254.371 c 0
 -8.92285 562.089 164.786 863.866 467.164 936.554 c 0
 587.574 965.498 712.913 936.282 804.499 871.142 c 0
 809.003 867.938 813.425 864.647 817.759 861.275 c 0
853.1 884.832 m 0
 851.685 890.291 850.254 895.69 848.806 901.03 c 0
 777.34 1164.61 662.784 1283.52 461.736 1429.19 c 0
 443.709 1442.26 444.614 1455.19 453.121 1467.91 c 0
 465.681 1486.69 495.851 1498.53 522.852 1480.4 c 0
 729.864 1341.4 882.039 1161.99 943.471 883.688 c 0
 954.816 832.287 962.567 777.354 966.551 721.631 c 0
869.302 812.458 m 1
 896.155 781.263 916.709 745.916 928.963 707.869 c 0
 932.604 696.564 915.484 659.41 898.426 646.652 c 1
 895.127 654.461 891.443 662.188 887.378 669.851 c 1
 886.662 680.424 885.808 690.945 884.833 701.337 c 0
 881.191 740.133 875.769 777.881 869.302 812.458 c 1
EndSplineSet
EndChar

StartChar: sterling
Encoding: 163 163 192
Width: 1157
VWidth: 0
Flags: HW
HStem: 282 114<179.347 337.719> 699.454 140<164.871 248.339 401.365 815.639>
VStem: 248.339 134.732<837.329 1171.81>
LayerCount: 2
Fore
SplineSet
968.356 1234.73 m 0
 849.677 1327.98 720.66 1383.82 575.752 1318.22 c 0
 424.293 1249.65 352.463 1138.11 355.002 971.694 c 0
 355.769 921.494 358.707 874.779 363.174 831.005 c 0
 364.243 820.534 373.797 813.167 382.783 813.037 c 0
 508.187 811.229 647.434 814.495 743.358 823.951 c 0
 745.14 824.127 746.884 824.196 748.599 824.17 c 0
 778.148 823.706 803.961 791.396 803.361 763.766 c 0
 802.98 746.169 793.663 726.775 745.846 727.85 c 0
 634.344 730.355 512.302 728.021 400.813 724.946 c 0
 388.667 724.611 379.545 713.12 381.689 701.364 c 0
 412.77 530.999 459.629 408.335 466.745 283.473 c 0
 467.081 277.58 470.251 271.964 474.698 268.621 c 0
 649.208 137.486 833.617 -59.9355 1069.61 159.349 c 0
 1080.7 169.647 1093.61 167.703 1105.59 151.89 c 0
 1120.36 132.389 1125.19 96.6318 1085.94 66.9531 c 0
 868.095 -97.7549 651.646 24.3018 485.83 148.576 c 0
 477.113 155.109 464.365 153.284 457.831 144.566 c 0
 456.44 142.711 454.96 139.251 454.686 138.341 c 0
 448.007 116.171 437.845 97.2275 425.053 81.1279 c 0
 357.643 -3.71484 211.986 -10.6035 126.475 57.6328 c 0
 96.1885 81.8008 76.7285 120.923 69.79 164.897 c 0
 54.7451 260.248 98.7295 362.49 186.11 376.243 c 0
 237.858 384.39 286.515 375.036 334.635 354.554 c 0
 344.658 350.287 356.604 355.1 360.87 365.123 c 0
 362.488 368.926 362.771 373.626 362.031 377.11 c 0
 341.844 472.179 308.623 584.951 286.713 704.558 c 0
 284.918 714.352 275.782 721.226 266.438 720.944 c 0
 248.553 720.405 231.313 719.897 214.853 719.447 c 0
 209.7 719.306 204.862 719.391 200.335 719.672 c 0
 150.252 722.785 138.714 746.956 140.064 767.031 c 0
 141.785 792.599 167.046 822.628 212.014 819.503 c 0
 223.231 818.724 235.015 818.009 247.278 817.357 c 0
 259.563 816.704 269.222 827.694 268.269 839.008 c 0
 264.553 883.133 263.427 927.527 265.968 971.651 c 0
 278.167 1183.59 359.658 1319.47 552.889 1402.42 c 0
 728.446 1477.78 889.252 1420.07 1032.29 1285.44 c 0
 1049.19 1269.53 1048.52 1245.31 1036.7 1230.11 c 0
 1026.19 1216.58 1004.63 1206.22 968.356 1234.73 c 0
370.389 238.621 m 0
 326.003 272.937 289.783 301.042 255.556 301.992 c 0
 221.315 302.943 192.879 287.371 174.397 265.911 c 0
 146.125 233.082 135.691 178.456 173.061 146.75 c 0
 194.867 128.247 222.899 109.229 253.647 101.431 c 0
 303.45 88.8008 353.299 112.732 373.403 193.15 c 0
 375.62 202.021 377.133 211.269 378.063 220.868 c 0
 378.726 227.705 375.624 234.574 370.389 238.621 c 0
EndSplineSet
EndChar

StartChar: doublestorya
Encoding: 65537 -1 193
Width: 885
VWidth: 0
Flags: HW
VStem: 709.322 119.846<298.073 547.423 690.013 855.333> 719.458 135.71<-13.7183 72.7168>
LayerCount: 2
Fore
SplineSet
816.747 -2.14746 m 0
 763.202 -8.67578 748.004 16.6416 739.241 75.6543 c 0
 737.642 86.4297 727.297 94.0996 716.521 92.5 c 0
 713.429 92.041 710.377 90.79 707.913 89.0479 c 0
 620.342 27.1406 518.529 -10.4648 421.389 -24.1631 c 0
 228.806 -51.3213 67.5947 14.7812 48.5752 150.77 c 0
 10.9521 419.782 283.253 587.302 480.396 640.695 c 0
 595.198 671.787 664.095 676.145 705.002 670.22 c 0
 717.312 668.437 727.628 678.796 727.863 689.576 c 0
 728.304 709.782 728.745 730.42 729.164 751.604 c 0
 730.056 796.655 716.46 834.146 690.952 861.327 c 0
 591.929 966.845 346.459 907.911 169.429 740.533 c 0
 149.697 721.879 137.299 726.691 128.254 736.649 c 0
 113.348 753.06 107.44 793.934 144.504 827.095 c 0
 306.137 971.72 572.653 1028.89 722.224 954.111 c 0
 788.479 920.987 813.3 837.564 809.195 759.044 c 0
 793.2 453.031 795.532 348.095 835.395 85.0039 c 0
 836.393 78.415 837.271 72.1553 837.996 66.2471 c 0
 844.813 10.7109 838.979 0.5625 816.747 -2.14746 c 0
715.152 544.251 m 0
 689.914 559.844 651.644 586.937 539.78 567.711 c 0
 535.021 566.894 530.09 565.915 524.991 564.781 c 0
 390.364 534.854 85.3906 381.52 133.649 165.638 c 0
 138.337 144.666 147.667 126.237 160.646 110.978 c 0
 262.238 -8.4668 565.209 59.8154 722.346 194.639 c 0
 727.194 198.8 729.549 205.8 729.297 210.82 c 0
 723.539 325.54 723.17 424.529 724.638 526.949 c 0
 724.743 534.271 720.056 541.222 715.152 544.251 c 0
EndSplineSet
EndChar

StartChar: dcroat
Encoding: 273 273 194
Width: 977
VWidth: 0
Flags: HW
HStem: 1128 121<455.952 976.676>
VStem: 738.4 136<75.4526 1421.63>
LayerCount: 2
Fore
SplineSet
903.494 1152.04 m 0
 725.072 1156.05 662.096 1151.98 516.453 1147.99 c 0
 510.276 1147.82 504.534 1147.94 499.221 1148.29 c 0
 449.38 1151.59 440.739 1172.78 441.631 1185.93 c 0
 442.888 1204.48 466.112 1232.35 513.614 1229.05 c 0
 657.775 1219.03 759.625 1214.97 902.963 1229.1 c 0
 905.032 1229.3 907.06 1229.39 909.049 1229.36 c 0
 940.436 1229 963.27 1200.64 962.976 1180.7 c 0
 962.807 1169.19 955.196 1150.88 903.494 1152.04 c 0
758.395 1378.45 m 0
 758.276 1383.7 758.447 1388.5 758.854 1392.87 c 0
 762.354 1430.5 780.401 1437.57 799.626 1435.77 c 0
 828.475 1433.06 857.42 1405.62 854.497 1375.96 c 0
 840.095 1229.89 851.863 211.296 862.048 64.6143 c 0
 862.24 61.8389 862.305 59.1484 862.252 56.541 c 0
 861.406 14.4756 830.459 -8.07422 805.628 -7.41797 c 0
 785.863 -6.89453 760.363 7.98926 761.992 67.4531 c 0
 766.024 214.619 762.413 1199.63 758.395 1378.45 c 0
717.623 842.15 m 0
 667.042 872.498 573.485 892.134 465.209 865.418 c 0
 455.742 863.082 446.415 860.445 437.234 857.522 c 0
 212.371 785.937 74.8652 542.311 142.865 330.271 c 0
 154.473 294.077 170.381 261.198 190.007 232.049 c 0
 308.302 56.3574 555.343 23.0977 790.181 181.417 c 0
 816.12 198.904 820.093 191.369 820.093 191.369 c 0
 823.797 186.695 824.444 148.133 781.694 114.766 c 0
 730.793 75.0391 672.994 45.3955 612.644 26.7578 c 0
 391.85 -41.4287 141.088 36.7275 60.1152 299.882 c 0
 57.375 308.789 54.9229 317.801 52.7568 326.902 c 0
 -5.42969 571.42 143.809 877.052 434.713 946.163 c 0
 579.59 980.582 732.005 944.87 770.57 916.825 c 0
 792.975 900.532 793.877 876.708 782.489 857.407 c 0
 770.285 836.723 746.313 824.937 717.623 842.15 c 0
EndSplineSet
EndChar

StartChar: circumflex
Encoding: 710 710 195
Width: 617
VWidth: 0
Flags: HW
LayerCount: 2
Fore
SplineSet
83.7441 1177.67 m 0
 156.427 1270.45 193.042 1330.53 255.815 1429.27 c 0
 266.167 1445.55 277.096 1456.69 286.956 1462.7 c 0
 306.901 1474.85 331.347 1473.67 362.826 1421.65 c 0
 418.549 1329.56 470.113 1262.86 538.938 1170.08 c 0
 550.804 1154.09 543.306 1123.17 524.723 1109.62 c 0
 513.758 1101.63 500.592 1098.01 482.188 1123.66 c 0
 431.3 1194.59 383.7 1262.03 323.94 1358.53 c 0
 318.205 1367.79 305.67 1370.74 296.408 1365 c 0
 293.791 1363.38 291.381 1360.86 289.954 1358.56 c 0
 224.615 1253.52 169.838 1186.15 129.45 1127.32 c 0
 114.684 1105.81 97.3955 1107.46 84.8438 1117.14 c 0
 71.1748 1127.68 62.1729 1150.13 83.7441 1177.67 c 0
EndSplineSet
EndChar

StartChar: tilde
Encoding: 732 732 196
Width: 959
VWidth: 0
Flags: HW
LayerCount: 2
Fore
SplineSet
750.929 1142.9 m 0
 697.846 1071.24 593.822 1038.81 456.261 1119.26 c 0
 350.797 1180.94 285.812 1161.26 225.701 1089.88 c 0
 209.77 1070.96 194.555 1070.17 184.474 1074.41 c 0
 170.778 1080.17 156.227 1101.4 171.544 1137.12 c 0
 173.52 1141.72 176.441 1146.9 180.284 1152.34 c 0
 222.344 1211.8 354.075 1277.98 465.573 1198.7 c 0
 570.217 1124.29 630.226 1125.16 713.862 1205.58 c 0
 738.091 1228.88 761.614 1227.46 770.029 1221.31 c 0
 776.766 1216.38 789.153 1194.51 750.929 1142.9 c 0
EndSplineSet
EndChar

StartChar: ring
Encoding: 730 730 197
Width: 520
VWidth: 0
Flags: HW
LayerCount: 2
Fore
SplineSet
147.721 1412.79 m 0
 115.626 1387.82 98.1621 1351.12 92.749 1313.18 c 0
 80.9932 1230.76 125.351 1130.14 219.268 1117.19 c 0
 232.479 1115.37 245.172 1114.34 257.346 1114.12 c 0
 360.898 1112.3 422.465 1173.39 423.998 1280.71 c 0
 424.603 1323.03 411.999 1358.94 390.73 1386.38 c 0
 334.271 1459.21 221.564 1470.22 147.721 1412.79 c 0
52.4258 1356.01 m 0
 59.6729 1391.62 77.4014 1419.93 102.172 1441.92 c 0
 187.444 1517.62 354.496 1512.13 429.833 1426.77 c 0
 451.132 1402.63 464.603 1372.95 470.93 1340.44 c 0
 493.686 1223.54 421.938 1081.67 311.016 1060.13 c 0
 279.548 1054.02 248.115 1054.24 218.493 1060.23 c 0
 107.064 1082.76 17.9707 1186.72 52.4258 1356.01 c 0
EndSplineSet
EndChar

StartChar: caron
Encoding: 711 711 198
Width: 617
VWidth: 0
Flags: HW
LayerCount: 2
Fore
SplineSet
532.768 1378.33 m 0
 460.085 1285.55 423.47 1225.47 360.697 1126.73 c 0
 350.346 1110.45 339.417 1099.31 329.556 1093.3 c 0
 309.611 1081.15 285.166 1082.33 253.686 1134.35 c 0
 197.963 1226.44 146.398 1293.14 77.5742 1385.92 c 0
 65.708 1401.91 73.2061 1432.83 91.7891 1446.38 c 0
 102.754 1454.37 115.92 1457.99 134.324 1432.34 c 0
 185.213 1361.41 232.811 1293.97 292.569 1197.47 c 0
 298.306 1188.21 310.841 1185.26 320.103 1191 c 0
 322.72 1192.62 325.13 1195.14 326.557 1197.44 c 0
 391.896 1302.48 446.674 1369.85 487.062 1428.68 c 0
 501.827 1450.19 519.115 1448.54 531.668 1438.86 c 0
 545.338 1428.32 554.34 1405.87 532.768 1378.33 c 0
EndSplineSet
EndChar

StartChar: uni02CB
Encoding: 715 715 199
Width: 485
VWidth: 0
Flags: HW
LayerCount: 2
Fore
SplineSet
53.793 1401.21 m 0
 39.7842 1414.34 42.3408 1435.7 62.1465 1453.62 c 0
 81.7666 1471.36 109.666 1476.97 133.906 1450.14 c 0
 242.858 1329.55 327.97 1236.45 427.051 1130.35 c 0
 446.656 1109.36 441.857 1095.68 435.606 1089.08 c 0
 426.836 1079.84 399.281 1072.02 365.517 1104.43 c 0
 264.512 1201.37 195.437 1268.52 53.793 1401.21 c 0
EndSplineSet
EndChar

StartChar: uni02CA
Encoding: 714 714 200
Width: 485
VWidth: 0
Flags: HW
LayerCount: 2
Fore
SplineSet
432.14 1407.3 m 0
 290.46 1274.56 221.325 1207.37 120.32 1110.43 c 0
 87.7891 1079.21 60.7617 1085.36 51.2764 1094.06 c 0
 44.1455 1100.59 38.4062 1114.53 58.7861 1136.35 c 0
 157.873 1242.44 242.972 1335.55 351.929 1456.14 c 0
 377.487 1484.42 407.837 1476.68 427.155 1456.22 c 0
 443.829 1438.57 445.406 1419.73 432.14 1407.3 c 0
EndSplineSet
EndChar

StartChar: uni02C9
Encoding: 713 713 201
Width: 695
VWidth: 0
Flags: HW
HStem: 1330.2 117<59.3846 638.872>
LayerCount: 2
Fore
SplineSet
592.882 1350.19 m 0
 414.331 1354.21 265.882 1350.19 119.886 1346.19 c 0
 113.71 1346.02 107.968 1346.13 102.653 1346.49 c 0
 52.8125 1349.79 44.1719 1370.98 45.0635 1384.13 c 0
 46.3203 1402.68 69.5449 1430.55 117.047 1427.25 c 0
 261.879 1417.18 446.45 1413.11 590.396 1427.3 c 0
 592.465 1427.5 594.492 1427.59 596.481 1427.56 c 0
 627.866 1427.2 650.701 1398.84 650.406 1378.9 c 0
 650.235 1367.39 643.221 1349.06 592.882 1350.19 c 0
EndSplineSet
EndChar

StartChar: beta
Encoding: 946 946 202
Width: 1134
VWidth: 0
Flags: HW
HStem: 722.462 153<394.168 654.365>
VStem: 86.5996 126.974<514.785 1187.08> 89.999 140.001<-523.744 3.49384>
LayerCount: 2
Fore
SplineSet
193.574 963.932 m 0
 193.744 893.619 209.354 -453.358 210.019 -468.855 c 0
 210.104 -470.854 210.126 -472.812 210.089 -474.727 c 0
 209.232 -518.741 177.434 -542.06 152.805 -541.478 c 0
 133.604 -541.023 108.352 -526.413 109.991 -466.548 c 0
 113.808 -327.274 105.061 841.012 106.599 980.781 c 0
 109.94 1284.39 236.259 1378.96 346.467 1406.6 c 0
 385.838 1416.48 423.915 1422.74 460.424 1425.75 c 0
 718.567 1447.05 895.546 1307.52 910.067 1130.37 c 0
 924.251 957.334 837.448 867.433 685.913 843.76 c 0
 675.149 842.078 667.559 831.675 669.24 820.912 c 0
 670.88 810.418 681.044 803.782 689.53 804.007 c 0
 831.456 807.767 969.432 720.76 1043.71 552.906 c 0
 1047.15 545.136 1050.31 537.17 1053.19 529.036 c 0
 1115.18 354.125 1045.17 112.7 872.358 51.8652 c 0
 685.561 -13.8926 509.269 -9.92285 356.334 60.1807 c 0
 322.866 75.5215 315.6 116.752 326.467 140.32 c 0
 332.599 153.619 340.16 158.585 356.483 150.903 c 0
 521.744 73.1328 692.513 78.3438 817.443 128.437 c 0
 829.999 133.472 841.882 139.166 853.085 145.461 c 0
 1001.06 228.619 1023.78 411.115 947.431 546.808 c 0
 845.544 727.897 629.628 720.863 442.276 742.331 c 0
 394.277 747.832 378.266 772.798 376.935 795.046 c 0
 375.299 822.391 396.252 853.262 438.455 855.49 c 0
 455.286 856.379 472.346 857.73 489.45 859.584 c 0
 654.544 877.473 845.515 945.396 826.882 1116.17 c 0
 826.084 1123.47 824.955 1130.66 823.502 1137.7 c 0
 791.6 1292.48 610.77 1369.63 400.891 1325.57 c 0
 289.45 1302.18 192.988 1206.41 193.574 963.932 c 0
EndSplineSet
EndChar

StartChar: ogonek
Encoding: 731 731 204
Width: 947
VWidth: 0
Flags: HW
LayerCount: 2
Fore
SplineSet
360.717 31.1797 m 0
 361.789 32.291 371.964 36.6699 382.034 37.2881 c 1
 329.019 -46.0635 310.477 -112.328 357.688 -156.591 c 0
 417.879 -213.019 542.67 -189.411 622.481 -120.102 c 0
 631.973 -111.858 636.886 -113.144 644.611 -122.989 c 0
 659.791 -142.335 664.438 -189.553 625.074 -220.225 c 0
 534.496 -290.811 381.585 -294.345 322.902 -232.262 c 0
 270.707 -177.04 283.986 -61.46 360.717 31.1797 c 0
EndSplineSet
EndChar

StartChar: dotaccent
Encoding: 729 729 220
Width: 299
VWidth: 0
Flags: HW
LayerCount: 2
Fore
SplineSet
86.9004 1434.01 m 0
 87.7061 1442.07 91.7197 1449.89 99.0547 1457.09 c 0
 122.127 1479.71 164.354 1482.94 180.613 1466.11 c 0
 188.849 1457.58 195.521 1446.22 199.893 1433.55 c 0
 214.395 1391.51 201.517 1348.89 172.499 1338.91 c 0
 166.253 1336.77 160.305 1336.15 154.336 1336.73 c 0
 119.602 1340.06 82.502 1390.02 86.9004 1434.01 c 0
EndSplineSet
EndChar

StartChar: breve
Encoding: 728 728 221
Width: 979
VWidth: 0
Flags: HW
HStem: 1267 130<313.971 666.242>
LayerCount: 2
Fore
SplineSet
207.739 1424.01 m 0
 192.029 1444.26 197.656 1463.7 209.438 1475.52 c 0
 220.631 1486.76 229.861 1485.6 234.6 1480.86 c 0
 320.375 1395.08 386.295 1379.04 489.325 1377 c 0
 588.088 1374.95 663.357 1393.82 732.847 1473.89 c 0
 746.627 1489.77 757.016 1487.94 765.286 1482.63 c 0
 778.695 1474.02 788.24 1450.05 773.047 1427.01 c 0
 715.104 1339.17 616.081 1287.96 491.588 1287 c 0
 367.215 1286.04 280.42 1330.28 207.739 1424.01 c 0
EndSplineSet
EndChar

StartChar: hungarumlaut
Encoding: 733 733 251
Width: 582
VWidth: 0
Flags: HW
VStem: 161.409 131<1356.82 1512.03> 422.409 131<1356.82 1512.03>
LayerCount: 2
Fore
SplineSet
534.863 1470.49 m 0
 461.803 1290.33 427.746 1200.19 376.78 1070.28 c 1
 360.254 1027.78 332.584 1022.23 320.05 1026.44 c 0
 310.733 1029.57 299.962 1039.77 309.393 1067.7 c 1
 354.469 1205.94 393.448 1325.86 441.519 1481.1 c 1
 452.718 1517.5 483.466 1523.24 509.675 1512.8 c 0
 532.31 1503.79 541.614 1487.24 534.863 1470.49 c 0
273.866 1470.49 m 0
 200.821 1290.38 166.741 1200.18 115.78 1070.28 c 1
 99.2549 1027.78 71.583 1022.23 59.0498 1026.44 c 0
 49.7344 1029.57 38.9619 1039.77 48.3926 1067.7 c 1
 93.4688 1205.94 132.448 1325.86 180.519 1481.1 c 1
 191.718 1517.5 222.466 1523.24 248.675 1512.8 c 0
 271.31 1503.79 280.617 1487.25 273.866 1470.49 c 0
EndSplineSet
EndChar

StartChar: IJ
Encoding: 306 306 252
Width: 1552
VWidth: 0
Flags: H
HStem: -291 114<259.015 728.758> 1381.3 110.32<274.198 665.694>
VStem: 140.074 140.001<13.2231 1381.3>
LayerCount: 2
Fore
SplineSet
160.428 1419.68 m 0
 159.14 1476.99 178.348 1472.47 224.661 1471.62 c 0
 533.209 1466.04 779.77 1435.11 1161.06 1494.24 c 0
 1163.86 1494.67 1166.59 1494.95 1169.26 1495.09 c 0
 1214.13 1497.44 1249.6 1458.77 1252.03 1410.98 c 0
 1279.15 877.633 1347.58 377.244 1122.25 31.9307 c 0
 934.325 -256.058 674.494 -314.685 304.337 -271.137 c 0
 256.028 -265.454 244.179 -235.74 246.968 -217.732 c 0
 249.092 -204.021 258.337 -193.148 280.84 -196.749 c 0
 580.904 -244.759 824.403 -201.786 1022.35 35.1787 c 0
 1242.78 299.064 1228.8 734.038 1168.92 1395.8 c 0
 1167.86 1407.48 1156.56 1415.28 1146.17 1413.8 c 0
 849.137 1371.36 481.964 1391.99 275.097 1401.28 c 0
 263.729 1401.79 254.691 1392.17 254.221 1382.25 c 0
 243.259 1151.4 250.543 205.469 260.123 67.5186 c 0
 260.315 64.7432 260.38 62.0527 260.327 59.4453 c 0
 259.479 17.3799 228.534 -5.16992 203.703 -4.51367 c 0
 183.938 -3.99023 158.438 10.8936 160.066 70.3574 c 0
 164.097 217.426 164.452 1240.75 160.428 1419.68 c 0
EndSplineSet
EndChar

StartChar: ij
Encoding: 307 307 253
Width: 930
VWidth: 0
Flags: HW
VStem: 150.459 136<112.257 230.027 578.368 973.622> 642.059 140<-801.681 697>
LayerCount: 2
Fore
SplineSet
160.359 1354.01 m 0
 161.165 1362.07 165.178 1369.89 172.514 1377.09 c 0
 195.586 1399.71 237.813 1402.94 254.071 1386.11 c 0
 262.307 1377.58 268.979 1366.22 273.35 1353.55 c 0
 287.852 1311.51 274.973 1268.89 245.959 1258.91 c 0
 239.712 1256.77 233.764 1256.15 227.794 1256.73 c 0
 193.059 1260.06 155.961 1310.02 160.359 1354.01 c 0
623.37 699.43 m 0
 586.643 399.444 455.183 80.8096 418.213 33.2783 c 0
 376.289 -20.6221 322.69 -48.7002 267.493 -26.457 c 1
 195.097 2.86914 160.587 49.6191 162.992 137.453 c 0
 167.005 283.888 174.479 751.479 170.454 930.449 c 0
 170.336 935.712 170.508 940.526 170.916 944.903 c 0
 174.435 982.589 192.549 989.627 211.867 987.743 c 0
 240.682 984.934 269.471 957.539 266.556 927.962 c 0
 252.31 783.477 244.873 317.164 255.049 170.614 c 0
 255.831 159.338 258.845 148.432 263.462 138.41 c 0
 277.219 108.548 312.21 77.3311 352.37 95.835 c 0
 474.112 151.934 612.996 781.979 625.912 919.124 c 0
 630.79 970.914 663.114 985.369 696.382 982.184 c 0
 733.311 978.647 760.036 953.124 757.556 927.962 c 0
 743.139 781.729 751.895 -600.316 762.107 -747.385 c 0
 762.3 -750.16 762.364 -752.852 762.312 -755.459 c 0
 761.465 -797.524 730.518 -820.074 705.687 -819.418 c 0
 685.922 -818.895 660.424 -804.011 662.052 -744.548 c 0
 665.385 -622.811 665.53 273.187 663.222 697.108 c 0
 663.162 708.002 654.007 717.059 643.113 716.999 c 0
 632.498 716.941 624.407 707.9 623.37 699.43 c 0
630.424 1354.65 m 0
 631.229 1362.71 635.178 1369.89 642.514 1377.09 c 0
 665.585 1399.71 707.813 1402.94 724.072 1386.11 c 0
 732.307 1377.58 738.979 1366.22 743.351 1353.55 c 0
 757.852 1311.51 744.973 1268.89 715.958 1258.91 c 0
 709.711 1256.77 703.763 1256.15 697.794 1256.73 c 0
 663.06 1260.06 626.007 1310.48 630.424 1354.65 c 0
EndSplineSet
EndChar

StartChar: uni0237
Encoding: 567 567 278
Width: 545
VWidth: 0
Flags: HW
VStem: 254.9 132.1<480.334 967.598>
LayerCount: 2
Fore
SplineSet
274.759 938.378 m 0
 271.847 962.695 282.786 970.792 302.153 973.092 c 0
 332.814 976.731 364.882 956.827 367.124 936.777 c 0
 428.433 388.521 441.063 -176.393 400.096 -467.209 c 0
 372.37 -664.018 283.018 -772.908 176.652 -822.951 c 0
 -14.1289 -912.709 -267.315 -813.288 -341.897 -654.497 c 0
 -356.158 -624.135 -345.928 -607.309 -340.638 -603.799 c 0
 -337.878 -601.968 -330.4 -598.252 -318.699 -616.006 c 0
 -274.335 -683.32 -198.897 -734.959 -115.827 -760.7 c 0
 34.6602 -807.331 217.686 -767.41 280.016 -564.883 c 0
 365.308 -287.743 341.026 384.887 274.759 938.378 c 0
EndSplineSet
EndChar

StartChar: gcommaaccent
Encoding: 291 291 315
Width: 900
VWidth: 0
Flags: HW
VStem: 422 130<1071.36 1389.52>
LayerCount: 2
Fore
SplineSet
532.012 1110.34 m 0
 532.997 1082.37 516.959 1070.54 495.521 1068.3 c 0
 468.727 1065.5 444.208 1080.6 441.901 1103.98 c 0
 427.504 1248.98 490.354 1439.67 553.784 1509.53 c 1
 578.107 1536.13 597.489 1531.74 608.956 1522.09 c 0
 623.362 1509.97 630.752 1483.02 608.689 1456.87 c 1
 516.213 1346.33 528.062 1240.47 532.012 1110.34 c 0
EndSplineSet
Refer: 5 103 N 1 0 0 1 0 0 2
EndChar

StartChar: Hbar
Encoding: 294 294 316
Width: 1333
VWidth: 0
Flags: HW
HStem: 723 140<167.319 687.55> 757 122<687.55 1190.44> 1145 121<8.251 1329.82>
VStem: 90.1387 136.049<930.122 1427.26> 115.621 140.013<15.7803 531.806> 1077.5 136.05<920.031 1417.17> 1102.99 140.01<5.6865 521.713>
LayerCount: 2
Fore
SplineSet
1303.45 1177 m 0
 1124.24 1181.02 201.146 1169.01 54.4531 1164.99 c 0
 48.2773 1164.82 42.5352 1164.94 37.2207 1165.29 c 0
 -12.6201 1168.59 -21.2607 1189.79 -20.3691 1202.93 c 0
 -19.1123 1221.48 4.1123 1249.35 51.6143 1246.05 c 0
 198.658 1235.84 1155.37 1239.74 1300.96 1254.1 c 0
 1303.03 1254.3 1305.06 1254.39 1307.05 1254.36 c 0
 1338.44 1254 1361.27 1225.64 1360.98 1205.7 c 0
 1360.81 1194.19 1353.79 1175.86 1303.45 1177 c 0
EndSplineSet
Refer: 34 72 N 1 0 0 1 0 0 2
EndChar

StartChar: hbar
Encoding: 295 295 317
Width: 1024
VWidth: 0
Flags: HW
HStem: 1141 117<-0.0473022 579.44>
VStem: 99.9551 124.592<763.888 1424.64> 113.982 127.543<-11.8623 572.444> 802.863 126.603<20.4965 502.932>
LayerCount: 2
Fore
SplineSet
531.058 1161.05 m 0
 352.507 1165.06 206.449 1160.99 60.4541 1156.99 c 0
 54.2773 1156.82 48.5352 1156.94 43.2217 1157.29 c 0
 -6.61914 1160.58 -15.2588 1181.79 -14.3682 1194.93 c 0
 -13.1113 1213.48 10.1133 1241.35 57.6152 1238.05 c 0
 202.447 1227.99 387.018 1223.9 530.963 1238.1 c 0
 533.032 1238.3 535.061 1238.39 537.05 1238.36 c 0
 568.436 1238 591.268 1209.64 590.974 1189.7 c 0
 590.805 1178.19 583.062 1159.88 531.058 1161.05 c 0
822.849 41.875 m 0
 836.564 415.055 825.794 596.475 794.455 720.936 c 0
 783.126 765.93 760.425 801.769 730.205 827.157 c 0
 631.998 909.665 465.506 878.958 360.684 753.717 c 0
 213.363 577.696 225.172 317.848 221.528 130.485 c 0
 220.347 69.8086 231.125 16.2764 196.914 7.02344 c 0
 190.041 5.16406 184.17 4.39844 179.215 4.37305 c 0
 149.336 4.21582 134.163 36.1445 133.981 83.9326 c 0
 132.023 597.273 127.188 820.346 119.954 1402.34 c 0
 119.651 1426.59 133.819 1435.35 153.801 1435.24 c 0
 177.984 1435.1 197.334 1419.89 197.09 1400.21 c 0
 193.815 1135.81 202.01 1011.28 204.548 763.683 c 0
 204.659 752.79 213.858 743.777 224.752 743.889 c 0
 231.686 743.961 238.35 748.561 241.158 752.75 c 0
 362.85 934.254 556.32 1015.08 737.396 940.5 c 0
 935.923 858.728 916.629 456.673 909.469 56.9932 c 0
 908.812 20.3311 881.556 3.41797 856.944 4.14941 c 0
 837.079 4.73926 821.869 15.208 822.849 41.875 c 0
EndSplineSet
EndChar

StartChar: kgreenlandic
Encoding: 312 312 318
Width: 991
VWidth: 0
Flags: HW
HStem: 890 114<675.264 807.264>
VStem: 115.554 124.599<53.8902 370.553 731.392 966.335>
LayerCount: 2
Fore
SplineSet
135.939 939.555 m 0
 131.915 991.201 151.368 1001 166.126 1001.89 c 0
 189.521 1003.31 221.222 980.375 223.029 946.92 c 0
 227.05 872.53 231 827.392 231.226 731.345 c 0
 231.252 720.451 240.379 711.366 251.272 711.392 c 0
 256.493 711.403 261.9 713.923 265.058 716.945 c 0
 402.956 848.978 579.961 935.056 733.196 984.983 c 0
 771.935 997.605 804.194 975.578 812.074 953.664 c 0
 817.241 939.292 815.327 921.403 780.251 908.827 c 0
 566.63 832.24 422.357 747.937 285.914 591.13 c 0
 275.178 578.794 263.889 554.506 278.384 532.869 c 0
 416.155 327.216 680.987 67.457 904.488 136.9 c 0
 909.416 138.432 911.692 137.899 912.816 137.485 c 0
 916.283 136.209 928.493 116.016 915.51 81.2119 c 0
 899.482 38.2529 851.814 -7.43066 749.547 30.7373 c 0
 567.042 98.8525 433.398 149.886 270.087 382.06 c 0
 263.819 390.97 251.132 393.179 242.222 386.911 c 0
 236.555 382.925 233.726 375.159 233.729 370.542 c 0
 233.817 203.555 223.817 142.188 220.173 59.7881 c 0
 217.916 8.77832 185.653 -14.1572 167.514 -13.3789 c 0
 155.227 -12.8516 132.517 -0.386719 135.53 62.0361 c 0
 156.545 497.303 154.01 707.65 135.939 939.555 c 0
EndSplineSet
EndChar

StartChar: uni2010
Encoding: 8208 8208 319
Width: 660
VWidth: 0
Flags: HW
HStem: 470.189 140<62.7511 598.151>
LayerCount: 2
Fore
SplineSet
557.877 492.585 m 0
 379.51 496.594 265.923 494.182 119.886 490.182 c 0
 114.733 490.04 109.896 490.125 105.368 490.406 c 0
 55.2832 493.519 43.7461 517.69 45.0967 537.765 c 0
 46.8174 563.334 72.0781 593.36 117.048 590.237 c 0
 261.485 580.208 411.525 574.503 555.39 588.687 c 0
 557.171 588.862 558.915 588.932 560.63 588.905 c 0
 590.182 588.44 615.992 556.129 615.395 528.499 c 0
 615.014 510.903 605.695 491.511 557.877 492.585 c 0
EndSplineSet
EndChar

StartChar: uni2011
Encoding: 8209 8209 320
Width: 660
VWidth: 0
Flags: HW
HStem: 470.189 140<62.7511 598.151>
LayerCount: 2
Fore
SplineSet
557.877 492.585 m 0
 379.51 496.594 265.923 494.182 119.886 490.182 c 0
 114.733 490.04 109.896 490.125 105.368 490.406 c 0
 55.2832 493.519 43.7461 517.69 45.0967 537.765 c 0
 46.8174 563.334 72.0781 593.36 117.048 590.237 c 0
 261.485 580.208 411.525 574.503 555.39 588.687 c 0
 557.171 588.862 558.915 588.932 560.63 588.905 c 0
 590.182 588.44 615.992 556.129 615.395 528.499 c 0
 615.014 510.903 605.695 491.511 557.877 492.585 c 0
EndSplineSet
EndChar

StartChar: figuredash
Encoding: 8210 8210 321
Width: 1035
VWidth: 0
Flags: HW
HStem: 445.189 140<62.7516 973.15>
LayerCount: 2
Fore
SplineSet
932.876 467.585 m 0
 754.108 471.603 266.587 469.2 119.886 465.181 c 0
 114.733 465.04 109.896 465.125 105.369 465.406 c 0
 55.2842 468.518 43.7471 492.691 45.0977 512.765 c 0
 46.8174 538.334 72.0791 568.36 117.048 565.237 c 0
 263.117 555.095 785.156 549.366 930.39 563.686 c 0
 932.17 563.861 933.915 563.932 935.63 563.904 c 0
 965.179 563.44 990.991 531.13 990.392 503.5 c 0
 990.01 485.903 980.693 466.511 932.876 467.585 c 0
EndSplineSet
EndChar

StartChar: endash
Encoding: 8211 8211 322
Width: 1035
VWidth: 0
Flags: HW
HStem: 445.189 140<62.7516 973.15>
LayerCount: 2
Fore
SplineSet
932.876 467.585 m 0
 754.108 471.603 266.587 469.2 119.886 465.181 c 0
 114.733 465.04 109.896 465.125 105.369 465.406 c 0
 55.2842 468.518 43.7471 492.691 45.0977 512.765 c 0
 46.8174 538.334 72.0791 568.36 117.048 565.237 c 0
 263.117 555.095 785.156 549.366 930.39 563.686 c 0
 932.17 563.861 933.915 563.932 935.63 563.904 c 0
 965.179 563.44 990.991 531.13 990.392 503.5 c 0
 990.01 485.903 980.693 466.511 932.876 467.585 c 0
EndSplineSet
EndChar

StartChar: emdash
Encoding: 8212 8212 323
Width: 2173
VWidth: 0
Flags: HW
HStem: 445.189 140<62.7516 2111.15>
LayerCount: 2
Fore
SplineSet
2070.88 467.585 m 0
 1891.79 471.604 267.053 469.213 119.886 465.181 c 0
 114.733 465.04 109.896 465.125 105.369 465.406 c 0
 55.2842 468.518 43.7471 492.691 45.0977 512.765 c 0
 46.8174 538.334 72.0791 568.36 117.048 565.237 c 0
 264.33 555.011 1922.08 549.258 2068.39 563.687 c 0
 2070.18 563.863 2071.93 563.933 2073.65 563.905 c 0
 2103.12 563.432 2128.89 531.273 2128.4 503.659 c 0
 2128.08 485.978 2118.8 466.509 2070.88 467.585 c 0
EndSplineSet
EndChar

StartChar: afii00208
Encoding: 8213 8213 324
Width: 2173
VWidth: 0
Flags: HW
HStem: 445.189 140<62.7516 2111.15>
LayerCount: 2
Fore
SplineSet
2070.88 467.585 m 0
 1891.79 471.604 267.053 469.213 119.886 465.181 c 0
 114.733 465.04 109.896 465.125 105.369 465.406 c 0
 55.2842 468.518 43.7471 492.691 45.0977 512.765 c 0
 46.8174 538.334 72.0791 568.36 117.048 565.237 c 0
 264.33 555.011 1922.08 549.258 2068.39 563.687 c 0
 2070.18 563.863 2071.93 563.933 2073.65 563.905 c 0
 2103.12 563.432 2128.89 531.273 2128.4 503.659 c 0
 2128.08 485.978 2118.8 466.509 2070.88 467.585 c 0
EndSplineSet
EndChar

StartChar: Lslash
Encoding: 321 321 325
Width: 1020
VWidth: 0
Flags: HW
HStem: -12 132<241.82 706.34> 32 122<629.339 1020.23>
VStem: 112 126<115.589 1435.78>
LayerCount: 2
Fore
SplineSet
380.061 797.356 m 0
 216.426 726.58 152.897 695.18 21.9717 630.626 c 0
 16.0557 627.709 10.4619 625.245 5.20312 623.194 c 0
 -41.7529 604.884 -54.748 619.518 -57.1807 625.762 c 0
 -61.5732 637.038 -53.0576 670.52 -5.53223 688.48 c 0
 129.501 739.518 229.952 778.949 354.525 851.765 c 0
 356.727 853.051 358.936 854.177 361.147 855.156 c 0
 391.112 868.418 418.544 853.873 423.647 842.242 c 0
 426.056 836.757 428.782 818.43 380.061 797.356 c 0
EndSplineSet
Refer: 38 76 N 1 0 0 1 0 0 2
EndChar

StartChar: lslash
Encoding: 322 322 326
Width: 406
VWidth: 0
Flags: HW
VStem: 135 130<0 1440>
LayerCount: 2
Fore
SplineSet
400.061 797.356 m 0
 236.426 726.581 172.896 695.179 41.9717 630.625 c 0
 36.0557 627.708 30.4619 625.245 25.2031 623.194 c 0
 -21.752 604.884 -34.748 619.518 -37.1807 625.762 c 0
 -41.5732 637.039 -33.0576 670.52 14.4668 688.48 c 0
 149.5 739.519 249.951 778.949 374.525 851.766 c 0
 376.727 853.052 378.936 854.178 381.147 855.156 c 0
 411.112 868.419 438.544 853.874 443.647 842.243 c 0
 446.055 836.757 448.782 818.43 400.061 797.356 c 0
EndSplineSet
Refer: 11 108 N 1 0 0 1 0 0 2
EndChar

StartChar: Eng
Encoding: 330 330 328
Width: 1140
VWidth: 0
Flags: HW
HStem: -296 120<652.112 859.798>
VStem: 117.311 137<-8.19292 554.411> 911.312 128.998<-122.784 1204.48>
LayerCount: 2
Fore
SplineSet
931.309 50.6768 m 0
 937.067 406.44 939.512 899.316 924.922 1063.77 c 0
 916.03 1163.99 885.073 1235.02 839.135 1281.22 c 0
 708.191 1412.94 480.91 1329.45 371.026 1220.18 c 0
 157.171 1007.52 243.917 309.355 234.339 127.05 c 0
 231.322 69.6582 233.474 16.8955 197.659 8.46875 c 0
 190.766 6.84668 184.892 6.27246 179.941 6.40332 c 0
 149.887 7.19336 135.542 39.7109 137.297 87.2627 c 0
 148.35 386.659 135.061 1021.31 102.916 1372.82 c 0
 100.523 1398.99 118.052 1414.87 140.445 1418.32 c 0
 163.031 1421.8 184.031 1412.04 188.22 1384.04 c 0
 196.123 1331.21 198.031 1284.73 204.087 1219.93 c 0
 205.101 1209.08 215.015 1200.86 225.861 1201.88 c 0
 231.636 1202.42 237.058 1205.69 240.235 1210.11 c 0
 392.059 1421.13 699.614 1478.61 830.605 1398.91 c 0
 950.083 1326.22 1001.35 1209.18 1010.05 1081.64 c 0
 1021.75 909.979 1020.92 242.991 1020.31 61.0674 c 0
 1019.87 -70.8975 1009.98 -159.983 918.795 -229.059 c 0
 842.162 -287.11 757.223 -290.644 688.95 -276.42 c 0
 657.164 -269.799 647.975 -251.668 647.938 -235.489 c 0
 647.893 -215.276 662.766 -196 687.87 -196 c 0
 748.547 -196 794.532 -194.312 850.51 -163.524 c 0
 922.525 -123.916 929.888 -37.0947 931.309 50.6768 c 0
EndSplineSet
EndChar

StartChar: eng
Encoding: 331 331 329
Width: 1026
VWidth: 0
Flags: HW
HStem: -297 120<568.241 775.927>
VStem: 117.311 137<-8.19292 562.529> 827.44 131<-123.784 517.766>
LayerCount: 2
Fore
SplineSet
847.438 49.6758 m 0
 853.177 404.249 860.944 555.161 813.623 715.656 c 0
 799.641 763.08 777.835 800.359 749.882 827.228 c 0
 653.638 919.739 501.697 878.762 389.979 761.815 c 0
 214.231 577.845 244.062 312.122 234.339 127.05 c 0
 231.322 69.6582 233.474 16.8955 197.659 8.46875 c 0
 190.766 6.84668 184.892 6.27246 179.941 6.40332 c 0
 149.887 7.19336 135.542 39.7109 137.297 87.2627 c 0
 148.297 385.251 152.3 561.1 120.229 911.82 c 0
 117.798 938.395 135.06 953.972 156.35 957.335 c 0
 177.767 960.718 198.285 951.423 202.531 923.041 c 0
 210.498 869.774 214.08 823.149 221.439 758.522 c 0
 222.672 747.698 232.75 739.681 243.573 740.913 c 0
 249.876 741.631 255.744 746.128 258.287 750.21 c 0
 368.08 926.453 588.339 1016.02 766.215 935.77 c 0
 962.371 847.272 939.696 433.351 938.439 60.0664 c 0
 938.002 -71.6064 926.275 -160.854 834.922 -230.059 c 0
 758.291 -288.109 673.352 -291.645 605.079 -277.42 c 0
 573.293 -270.799 564.103 -252.668 564.066 -236.489 c 0
 564.021 -216.276 578.895 -197 604 -197 c 0
 664.675 -197 710.662 -195.312 766.639 -164.524 c 0
 838.654 -124.915 846.017 -38.0957 847.438 49.6758 c 0
EndSplineSet
EndChar

StartChar: longs
Encoding: 383 383 332
Width: 675
VWidth: 0
Flags: HW
HStem: -504 120<-97.9006 155.192> 1333 114<426.142 672.717>
VStem: 189 123<563.46 1204.43> 232 122.271<-304.673 483.601>
LayerCount: 2
Fore
SplineSet
-38.2598 -403.961 m 0
 -19.5439 -405.041 -1.9082 -405.262 14.6299 -404.652 c 0
 292.991 -394.41 258.939 -150.796 251.985 33.7529 c 0
 240.98 325.872 225.711 660.932 208.976 1003.97 c 0
 207.763 1028.86 208.24 1055.99 210.953 1084.06 c 0
 227.548 1255.77 323.392 1456.7 626.515 1427.09 c 0
 629.199 1426.83 631.761 1426.5 634.203 1426.09 c 0
 674.922 1419.37 683.053 1396.38 680.387 1380.31 c 0
 677.656 1363.84 662.622 1347.39 632.165 1352.7 c 0
 603.88 1357.64 577.518 1359.25 553.007 1357.94 c 0
 338.943 1346.47 286.235 1119.55 292.031 1016.87 c 0
 309.737 703.246 320.011 359.306 334.293 51.0742 c 0
 337.034 -8.08301 342.042 -76.5029 339.007 -144.112 c 0
 330.865 -325.455 270.827 -498.795 -54.0918 -484.021 c 0
 -98.6318 -481.995 -108.922 -460.717 -108.109 -445.828 c 0
 -107.12 -427.701 -87.5615 -401.115 -38.2598 -403.961 c 0
EndSplineSet
EndChar

StartChar: uni0250
Encoding: 592 592 333
Width: 905
VWidth: 0
Flags: HW
VStem: 69 135.71<868.126 968.135> 95 120<133.51 306.83 425.752 685.224>
LayerCount: 2
Fore
SplineSet
107.661 961.02 m 0
 157.197 967.062 175.637 927.756 184.927 865.188 c 0
 186.527 854.413 196.872 846.742 207.647 848.343 c 0
 210.739 848.802 213.791 850.053 216.255 851.794 c 0
 302.22 912.565 402.457 947.902 498.584 959.462 c 0
 693.838 982.941 859.107 909.122 875.541 771.473 c 0
 902.083 549.156 629.465 389.06 436.744 345.348 c 0
 338.753 323.122 260.686 320.61 219.167 326.624 c 0
 206.856 328.407 196.54 318.05 196.305 307.267 c 0
 195.862 286.961 195.422 258.338 195.004 237.239 c 0
 194.111 192.188 207.709 154.698 233.216 127.516 c 0
 332.234 21.9932 577.713 80.9346 754.74 248.31 c 0
 774.472 266.964 786.869 262.151 795.914 252.193 c 0
 810.82 235.783 816.727 194.91 779.664 161.748 c 0
 618.031 17.1309 351.513 -40.0508 201.944 34.7314 c 0
 135.69 67.8584 110.866 151.276 114.973 229.799 c 0
 130.964 535.655 128.587 611.07 88.7744 873.839 c 0
 87.7764 880.428 86.8984 886.688 86.1729 892.596 c 0
 79.3555 948.132 85.3984 958.305 107.661 961.02 c 0
215.23 413.072 m 0
 237.199 408.238 289.83 395.687 384.225 411.104 c 0
 392.91 412.523 402.194 414.407 411.998 416.731 c 0
 547.554 448.863 832.793 578.135 790.459 756.462 c 0
 785.382 777.851 775.544 796.698 762.059 812.449 c 0
 659.198 932.594 359.601 881.576 201.822 746.203 c 0
 196.973 742.042 194.619 735.042 194.871 730.021 c 0
 200.635 615.187 200.999 535.362 199.53 432.892 c 0
 199.396 423.465 206.164 415.067 215.23 413.072 c 0
EndSplineSet
EndChar

